<svg version="1.1" id="Chosen_xA0_Bild_1_" xmlns="http://www.w3.org/2000/svg" x="0" y="0" viewBox="0 0 1002.5 197.7" xml:space="preserve"><style>.st0{fill:none}</style><path d="M327.7 12.4c2.1 1.2 2.7 3.2 3.1 5.4.2 1-.8 2.1-1.7 2.5-.6.2-1.2.8-1.8 1.1-.8.4-1.5.9-2.4 1.1-3.4.6-6.9 1-10.3 1.5-2.6.4-5.1.8-7.7 1.2-.5.1-1 0-1.5 0-.6 3.5-1.2 6.8-1.8 10.4 1.4-.2 2.7-.4 4-.6 2.8-.4 5.6-.9 8.4-1.3 1.4-.2 2.6.7 3.1 2 .2.6.4 1.1.6 1.7.6 1.5-.2 2.8-1.8 3.2-.5.1-.8.6-1.3.8-1 .5-2.1 1.1-3.2 1.2-3.5.5-7 .8-10.5 1.3-.3 0-.8.4-.9.7-.4 3.1-1.7 6-2.8 8.9-.5 1.3-.8 2.6-1.3 4.3 2.5-.3 4.7-.5 6.8-.8 3.5-.5 7-1.1 10.5-1.6 1.5-.2 3-.6 4.5-.7 1.5-.1 2.6.7 3.1 2.2.2.5.4 1.1.6 1.6.7 1.8 0 3.2-1.9 3.7-.5.1-.8.6-1.3.8-.9.5-1.9 1.1-2.9 1.3-3.2.6-6.4 1-9.6 1.5-2.8.4-5.6 1.1-8.4 1.3-3.2.2-6.4-.1-9.7-.2-.3 0-.8-.5-.9-.9-.4-1.4-.9-2.8-.9-4.3 0-1.6.2-3.4.7-4.9 1.3-4 2.9-7.9 4.1-11.9.9-3 1.3-6.1 2.1-9.1.9-3.6 2-7.1 3-10.7.2-.6.4-1.1.4-1.7.1-2.9 1.8-4.4 4.4-5.1 4.2-1.1 8.4-2.3 12.7-3.3 2.9-.7 5.7-1.4 8.6-2 .7-.2 1.5-.1 2.3-.2.5 0 .9-.2 1.4-.2 0-.2.1-.2.2-.2zM566.1 137.8c-.7.9-1.7 1.4-2.9 1.7-.5.1-.8 1-1.3 1.2-1.6.8-3.2.9-5 .8-2.2-.2-4.5 0-6.8 0-1 3.4-1.9 6.8-3 10.2-.3.9-.6 1.9-2 2-.5 0-.9.5-1.3.8-.5.3-.9.7-1.5 1-.4.2-.8.2-1.3.3-2.3.3-2.3.3-2.6-2v-.1c-1.5-3.7.3-6.8 1.5-10.1l.6-1.5c.1-.1 0-.3 0-.7-.7-.1-1.5 0-2.2-.2-1.7-.3-3.4-.7-5-1.2-.5-.2-.9-1-1.2-1.6-.3-.8-.5-1.6-.6-2.4 0-.6.2-1.3.4-1.9 1-2.1 2.9-2.4 5-2.3 2 .1 4 0 6.1 0 .2-.7.4-1.5.6-2.2.6-1.8 1.2-3.6 2-5.3 1-2.1 1.7-2.7 4.2-2.5 1 .1 2.2 1.9 2.1 3.3-.1 1.9-.4 3.8-.6 5.7 0 .3-.1.6-.1 1h8.1c1.2 0 2.3-.1 3.5-.1.7 0 2 1.4 2.3 2.5.2.6.5 1.1.7 1.7.3.5.3 1.2.3 1.9zM448.6 145.3c2.9-.5 5.7-1 8.5-1.5.3-.1.7-.5.7-.8.2-1.7.3-3.5.5-5.2.4-4.7 1.2-9.3 2.5-13.8.3-1.1.5-2.2.6-3.3.3-3.2 2.1-5.7 4.1-8 .7-.8 2.1-1.1 3.3-1.4 2.8-.7 4.1 1.2 5.4 3.1 3.9 5.5 6.9 11.4 9.5 17.6l4.2 10.5v-4.7c-.2-5.5.4-11 2.1-16.2.8-2.4 1.8-4.8 2.8-7.2.5-1.2 1.1-2.4 1.9-3.5.5-.6 1.4-1.1 2.2-1.3 1-.3 2.2-.4 3.2-.2.8.2 1.3 1.2 1.9 1.8.2.2.2.5.3.8 2.1 3.5-.2 6.5-1.4 9.5-1.1 2.9-2 5.8-2.2 8.9-.3 4.2-.1 8.5-.3 12.7-.1 2.6-.5 5.1-1.1 7.6-.7 2.7-2.4 5.1-4.8 6.5-2.1 1.2-4 3.1-6.8 3.2-1.3.1-2.4.2-3.4-1.2-1.4-2.1-2-4.5-2.6-6.8-.7-2.5-1.2-5-2-7.4-.6-1.9-1.7-3.7-2.2-5.6-1.2-4.7-4-8.7-5.9-13.1h-.3c-.6 2.4-1.2 4.8-1.7 7.2-.9 5.2-1.1 10.4-2.3 15.6-.6 2.4-.6 4.9-.8 7.3-.1.8-.2 1.6-.4 2.3-.6 1.6-3 3.2-4.8 3-.5-.1-1.1-.6-1.2-1.1-.5-1.8-.8-3.6-1.2-5.3-2.8.6-5.7 1.2-8.6 1.8-.1 1.8-.1 3.6-.4 5.3-.6 3.8-1.5 7.5-3.6 10.9-2.2 3.5-4.4 6.9-6.7 10.3-3.1 4.4-7.6 6.8-12.7 7.9-5 1.1-9.1-1-12.2-4.7-1.1-1.3-1.6-3.3-2-5.1-.8-2.8-1.1-5.6-1.2-8.6-.2-5 2.2-8.4 5.6-11.4 4.3-3.8 9.6-5.9 14.9-8.1 2.9-1.2 5.9-2.5 8.8-3.8.3-.1.7-.5.8-.8.1-2.3 0-4.6 0-7-.9.5-1.9 1.1-2.9 1.5-4.1 1.9-8.4 2.3-12.7.8-2-.7-3.8-2-4.4-4.3-.9-3.4-1.3-6.9-.3-10.3.5-1.8 1.8-3.4 3-5 3.4-4.4 8.1-6.7 13.1-8.7 3.2-1.2 6.3-2.3 9.8-2.1 1.6.1 3.3 0 4.9.3.8.2 1.7 1.2 2 2.1 1.8 4.7.7 9.2-1.3 13.7-.5 1.2-.8 2.5-1 3.9-.4 2.6-.8 5.2-1.1 7.8-.3 1.2-.1 2.4-.1 3.6zm-8.9 14.1c-.4.1-.6.1-.7.1-3.1 1.3-6.1 2.7-9.2 3.9-3.6 1.4-6.9 3.1-9.5 6.1-.4.5-.8 1.3-.8 2-.1 1.3-.1 2.6 0 3.8.1 1.7.4 3.3 2.3 4.1 1 .4 2 1.1 3 1.6 2.3 1.1 3.6 1 5.2-1.1 2.2-2.9 4.2-5.9 6.1-8.9 2.2-3.5 3.1-7.4 3.6-11.6zm4.1-39.7l-.3-.3c-2.7 1.2-5.5 2.3-8.1 3.7-2.8 1.5-5.2 3.6-7.3 6.1-1.3 1.6-1.2 3.6-1.1 5.5 0 .5.3 1.2.7 1.4 2.1 1.3 4.4 1.5 6.8.4 2.7-1.3 4.5-3.6 6.3-5.8.4-.5.8-1.1 1-1.7.6-2.2 1.1-4.4 1.6-6.6.2-.9.2-1.8.4-2.7zM29.4 151.1c-1.7 1-3.4 1.8-4.9 2.9-2.3 1.6-5 2.2-7.7 2-4.4-.4-7.8-2.7-10.4-6.2-.2-.2-.3-.6-.3-.9-1.6-6.5-1.3-12.8 2-18.8 1-1.8 2-3.7 3.2-5.4 4.1-6.3 10-10.2 17.2-11.9 2.7-.6 5.5-.6 8.2.3.2.1.6 0 .9-.1 2.8-.9 4.2-.2 5.3 2.5.8 2.1.6 4.1.4 6.2-.3 3-.8 6-1 8.9-.6 7.1-1.2 14.2-3.5 21-.3.9-.5 1.8-.7 2.9 2-.9 3.7-1.8 5.5-2.6 3.4-1.5 6.8-3 10.2-4.3 1.4-.5 1.8-1.3 2.1-2.5.9-4.4 2.2-8.7 2.7-13.1.6-4.9 1.9-9.6 3.2-14.3.4-1.6 1.6-3.2 3.7-2.9 1.1.1 2-.3 3.1-.6 2.2-.7 4.4-1.1 6.7-1.5 1.1-.2 2.3-.2 3.5-.2 4.6-.2 9.2 2.9 9.1 8.4 0 1.3.4 2.6 0 3.8-.5 1.5-1.5 2.9-2.4 4.3-.9 1.4-1.9 2.7-3 3.9-.6.7-1.4 1.2-2.3 1.7-2 1.1-4 2-6.1 3 1 2.6 2.3 5.2 3.9 7.7 2 3.2 3.7 6.6 5.6 9.9.9 1.7 1.9 3.3 2.8 5.1.6 1.2 1 2.5 1.5 3.7.5 1.5-.4 2.8-2 3.3-.5.1-.9.6-1.4.9-.2.2-.4.5-.7.6-.5.2-1 .5-1.5.6-2.9.7-2.8.6-4.2-2-2.7-5.1-5.6-10.1-8.4-15.1-1-1.9-1.8-3.8-2.8-5.8-.4-.9-.8-1.8-1.5-2.7-.5 2.4-1 4.7-1.5 7.1-.9 3.7-1.9 7.4-2.9 11.1-.3 1.2-.4 2.5-.6 3.7-.2 1-.7 1.8-1.8 2.1-.6.2-1.2.5-1.6 1-.8.8-4 1.8-4.9 1.2-.4-.2-.6-1-.8-1.6-.3-.9-.4-1.8-.6-2.6-.1-.6-.1-1.2.1-1.7.5-2.2 1-4.3 1.6-6.7-1.1.5-2.2.9-3.2 1.3-4.2 1.9-8.5 3.9-12.7 5.8-.3.1-.5.5-.6.9-1.2 3.9-2.2 7.8-3.4 11.7-1.1 3.3-3.9 5-6.7 6.6-.2.1-.5.2-.8.3-2.4 1.9-5.2 2.2-8.1 2-.9-.1-1.9-.6-2.6-1.3-1.2-1.2-2.4-2.6-3.3-4-.6-.9-.8-2.1-1.1-3.2-.4-1.8-.6-3.7-.9-5.5-.4-3.6 1.7-6.1 4.2-8.1 2.7-2.2 6-3 9.2-3.9 1.6-.4 3.1-.9 4.6-1.5.4-.2.9-.6 1-1.1.6-2.1.9-4.2 1.4-6.3zm4.7-31.2c-1.1.1-1.7.1-2.4.2-1.2.1-2.5 0-3.5.5-2 1-4 2-5.7 3.4-2.8 2.3-4.6 5.4-6.2 8.7-1.4 3.1-2.5 6.2-2.4 9.7 0 .9.3 1.6 1 2 1.3.8 2.7 1.6 4.1 2.3.8.4 1.6.4 2.4-.3.8-.7 1.7-1.3 2.5-2 3.1-2.5 5.6-5.4 6.5-9.5 1.3-5 2.5-9.9 3.7-15zm33.3 9.8c1.9 0 3.4.1 4.9 0 1.5-.2 3-.5 4-1.7s1.9-2.5 2.9-3.8c.7-1 .4-2.3-.7-3-2.1-1.5-4.6-1.3-7-1.5-2.4-.1-2.5-.1-2.9 2.2-.5 2.5-.8 5-1.2 7.8zm-41.3 38.1c-2.3.7-4.2 1.1-6 1.8-1.6.5-1.8 1.2-1.8 2.4-.1 1.5.5 2.5 1.5 3.6 1.3 1.4 2.9 1.4 3.7-.3 1-2.4 1.7-4.8 2.6-7.5zM980 139.8c.6-3.2 1.1-6.4 1.6-9.5.9-5.4 1.5-10.9 1.5-16.4 0-1.6.3-3.2.5-4.9 0-.3.4-.6.6-1 .2-.3.4-.5.6-.7.6-1.4 1.7-2.2 3.2-2.3.7 0 1.4-.1 2.1-.2.7-.1 2.2 1.3 2.5 2.4.6 1.8 1.1 3.5.8 5.4-.3 2.1.1 4.2-.1 6.3-.3 3.7-.8 7.4-1.3 11.1-.5 3.3-1.1 6.6-1.5 9.9-.4 3.2-.4 6.5-2 9.3-1.6 2.8-3.1 5.8-5.4 7.9-2.1 1.9-4.8 3.7-8.1 3.5-.9-.1-1.4-.2-1.6-1.2-.6-3.7-1.3-7.5-1.9-11.2-.6-3.6-1.4-7.2-3-10.5-2.2-4.6-3.5-9.6-5-14.5-.5-1.7-1.3-3.3-2-5-1.8 2.2-2.1 4.6-2.3 7.1-.6 6.2-.6 12.5-2.4 18.6-1.1 3.7-1.9 7.5-2.9 11.2-.1.4-.4.9-.7 1.1-1.5.7-3.1 1.3-4.6 1.8-.8.3-.9-.4-1.2-1.1-1.1-3.7.5-7.2 1.1-10.7 1-5.5 2.1-11 2.1-16.7 0-3.2.3-6.4 1-9.5.5-2.2 2-4.3 3.1-6.4 1.1-2 2.8-3.2 4.8-4.2 1.9-.9 4-1.1 5.9-.8 1 .2 2.1 1.2 2.6 2.2 1.4 2.7 2.5 5.5 3.7 8.3 1.7 3.9 3.4 7.7 5 11.6.9 2.3 1.6 4.6 2.4 6.9.5.9.7 1.6.9 2.2zM201.7 28.5v6.6c-.1 3 .1 6-.3 9-.4 2.9-1.2 5.7-2.1 8.5-1.6 4.7-3.5 9.4-5.4 14.1-.2.5-.9.9-1.4 1.2-.7.4-1.5.9-2.3 1.1-1.4.4-1.6.1-1.9-1.3-.9-3.5-.3-6.9.5-10.2.8-3.2 1.9-6.3 2.9-9.4.8-2.7 1.1-5.5 1-8.4-.1-3.4-.2-6.9 0-10.3.1-2.3.5-4.7 1.3-6.8.8-2.1 1.8-4.4 4.3-5 3.1-.7 6-.3 8.6 1.9 2.3 2.1 3.9 4.6 5.4 7.2 1.3 2.3 2.7 4.5 4.1 6.8 1.8 2.9 2.7 6.1 3.2 9.5.1 1 .4 2 .6 3h.4c.7-2.6 1.4-5.3 2-7.9.9-3.6 1.3-7.4 3.1-10.8l2.1-3.6c.6-1.1 1.1-2.3 1.9-3.2.8-.8 1.9-1.1 2.9-1.6.4-.2.9 0 1.4 0 1.4 0 2.6.8 3.1 2.1v.2c1.7 2.7.6 4.9-1.1 7.1-2 2.6-2.6 5.9-3.3 9-.9 4.3-1.7 8.6-3.7 12.5-1.5 2.8-2.7 5.8-4 8.7-1.2 2.8-3.1 5.2-5.1 7.4l-.1.1c-2.3.8-4.1 2.9-6.8 2.9-.9 0-1.2-.4-1.4-1.2-1.5-5.8-.5-11.7-.8-17.5-.2-3-.5-6.2-1.7-9-1.5-3.8-3.9-7.3-5.9-11-.4-.7-.9-1.3-1.4-2 .1.2 0 .3-.1.3zM270.8 43.1c.2-1.1.3-2.1.4-3.1.5-3.9 1.1-7.8 2.4-11.6.7-2 .9-4.1 1.5-6.1.6-1.8 1.4-3.8 3.4-4.5 1.1-.4 2.5-.6 3.6-.3.8.2 1.4 1.3 2 2.2 1.6 2.5.6 5.1-.1 7.7-.7 2.6-1.5 5.1-2.1 7.8-.6 3.2-.8 6.4-1.5 9.6-.7 3.1-1.7 6.1-2.5 9.2-.7 2.5-1.6 5-3.3 7-1 1.2-1.9 2.7-3.7 3-.2 0-.4.3-.6.5-1.5 1.3-3.3 1.7-5.2 1.6-.4 0-.9-.4-1.1-.7-.5-1.1-.9-2.3-1.2-3.4-1.2-4.1-1.2-8.3-1.2-12.4 0-3.8-.7-7.4-1.7-11-.9-3.2-1.3-6.4-1.9-9.7-.2-1.2-.5-2.3-.8-3.4-.1 0-.2 0-.3-.1-.2.5-.4.9-.6 1.4-2.8 7-5.8 13.9-8.4 20.9-1.7 4.5-2.8 9.1-4.2 13.7-.5 1.6-.8 3.3-1.4 4.9-.6 1.5-3.2 2.9-4.7 2.6-.4-.1-.8-.6-1-1-.4-1.1-.6-2.3-.8-3.5-.5-3 .5-5.8 1.1-8.7 2-9.2 5.7-17.8 9.2-26.4.7-1.6 1.3-3.2 2-4.8 1.2-3.1 3-5.8 5.1-8.2.7-.8 2-1.2 3.1-1.5 3.1-.7 5.5.5 7.1 3.1.9 1.4 1.6 2.9 2.1 4.5.9 3.3 1.4 6.7 2.2 10 .4 1.7 1 3.3 1.4 5 .6 1.7 1.1 3.6 1.7 5.7zM788.8 131.6c2.6 4.9 5.1 9.7 7.7 14.6 1.7 3.2 3.5 6.3 5.1 9.5 1 1.9 1.7 4 2.5 6 .5 1.5-.5 2.9-2 3.3-.6.2-1 .8-1.5 1-1 .5-2.1 1.2-3.2 1.3-2.5.3-2.1.5-3-1.8-1-2.4-2.4-4.6-3.6-6.8-.7-1.4-1.4-2.7-2.2-4.1-2.2-4.3-4.4-8.6-6.7-12.8-1.1-2-2.6-3.9-4.2-5.8-.2 1.3-.4 2.7-.6 4-.4 3.4-.8 6.7-1.2 10.1-.2 1.7 0 3.4-.3 5.1-.4 2.4-1 4.7-1.6 7-.3 1-3.2 2.4-4.1 2-.5-.2-1-.8-1.1-1.4-1.6-5.4-1.7-10.9-1.2-16.5.3-3.2.5-6.4.9-9.5.4-2.6.9-5.1 1.6-7.7.9-3.6 1.8-7.2 3-10.7.7-2 2-3.9 3.1-5.7 2.1-3.4 5.5-4.4 9.2-4.9 3-.4 5.9 0 8.8.7 2.3.6 3.7 2 4.7 3.9 1.6 2.9 2 6.1 1.6 9.3-.1 1-.8 2.1-1.5 2.9-3 3.3-6.6 5.5-10.2 7zm-8.3-7.5c1.8-.4 3.3-.7 4.7-1 1.8-.4 3.6-.6 5-2.1 1.2-1.3 1.2-2.3-.5-2.9-1.5-.6-3.1-.9-4.7-1.3-1.1-.3-1.7.2-2.1 1.2-.6 2-1.5 3.9-2.4 6.1zM385.8 38c.9 1.1 1.7 2.3 2.7 3.3 2.6 2.8 5.3 5.6 7.7 8.5 1.5 1.9 2.7 4.1 3.9 6.2.9 1.6 1.6 3.3 2.3 4.9.7 1.6 0 2.9-1.7 3.3-.3.1-.8.2-.9.4-1.1 1.7-2.9 1.4-4.5 1.7-.3.1-.8-.3-1-.6-.4-.5-.7-1-.9-1.5-1.2-3.7-3.7-6.5-6.2-9.3-4-4.6-7.8-9.2-11.8-13.9-.1-.1-.2-.3-.4-.5-.6 2.3-1.1 4.6-1.8 6.8-1.5 4.5-3 9.1-4.7 13.5-.5 1.5-1.4 2.9-2.5 4-1 1.1-2.5 1.6-4 1.7-.3 0-.7-.4-.8-.6-.3-1.7-.8-3.3-.2-5.1 1.5-5 2.8-10 4-15.1 1-4.5 1.7-9 2.6-13.5.9-4.5 2.1-8.9 4.2-12.9.9-1.7 1.9-3.4 3.1-4.9.6-.8 1.6-1.6 2.6-1.9 2.6-.9 5.3-1.9 8-2.3 4.3-.5 8.6-.7 12.2 2.6 1.9 1.8 3.1 4 3.2 6.6.1 1.7 0 3.4 0 5.2 0 2.3-.7 4.3-2 6.1-.8 1.1-1.9 1.9-3.1 2.6-3 1.8-6.2 3.4-9.6 4.4 0 0-.1.1-.4.3zm-8.8-7.8c4.8.8 9.2-.3 13.3-2.6.7-.4 1.5-1.2 1.6-1.9.3-1.5.3-3.1.4-4.6 0-.3-.3-.6-.6-.8-3.2-2.6-6.8-2.4-10.4-1-.2.1-.3.2-.4.4-1.6 3.4-3.1 6.8-3.9 10.5zM340.8 131.9c.6 3.2-1.2 6.1-3 8.9-2.9 4.5-6 8.9-9 13.3-1.7 2.5-3.3 5-5.1 7.3-.8 1.1-1.9 2.1-2.8 3.1-2.3 2.4-4.5 5-7 7.2-2.2 1.9-4.7 3.7-7.9 3.9-1 0-1.2-.3-1.4-1.2-.2-1-.5-2.1-.6-3.1-.1-.6-.1-1.4.2-1.8.9-1.1.5-2.3.1-3.3-.4-1.1-.3-2.1-.1-3.1 1.1-4.4 2.3-8.8 3.4-13.2.3-1.2.1-2.5.3-3.8.3-2.4.8-4.9 1.1-7.3.3-2.8.7-5.5.9-8.3.3-3.9.3-7.9.5-11.8.1-1.3-.1-2.7 1-3.6.4-.4.9-.9 1.4-.8 2.4.3 4.4-1 6.6-1.3 2.9-.4 5.7-.8 8.6-.2 2.6.6 4.8 2.1 6.8 3.7 4.3 3.3 6.1 9.3 6 15.4zM315.2 158c.5-.5 1.3-1.2 1.9-2 4.4-6.5 8.7-13 13.1-19.5 1.8-2.6 1.4-5.5 1.3-8.4 0-.6-.4-1.2-.8-1.7-1.7-2.3-3.9-4-6.4-5.3-2-1.1-4.1-1.2-6.5-1 1.3 12.9.1 25.5-2.6 37.9zM907 143.9c-.6-4.4 1.1-8.3 2.1-12.3 1.5-6.2 3.8-12.1 7.4-17.5 1.6-2.3 3.3-4.4 5.9-5.7.2-.1.5-.3.6-.6.5-1.8 2-2.1 3.5-2.3.8-.1 1.5-.2 2.3-.1.7.1 1.4.3 1.9.8 1.8 1.7 3.3 3.6 4.3 5.9 1.3 2.9 3 5.6 4.4 8.4 1.5 2.8 2.7 5.7 2.6 9-.2 3 .2 6.1-.4 9.1-.6 3.2-1.7 6.2-2.9 9.2-.8 1.9-2 3.7-3.2 5.4-2.7 3.7-6.7 5.5-10.7 7-2.3.8-5 .7-7.5.5-1.4-.1-2.7-1.2-3.9-2.1-1.5-1.2-3-2.6-4.3-4-.7-.7-1.1-1.7-1.4-2.7-.7-2.6-1.3-5.3-.7-8zm16.7-27.2c-1.3 3-2.8 5.9-3.9 9-1 2.7-1.5 5.6-2.2 8.5-.9 3.5-1.9 7-1.6 10.7.1 1.3.4 2.2 1.3 3 1 .8 1.8 1.7 2.9 2.3 1.1.7 2.4 1.5 3.7 1 1.8-.8 3.4-1.9 4.4-3.6 3.4-5.5 4.2-11.5 3.8-17.7 0-.5-.2-.9-.5-1.3-1.1-1.9-2.2-3.9-3.3-5.8-1.2-2.2-1.9-4.7-4.6-6.1zM118.4 40.8c1 .6 2.1 1.2 3.1 1.8 3.5 2.3 5.3 5.5 5.3 9.7 0 1.4.2 2.9 0 4.2-.4 2.3-1.6 4.5-3.6 5.8-3.9 2.6-7.8 5.3-12.4 6.7-2.1.6-4.3 1-6.4 1.6-.9.3-1.9.7-2.7 1.2-1 .7-2.2 1-3.1.6-.9-.4-1.4-1.5-1.3-2.6v-.5c-1.1-4.1.1-8 .6-12.1.1-1.1.2-2.3.1-3.5-.2-3.5.6-6.8 1.6-10 .8-2.5 1-5.3 1.8-7.8 1.1-3.6 1.3-7.3 1.7-11 .2-1.8 2.1-3.4 3.9-3.5l17.7-.3c2.3 0 4.2 1.5 5.2 3.6.8 1.8.8 3.7.7 5.6-.1.7-.7 1.5-1.1 2.2-2.8 3.8-6.6 6.3-10.9 7.9-.1.2-.1.3-.2.4zM107.7 46c-1.2 2.9-1.5 5.4-1.5 8.1-.1 2.6-.5 5.3-.8 8 2.1-.5 4.1-.7 6-1.4 1.9-.7 3.6-1.9 5.4-3 2.5-1.6 2.7-5.1.2-6.6-3.1-1.9-6.2-3.4-9.3-5.1zm3.7-16.6c-.3 1.8-.6 3.6-.9 5.5 4.1-.8 8.3-1.4 11.3-5.5h-10.4zM188.7 133.7c2.5-.2 4.8-.4 7.2-.7 1.9-.2 3.8-.5 5.6-.8.3-.1.8-.4.9-.7.6-2.6 1.3-5.1 1.8-7.7.4-2 .5-4.1.8-6.1.3-1.9 1.9-3.1 3.7-2.9.6.1 1.3.8 1.5 1.3.5 1.8.9 3.7 1.3 5.5.7 3.3-.5 6.5-1 9.7-.2 1.3-.5 2.6-.6 3.9-.1 2.7-1.5 4.9-2.1 7.5-1.1 4.4-2.2 8.9-3.3 13.3-.9 3.9-1.8 7.7-2.7 11.6-.2.7-.5 1.5-1.7 1.6-.5 0-1 .5-1.4.9-.6.6-3.8 1.6-4.5 1.2-.3-.2-.5-.8-.6-1.2-.1-.6 0-1.2-.3-1.7-.6-1.3-.4-2.5 0-3.7 1.9-7.1 3.8-14.3 5.7-21.4.1-.4.2-.8.3-1.3h-12.4c-.9 3.3-1.8 6.7-2.6 10-.8 3.2-1.4 6.5-2.5 9.7-.6 2-1.8 3.8-2.7 5.6-.1.2-.2.4-.3.5-2.2.5-3.8 2.7-6.3 2.5-.7-.1-1-.2-1.1-.9-.2-1.1-.5-2.1-.7-3.2-.1-.6-.1-1.3.2-1.7 2-3 2.6-6.4 3.5-9.8.9-3.7 2.1-7.4 3-11.1 1.1-4.2 2.1-8.4 3-12.7.4-2 .4-4 .6-6.1.2-2.3.4-4.6.8-6.9.3-1.9 2-3.8 3.8-3.8 1.9 0 2.4 1.1 2.8 2.6.7 2.7.9 5.4.6 8.1-.2 1.7 0 3.4-.1 5.2 0 1.1-.1 2.4-.2 3.7zM834.3 142.6c-1.6.1-3.3.1-5 .2-2.7.1-5.3.4-8 .4-.8 0-1.2.2-1.5.9-1.9 5.2-3.8 10.3-5.6 15.5-.5 1.5-.8 3.1-1.3 4.7-.2.8-.6 1.4-1.7 1.6-.9.2-1.8.9-2.7 1.2-1.5.4-1.8.1-2-1.4-.1-.7-.3-1.4-.5-2.1-.6-2.4.2-4.7.9-6.9 1.8-5.8 3.8-11.6 5.8-17.3 1.7-5.1 3.3-10.2 5.1-15.2 1.5-4.2 3.7-8.2 6.8-11.5.6-.7 1.6-1 2.4-1.4.9-.4 1.9-.5 2.8-1 1.8-1 3.6-1.3 5.6-1.3.6 0 1.2.5 1.7.9 1.8 1.7 2.7 3.9 3.3 6.2 1.1 4.3 2.1 8.7 2.9 13 .3 1.9 0 3.9.1 5.9.1 2.1.5 4.2.7 6.4.3 3.4.5 6.8.7 10.2.1 1.2 0 2.3 0 3.5 0 1.4-.9 2.4-2.3 2.7-.4.1-.8.3-1 .5-1.2 1.6-3.1 1.5-4.8 1.5-.3 0-.7-1.1-.8-1.7-1.6-4.9-.2-10.2-1.6-15.5zm-11.5-7.3c3.8-.6 7.3-1.1 10.8-1.6.2-5.5-.6-10.6-2.5-15.7-.8.6-1.6 1.2-2.1 2-.9 1.4-1.7 2.9-2.3 4.4-1.1 2.8-2 5.7-3 8.5-.2.7-.5 1.4-.9 2.4zM682.7 154.7c1.8-1.7 2.4-3.8 3-5.8 1.6-5.3 3.1-10.7 4.4-16.1.6-2.5.7-5.2 1.2-7.8.6-3.1 1.3-6.3 1.9-9.4.2-.8.4-1.5.7-2.3.7-1.5 1.2-3.1 2.2-4.4.6-.8 1.8-1.1 2.8-1.4.8-.2 1.7-.1 2.5-.1.7 0 1.9 1.5 2.4 2.6 1.4 2.7.1 5.2-.5 7.8-.7 3-1.3 6.1-1.9 9.1-.7 3.6-1.1 7.2-2 10.7-1.4 5.3-3 10.5-4.8 15.7-1.1 3.4-3 6.5-5.8 8.6-3.1 2.3-6.5 4.1-10.7 3.2-2.4-.5-3.8-2.4-4.3-4.7-1.2-4.9-.3-9.8-.3-14.6-.1-4.9.2-9.8.4-14.7.1-3.8.3-7.6.5-11.4.1-1.5.6-2.9 1-4.4.3-1.1.8-2.3 1.4-3.3.7-1.3 2-1.2 3.2-1 .6.1 1.2.8 1.5 1.4.7 1.1.5 2.4.4 3.7-.1 3 0 5.9 0 8.9 0 .3.1.5.1.8.1 3.5.2 6.9.2 10.4l.3 16.9c-.1.5.1.9.2 1.6zM118.1 149.7c-4-.2-7.8-.4-11.8-.6-.4 1.4-.7 2.8-1.2 4.2-1.4 4-3 7.9-4.5 11.9-.2.4-.4.9-.6 1.3-.3.8-.6 1.5-1.7 1.5-.3 0-.6.2-.8.4-.9 1.1-2.2 1.1-3.5 1.1-.3 0-.6-.4-.8-.8-.2-.4 0-.9-.2-1.3-.7-1.4-.4-2.7.1-4 2-5.3 3.5-10.7 4.9-16.2.9-3.6 2.5-7.1 3.5-10.7 2.1-7 5.4-13.2 9.7-19.1 1.8-2.5 4.1-4.1 7.4-4.1 3 0 3.7.5 4.9 3.3 1.1 2.6 1.4 5.3 1.4 8 0 4.1.7 8 1.4 12 .6 3.1 1 6.3 1.2 9.5.2 5.1.2 10.3.3 15.4 0 1.6-.6 2.3-2.1 2.7-.4.1-.9.5-1.2.8-.8.9-3.9 2-4.9 1.4-.4-.2-.5-1-.6-1.5-1.4-4.9-.6-10.1-.9-15.2zm-.6-9.2c-.6-5.4-1.2-10.5-1.7-15.4-2.6 4.9-5.4 10.1-6.6 16 2.8-.2 5.6-.4 8.3-.6zM79.9 47c-3 .4-5.7.8-8.4 1.2-1.8.3-3.6.4-5.4.8-.5.1-1.1.6-1.4 1.1-.8 1.2-1.6 2.5-2.3 3.7-1.1 1.9-2.3 3.7-3.3 5.7-1.4 2.9-2.8 5.8-3.5 9.1-.3 1.6-1.2 3.1-1.9 4.6-.1.1-.2.4-.3.4-2.5.4-4.1 3.2-7 2.9-1-.1-1.4-.4-1.5-1.3-.2-1.2-.6-2.4-.7-3.6-.1-.7.1-1.6.5-2.3 1.6-2.7 3.3-5.4 4.9-8.1 2.1-3.6 4.1-7.2 6.1-10.8l10.2-18.6c1.7-3 3.9-5.6 6.5-7.9 1.3-1.1 2.8-1.5 4.5-1.6h.6c1.4.1 3.1-.2 4.2.4 1.9 1.1 3.1 3 3.7 5.2.4 1.6.7 3.3 1 5 .5 2.5.9 5 1.3 7.6.7 5.1 2.1 10.1 1.9 15.3-.1 2.9.5 5.9.8 8.8.2 1.8.4 3.5.5 5.3.1 1.4-.5 1.9-1.9 2.3-.4.1-.9.5-1.2.8-.8.9-3.8 1.7-4.8 1.3-.2-.1-.4-.5-.5-.7-.6-3.7-1.3-7.4-1.7-11.1-.4-3-.4-6.1-.6-9.2.1-2.1-.1-4.1-.3-6.3zm-1.1-6.5v-.9c-.3-2.6-.7-5.1-.9-7.7-.1-1.1-.6-1.7-1.7-2.4-1.1 1.6-2.3 3-3.2 4.6-.8 1.4-1.2 2.9-1.8 4.4-.5 1.1-1.1 2.2-1.8 3.5 3.3-.5 6.3-1 9.4-1.5zM478.7 31.2c0 .9-.1 1.9 0 2.8.3 3-.6 5.5-2.3 7.8-1.8 2.4-3.5 5-5.6 7.1-3.6 3.6-7.7 6.6-12.3 8.9-4.3 2.1-8.5 4.5-12.8 6.6-1.2.6-2.6.6-3.9.9-.2 0-.7-.3-.7-.4-.3-1.6-.7-3.2-.7-4.7 0-.8.8-1.5 1.2-2.3.6-1.3 1.1-2.6 1.5-4 1.8-5.6 3.4-11.3 5.2-16.9.6-2 1.6-3.8 2-5.8.5-2.4.6-4.9.8-7.4.2-2.2.7-4.2 1.9-6 .2-.3.4-.5.7-.6 2-.7 3.9-1.6 6-1.8 3.5-.3 7-1.3 10.5-.2 5.3 1.7 8.1 5.6 8.5 11.5.1 1.4 0 2.9 0 4.5zm-26 20.8c2-1 3.9-1.7 5.5-2.8 3.9-2.7 7.5-5.6 10.1-9.7 1.2-1.8 2.1-3.7 2-5.9-.1-2.2 0-4.3.1-6.5.1-1.3-.5-2.2-1.5-2.9-2.1-1.5-4.4-2.4-6.9-2.6-1.2-.1-2.5-.1-3.8-.2.1 1.3.3 2.5.4 3.7.1 2.4.5 5 0 7.3-1.2 5.5-2.9 10.8-4.4 16.2-.6 1-1 2-1.5 3.4zM407.9 51.5c-.2-4.8.4-9.6 2.3-14 2.3-5.6 4.4-11.3 8.5-16 .1-.1.3-.4.3-.5-.9-1.8.6-3.1 1.4-4.2.9-1.4 2.7-1.8 4.3-1.9 1.7-.1 3.4 0 5-.1 4.2-.2 6.9 2.1 8.7 5.5.9 1.6 1.5 3.4 2.2 5.1.3.8.4 1.7.5 2.5.1 2.3.1 4.6 0 6.8-.1 3-.2 6-.8 8.9-.9 4.8-3.3 9-6.5 12.6-2.2 2.4-4.9 4-7.7 5.6-1.9 1.1-3.8 2.3-6.1 2.5-2.7.3-5.3.6-7.9-.4-2.1-.8-3.3-2.4-3.6-4.5-.5-2.6-.6-5.3-.9-8 .1.1.2.1.3.1zm8.2-.7c0 1-.1 1.9 0 2.9.1.7-.1 1.6.8 1.9 2 .8 3.9 1.2 5.6-.5.5-.5 1.2-.9 1.8-1.3 4.7-3 6.6-7.8 7.4-12.9.5-3.3.1-6.8.4-10.2.2-2.6-1.8-5.6-4.6-6.5-1.9-.6-2.4-.4-3.6 1.2-2.2 2.9-3.1 6.3-4.5 9.5-2 5.1-3.4 10.3-3.3 15.9zM174.1 121.4c.4 2.8-1.5 4.9-3.3 6.9-2.9 3-6.7 4.7-10.9 5.3-3.9.5-7.8.9-11.6 1.5-.3 0-.7.5-.8.8-.7 3.3-1.5 6.5-2 9.8-.8 5.1-2.6 9.9-4.3 14.8-.5 1.4-.5 3-.9 4.4-.4 1.4-3.3 2.9-4.7 2.5-.3-.1-.6-.5-.7-.8-1-3.3-1.5-6.6-.3-10 1.5-4.1 2-8.5 2.6-12.8.3-2.1.9-4.3 1.3-6.4 1.2-6.1 2.5-12.2 3.7-18.4.3-1.6.5-3.3 1-4.9.8-2.7 2.4-4.5 5.3-4.6 5-.1 10-.4 15-.7 1.4-.1 2.7.3 3.8 1.2 1.6 1.4 3.3 2.8 4.7 4.4 1.4 1.9 2.2 4.2 2.1 7zm-24.3 4.5c3.4-.3 6.8-.7 10.2-1 .8-.1 1.8-.2 2.5-.6.9-.6 1.8-1.4 2.3-2.3.2-.4-.9-1.4-1.5-2-1.6-1.6-3.5-2.5-5.9-2.3-1.5.2-3 .2-4.5.3-1.3 0-1.7.3-1.8 1.7 0 .4-.1.8-.2 1.2-.4 1.6-.7 3.3-1.1 5zM353.5 122.9c-.3 4.4-.7 9-1 13.7 2.3-.8 4.5-1.7 6.7-2.4 1.2-.4 2.6-.7 3.8-.5.7.1 1.4 1.1 1.9 1.9.4.5.5 1.2.7 1.8.4 1.2 0 2.4-1.1 3-2.6 1.5-5.3 2.9-8.3 3.4-1.2.2-2.5.5-3.7.6-.8 0-1.2.3-1.4 1.1-.8 3.6-1.6 7.2-2.5 10.8-.3 1.5-.7 2.9-1.1 4.5 4.2-.4 8.3-.7 12.1-2.5 1.1-.6 2.6-.6 3.9-.5.6 0 1.3.9 1.6 1.5.5 1.1.9 2.3 1.2 3.6.2 1-.5 1.9-1.3 2.4-2.4 1.3-4.9 2.5-7.5 3.4-2.1.7-4.4 1-6.6 1.2-3.4.3-6.7.4-10.1.5-2 .1-1.9-.3-2.4-2.2-1.1-4.8.5-9.2 1.6-13.7 1.4-5.6 2.9-11.1 4.1-16.7.6-3 .7-6.1 1.1-9.2.1-.8 0-1.7.3-2.5.9-2.7 1.3-5.4 1.6-8.2.2-1.8 2.1-3.6 3.9-3.7 3.4-.1 6.6-1 9.8-2.2 1.4-.5 3-.6 4.4-.4.7.1 1.4 1.2 2 2 .4.5.5 1.2.7 1.8.7 1.8 0 3.1-1.9 3.6-.5.1-.8.6-1.3.9-.6.4-1.2.8-1.8 1-2.9.6-5.9 1.2-9.4 2zM159.2 60.7c3.6-.4 7.1-.7 10.5-1.1 2.4-.3 4.8-.7 7.2-.7.7 0 1.6 1.1 2.2 1.9.4.5.5 1.2.7 1.8.5 1.5-.2 2.9-1.8 3.2-.3.1-.8.2-1 .4-1.1 1.6-2.8 1.6-4.5 1.8-2.8.3-5.6.7-8.5 1-1.4.2-2.8.3-4.2.3-1.5 0-3-.1-4.6-.1-.8 0-1.6-.1-2.4-.2-1.9-.4-2.3-.9-2.4-2.8-.1-1.1-.7-2.2-.6-3.2.3-2.3.9-4.6 1.4-6.8 1.3-5.6 2.7-11.1 4.1-16.7.9-3.6 1.8-7.3 2.8-10.9.1-.3.1-.7.1-1.1-.4-2.3.1-3 2.1-4.2 2.6-1.5 5.7-1.5 8.4-2.5 2.6-.9 5.2-1.6 7.8-2.3 1.1-.3 2.2-.4 3.3-.3.6.1 1.3.7 1.6 1.3.5 1 1 2.2 1.2 3.3.2 1.4-.5 2-1.9 2.5-.6.2-1 .8-1.6 1.1-1.3.5-2.6 1-3.9 1.3-2.3.5-4.6.9-7 1.3-1 .2-2 .3-3.1.5-.5 3.5-1 7.1-1.5 10.7 3.2 0 6.2-.4 9.1-1 2-.4 4.1-.6 6.1-.9.7-.1 1.4.1 1.7.7.6 1.1 1.2 2.2 1.5 3.3.2.9-.5 1.6-1.4 2-.6.3-1.2.7-1.8 1-.9.4-1.8.8-2.8 1-2.1.4-4.2.7-6.3.8-2.4.1-4.8 0-7.5 0-.9 4.3-1.9 8.7-3 13.6zM498.2 20.6V33c2.1-.5 4.2-.9 6.1-1.5 1.3-.4 2.5-.9 3.8-1.4 2.6-1.1 4.3-.3 5.4 2.4.5 1.3 1 2.5-.1 3.6-.1.1-.3.4-.4.4-1.8 0-2.5 1.9-4.2 2.1-1.6.2-3.1.6-4.6.9-1.2.2-2.5.3-3.8.5-1.2.1-2.4.2-3.8.4-1.1 4-2.2 8.1-3.4 12.5 2.4-.2 4.8-.4 7.1-.7 2-.2 4-.6 6.1-.9.8-.1 2 1.2 2.4 2.3.2.6.3 1.2.6 1.7.7 1.2-.4 3.5-1.8 3.7-.5.1-.9.6-1.4.9-.9.4-1.7 1-2.7 1.2-3.7.7-7.4 1.5-11.2 1.1-2.4-.2-4.9 0-7.3-.1-.5 0-1.4-.4-1.4-.7-.2-1.9-1.4-3.6-.6-5.6.5-1.4 1-2.8 1.5-4.3 1.1-3.8 2.2-7.6 3.4-11.4.4-1.5.9-2.9 1.4-4.4.2-.8.5-1.5.5-2.3.4-4.6.8-9.1 1.2-13.7.1-1.6 1.2-2.6 1.9-3.8 1.4-2.4 3.8-2.8 6.2-3 3.1-.3 6.1-.7 9.2-1 1.2-.1 2.5-.4 3.6-.1.8.2 1.5 1.2 2.1 1.9.4.5.5 1.2.7 1.8.5 1.5-.1 2.6-1.7 3-.5.1-.8.6-1.3.9-.9.5-1.9 1.2-2.9 1.2-3.3.2-6.6.1-9.9.1-.3-.1-.6-.1-.7-.1zM758.2 118.9c.1 1.2.3 2.3.2 3.4-.3 3.1-.6 6.2-1 9.3-.3 2.8-.7 5.6-1.1 8.3-.5 3.4-1 6.7-1.6 10.1 0 .2-.1.5-.1.7-.1 2.9-.1 5.7-.3 8.6-.1 1.6-.3 3.2-1.4 4.6-.1.1-.1.4-.3.4-2.4.5-3.9 3-6.6 2.7-.9-.1-1.2-.4-1.3-1.2-.2-1-.5-2.1-.6-3.1-.1-.7.1-1.3.1-2 .2-2.3.7-4.6.7-6.9 0-2.9.6-5.7 1.2-8.6.6-2.7.8-5.5 1.3-8.2.5-2.9 1.2-5.7 1.7-8.6.5-2.7 1.1-5.3 1.6-7.8h-8.8c-1 0-2-.2-3-.3-.8-.1-1.2-.5-1.2-1.4 0-.8-.3-1.7-.5-2.5-.3-1-.2-1.7.5-2.5.8-.9 1.2-2.3 2.6-2.5 1.2-.2 2.5-.4 3.8-.5 4.9-.6 9.9-.8 14.8-1.9 3.3-.8 6.8-1 10.2-1.2.7 0 1.5 1.3 2.1 2.1.4.6.5 1.3.8 2 .7 1.8-.2 3.4-2.1 3.8-.5.1-.8.6-1.3.8-1.1.5-2.1 1.2-3.3 1.5-1.9.4-3.9.5-5.9.8-.2-.2-.7 0-1.2.1zM38.3 23.7c-1.7 4.8-3.3 9.4-5 14.2l2.1-.3c3.2-.4 6.4-.8 9.5-1.2 1.2-.1 1.6.9 2.1 1.6.2.2.2.5.3.8.9 2.3.7 2.7-1.7 3.6-.8.3-1.5 1.2-2.3 1.3-1.7.4-3.5.6-5.3.7-2.5.2-5 .2-7.5.3-.4 0-1 .2-1.1.5-2 4.3-4.2 8.6-5.9 13.1-1.5 3.9-2.4 7.9-3.6 11.9-.4 1.1-.8 2.4-2.4 2.4-.2 0-.6.1-.6.3-.9 1.5-2.4 1.4-3.8 1.6-1.3.2-1.6-.2-1.8-1.4-.1-.8-.4-1.6-.5-2.4-.1-1.1-.2-2.2.6-3.2.6-.8.9-1.7 1.2-2.7 1.1-3.4 2.1-6.8 3.3-10.1.6-1.8 1.7-3.5 2.2-5.4 1.5-5.8 4.7-10.7 7.1-16C27 29.6 29 26 30.3 22c.7-2.1 2.3-3.8 4.9-4.2 3.3-.5 6.5-1.4 9.7-1.9 2.4-.4 4.8-.3 7.2-.5 1 0 1.9.1 2.9 0 .9-.1 1.6.3 2 1 .9 1.9 1.5 2.7.5 3.8-.1.1-.1.3-.2.3-1.9.5-3.2 2.2-5.4 1.9-1-.2-2.1 0-3.1 0-2.7-.2-5.4.3-8 .9-1 .3-1.9.3-2.5.4zM243.6 165.7c-1.7-.1-3.4-.1-5.1-.3-2.3-.2-5.1-3.7-5.2-6.3 0-.3.1-.7 0-1-1.7-5.2-.6-10.2 1-15.2.9-2.8 1.9-5.4 3.5-7.9 2.1-3.2 4-6.6 6.2-9.7 2.4-3.5 5-7 8.7-9.4 1.4-.9 2.9-1.7 4.5-2.4 1.8-.7 3.7-1.1 5.4 0 .6.4 1.1 1 1.6 1.6.5.7.1 1.2-.5 1.6-6.7 3.9-11.4 9.5-14.8 16.4-.9 1.7-1.8 3.3-2.8 5-1.6 2.6-2.2 5.5-3 8.3-.6 2.2-.7 4.4-.7 6.6 0 1.2.4 1.5 1.7 1.8 4.1.9 7.4-.7 10.6-3.1.7-.5 1.4-1 2.1-1.6 1.6-1.3 3.5-1.3 5.3-1 .8.1 1.4 1.4 2 2.3.3.5.4 1.1.6 1.7.7 1.8.3 2.8-1.3 4-3.8 2.9-7.9 5.2-12.2 7.1-2.4 1.2-4.9 1.6-7.6 1.5zM869.7 116.6c-.2 2.4-.4 4.7-.5 6.9-.1 1.5-.1 2.9-.1 4.4v4.8c0 1.3-.1 2.5-.2 3.8l-.9 7.5c-.1.8-.3 1.6-.3 2.3-.1 3.1-.2 6.2-.2 9.3 0 1.2-.9 2.3-2.1 2.6-.5.1-1 .5-1.3.8-.8.8-3.9 1.8-4.8 1.2-.3-.2-.5-.8-.6-1.3-.3-1-.6-2-.7-3-.1-.7.1-1.5.1-2.3.2-2.9.4-5.9.7-8.8.3-2.2.8-4.4 1.2-6.6.3-2.1.4-4.2.7-6.3.7-4.5.8-9.1 2.6-13.4.2-.5.2-1.1.4-1.7-1.3.1-2.4.1-3.5.2-2.8.2-5.5.5-8.3.7-1.1.1-1.4-.4-1.5-1.4-.1-1-.6-2-.4-2.9.3-2 1.4-3.6 3.5-4.1 2.1-.5 4.3-.9 6.5-1.2 2.2-.4 4.5-.6 6.7-.9 2.2-.2 4.4-.4 6.5-.5 3-.1 6-.1 9-.3 1.9-.1 3.8-.3 5.7-.5 1.7-.2 2.8.6 3.4 2.2.2.5.3 1 .5 1.5.7 1.4-.3 3.2-1.8 3.6-.4.1-.8.5-1.2.7-1.1.5-2.2 1.1-3.4 1.4-3.4.9-6.9.8-10.4.8-2.1.3-3.9.5-5.3.5zM727.9 110.7c1.2-.2 2.2 0 2.8 1.2.4 1 .3 1.6-.6 2.2-2.4 1.5-4.3 3.6-6.1 5.7-.3.4-.6.8-.9 1.3-1 1.9-.9 2.4.8 3.7 5 3.7 7.7 8.8 8.8 14.7 1.2 6.3-.2 12-4.2 17.1-1.6 2-3.7 3.3-5.9 4.6-3.2 1.9-6.4 3.8-10.2 4.2-3.2.3-6.4.7-9.5 1.1-1.1.1-1.4-.5-1.6-1.4-.2-1.1-.5-2.2-.7-3.3-.1-.5-.2-1 0-1.4.5-1.1.9-2.3 1.7-3 .8-.7 2-1.2 3-1.4 3.3-.6 6.7-.6 9.9-1.5 3.1-.9 5.7-2.8 7-6.2 1-2.5 1.1-5 .7-7.4-.3-2.4-1.8-4.4-3.5-6.1-1.2-1.1-2.5-2.1-3.7-3.2-.4-.3-.8-.7-.9-1.1-.4-1.8-.9-3.6-.9-5.4-.1-6.7 4.1-10.6 9.4-13.6 1.3-.7 2.9-.8 4.4-1.2.1.2.1.3.2.4zM647.8 156.5c3.5-.4 6.9-.9 10.2-1.3 1.5-.2 3-.4 4.5-.4 1.4 0 1.8 1.3 2.4 2.4.3.6.4 1.2.7 1.8.8 2 0 3.5-2.1 4-.3.1-.8.2-.9.4-.8 1.5-2.4 1.7-3.8 1.9-2.4.3-4.8.4-7.2.5-3.9.1-7.8.2-11.7.2-1.5 0-1.7-.2-1.7-1.8 0-.4 0-.9-.2-1.3-1-2.2-.4-4.3 0-6.4.8-3.7 1.5-7.3 2.3-11 .4-1.9.8-3.9 1.3-5.8 1.4-5.7 1.4-11.6 1.6-17.4.1-3.3.4-6.7 2-9.7 1.1-2.1 1.9-3.2 4.4-3 1.5.1 2.8 1.9 2.3 3.4-.2.6-.3 1.3-.3 2-.1 1.5-.3 2.9-.2 4.4.1 4.2.4 8.4.4 12.6 0 2.5-.4 5-.7 7.5-.5 3.6-1.2 7.1-1.9 10.7-.3 1.6-.7 3.2-1 4.7-.2.6-.3.9-.4 1.6zM615.8 155.3h13.3c2.8 0 3.3.3 4.2 3 .2.5.4 1 .6 1.6.5 1.6-.4 3-2.1 3.4-.5.1-.9.6-1.4.9-.7.4-1.4.9-2.1 1.2-2.5.8-5.1.2-7.7.2-1.9 0-3.7-.3-5.6-.4-2.2-.1-4.5-.2-6.7-.3-1.3-.1-1.7-.6-1.8-1.9-.1-.9-.4-1.7-.5-2.5-.1-1-.1-2 .1-2.9.9-5.3 2-10.5 3.9-15.6 1.6-4.3 2.2-8.9 3.3-13.4.8-3.5 1.7-7 2.5-10.6.3-1.6.3-3.3.4-5 .1-1.7.4-3.4 1.9-4.1 2.9-1.5 4.6-.7 5.3 2.7.7 3.7.3 7.5-.6 11.2-.8 3.1-1.1 6.3-1.8 9.4-1 5.1-1.6 10.2-3.7 15-.8 2-.9 4.4-1.4 6.6 0 .4 0 .9-.1 1.5zM524.9 55.5c4-.2 7.8-.4 11.6-.5 1.6-.1 3.2-.3 4.7 0 .8.2 1.5 1.2 2 1.9.4.5.5 1.2.7 1.9.6 1.6-.2 2.9-1.8 3.3-.5.1-.9.6-1.3.9-.6.4-1.1.9-1.7 1-1.4.2-2.9.2-4.4.3-2.7.1-5.3.2-8 .2h-8c-.7 0-1.5 0-2.2-.3-.4-.2-.8-.7-1-1.2-.3-1-.6-2.1-.7-3.1-.1-.8.1-1.8.4-2.6 2.5-6.4 5-12.7 7.5-19.1 1.2-3.1 1.7-6.4 2.1-9.7.5-4.1 1-8.3 1.7-12.4.3-1.7 1.5-3.2 3.2-3.1 1 0 1.6.5 1.9 1.3.6 1.9 1.5 3.9 1.5 5.9.1 4 0 8.1-.5 12-.6 5.4-2.4 10.5-4.6 15.4-1 2.5-1.9 5.1-3.1 7.9zM376.8 169.6c-.7.1-.9-.5-1-1.2-.2-1-.4-1.9-.6-2.9-.1-.4-.1-.8.1-1.1.6-1 1.1-2.4 2-3 2.5-1.6 4.5-3.8 6.8-5.6 1.9-1.4 2.8-3.2 2.7-5.6 0-2.3-.4-4.3-1.8-6.1-1.4-1.9-2.7-3.8-4.3-5.6-2-2.3-2.6-5.2-3-8-.8-5.9 1.4-10.6 5.9-14.4 1.9-1.6 3.9-2.7 6.4-2.5 1.1.1 2.3 1.2 2.7 2.8.3 1.1-.4 1.6-1.3 2.3-3 2.3-5.3 4.9-5.5 9-.1 2.1.7 3.4 2 4.8 1.7 1.8 3.5 3.6 4.7 5.7 1.8 3.2 3.3 6.6 3.3 10.5 0 2.8.1 5.5-1.4 8-.8 1.3-1.8 2.5-2.9 3.6-1.9 1.9-3.8 3.8-5.9 5.4-2.5 1.9-5.2 3.7-8.9 3.9zM604.9 111.5c-.4 2.8-.7 5.6-1.1 8.3 0 .2 0 .5-.1.7-.3 2.3-.5 4.6-.8 6.8-.1.7-.1 1.3-.2 2-.3 2.2-.5 4.4-.8 6.6-.4 3.4-.9 6.7-1.4 10.1-.4 2.6-.8 5.2-1.3 7.8-.4 2.4-1 4.9-1.3 7.3-.3 1.6-.9 2.3-2.4 2.8-.4.1-.7.5-1.1.8-.5.4-1.1.8-1.7 1.1-.5.2-1.2.2-1.8.3-2 .3-2.1.1-2.2-1.9 0-.2.1-.4 0-.6-1.4-2.9.2-5.6.6-8.4.5-3.2 1.2-6.3 1.8-9.4.4-2.3.7-4.7 1-7.1.5-3.7 1.1-7.4 1.7-11.2.1-.9.3-1.9.5-2.8 1.1-5.1 2.2-10.2 3.4-15.2.5-2.2 2.6-3.6 4.9-3.2.9.1 2 1.9 2.1 3.2v1.9c.1.1.1.1.2.1zM902.4 107.1c1.1-.3 1.8.3 2.1 1.1.5 1.2.8 2.5 1 3.7.3 2.4.6 4.7.7 7.1 0 1.2-.2 2.4-.5 3.6-.4 2.6-1.1 5.2-1.3 7.8-.5 5.2-1.8 10.1-3.5 14.9-1.1 3.1-1.8 6.3-2.8 9.5-.3.9-.7 1.7-1.9 1.8-.5 0-.9.5-1.4.8-.5.3-1 .7-1.6 1-.4.2-.8.2-1.3.3-2.5.4-2.6.4-2.7-2.2v-.5c-1.3-2.8-.1-5.4.8-8 1.7-5.2 4-10.3 5-15.8.7-3.9 1.7-7.8 2.4-11.7.4-2.5.6-5.1.7-7.7.1-1.8.2-3.6 1.5-4.8.7-.6 1.7-.9 2.6-1.3.1.2.1.3.2.4zM231.7 118.2c-.6 2.1-1.1 4.3-1.9 6.3-1.1 2.7-1.4 5.4-1.8 8.2-.3 2.6-.7 5.2-1 7.8-.1 1-.4 2-.4 2.9.1 3.6-.9 7-1.9 10.5-.9 3.4-2 6.8-3 10.2-.1.5-.2 1-.4 1.5-.4.7-.8 1.5-1.9 1.5-.4 0-.7.5-1.1.7-.9.5-1.9.9-2.9 1.3h-.4c-2.1.2-2.1.2-2.3-2-.1-.6-.4-1.1-.5-1.7-.1-.6-.2-1.3 0-1.8 1.7-5.3 3.7-10.6 5.3-15.9.7-2.4.8-5.1 1.3-7.6.8-4.7 1.7-9.5 2.7-14.2.4-1.8 1.3-3.4 2-5.1.3-.9.5-1.9.9-2.8.4-1 .7-2.1 1.3-3.1.8-1.4 4.1-1.3 4.8.2.5.8.8 1.8 1.2 3.1zM414.1 121.3c.1 1.9.3 3.9.3 5.8 0 4.8-.3 9.6-1.5 14.3-.8 3.4-1.4 6.8-1.8 10.2-.4 3.4-.4 6.7-.5 10.1-.1 1.3-.6 1.9-1.8 2.2-.4.1-.9.4-1.2.8-.7.8-3.5 1.6-4.5 1.2-.3-.1-.5-.7-.6-1-.6-2.6-.8-5.2-.5-7.8.5-4.4 1.1-8.7 2-13 1.3-6.4 2.5-12.9 2.6-19.5 0-2.2.4-4.4 1-6.4.4-1.3 1.3-2.6 2.4-3.5.6-.6 2.1-.8 2.8-.4.7.4 1.2 1.6 1.3 2.6.2 1.4.1 3 .1 4.4h-.1zM145.4 45.9c-.2 1.4-.6 3.6-.9 5.8-.2 1.4-.4 2.8-.4 4.2 0 3.6-1.4 6.9-2.3 10.4-.2.7-.7 1.6-1.8 1.6-.4 0-.8.6-1.3.8-.8.4-1.7.8-2.5 1.2-.2.1-.4.1-.6.1-2.2.2-2.2.2-2.3-2v-.6c-1.1-2-.4-3.9.3-5.7 1.2-3.1 1.3-6.4 1.7-9.6.3-2.2.8-4.3 1-6.4.3-3.4.2-6.9.4-10.3.1-2.5.3-5 .8-7.5.3-1.4 1.1-2.8 1.8-4.1.6-1.1 1.8-1.1 2.8-.8.6.2 1.1 1.1 1.3 1.8 1 3.3 1.4 6.7 1.5 10.2.1 3.4.3 6.8.5 10.9z"/><path class="st0" d="M439.7 159.4c-.5 4.2-1.4 8.2-3.7 11.7-1.9 3-3.9 6.1-6.1 8.9-1.6 2.1-2.9 2.2-5.2 1.1-1-.5-2-1.2-3-1.6-1.9-.8-2.2-2.4-2.3-4.1-.1-1.3-.1-2.6 0-3.8.1-.7.4-1.5.8-2 2.5-3 5.9-4.7 9.5-6.1 3.1-1.2 6.2-2.6 9.2-3.9.3-.2.5-.2.8-.2zM443.8 119.7c-.1.9-.2 1.8-.4 2.6-.5 2.2-1 4.4-1.6 6.6-.2.6-.5 1.2-1 1.7-1.9 2.2-3.6 4.6-6.3 5.8-2.4 1.1-4.6.9-6.8-.4-.4-.3-.7-.9-.7-1.4-.1-1.9-.2-3.8 1.1-5.5 2-2.5 4.4-4.6 7.3-6.1 2.6-1.4 5.4-2.5 8.1-3.7.1.2.2.3.3.4zM34.1 119.9c-1.2 5.1-2.5 10-3.6 15-.9 4.1-3.4 7-6.5 9.5-.8.7-1.7 1.3-2.5 2s-1.5.7-2.4.3c-1.4-.7-2.8-1.5-4.1-2.3-.7-.4-1-1.1-1-2-.2-3.5.9-6.6 2.4-9.7 1.5-3.3 3.4-6.4 6.2-8.7 1.7-1.4 3.7-2.5 5.7-3.4 1-.5 2.3-.4 3.5-.5.6-.1 1.3-.1 2.3-.2zM67.4 129.7c.4-2.7.8-5.3 1.3-7.9.4-2.2.5-2.3 2.9-2.2 2.4.1 4.9 0 7 1.5 1 .7 1.4 2 .7 3-.9 1.3-1.8 2.6-2.9 3.8-1 1.2-2.6 1.6-4 1.7-1.6.2-3.2.1-5 .1zM26.1 167.8c-.9 2.7-1.6 5.1-2.7 7.4-.8 1.7-2.4 1.7-3.7.3-1-1-1.5-2.1-1.5-3.6 0-1.2.3-1.8 1.8-2.4 2-.6 3.8-1 6.1-1.7zM780.5 124.1c.9-2.2 1.7-4.1 2.5-6 .4-1 1.1-1.4 2.1-1.2 1.6.4 3.2.7 4.7 1.3 1.7.6 1.7 1.6.5 2.9-1.4 1.5-3.2 1.7-5 2.1-1.5.2-3 .5-4.8.9zM377 30.2c.8-3.7 2.3-7.1 4-10.5.1-.2.3-.3.4-.4 3.6-1.4 7.1-1.7 10.4 1 .3.2.6.6.6.8-.1 1.5-.1 3.1-.4 4.6-.2.7-.9 1.5-1.6 1.9-4.2 2.3-8.6 3.4-13.4 2.6zM315.2 158c2.7-12.4 3.8-25 2.7-37.8 2.4-.3 4.5-.1 6.5 1 2.5 1.3 4.7 3 6.4 5.3.4.5.8 1.1.8 1.7.1 2.9.5 5.7-1.3 8.4-4.4 6.5-8.7 13-13.1 19.5-.6.7-1.4 1.4-2 1.9zM923.7 116.7c2.7 1.4 3.3 4 4.6 6 1.2 1.9 2.3 3.8 3.3 5.8.2.4.4.9.5 1.3.4 6.3-.4 12.3-3.8 17.7-1.1 1.7-2.6 2.9-4.4 3.6-1.3.5-2.6-.2-3.7-1-1-.7-1.9-1.6-2.9-2.3-1-.8-1.2-1.7-1.3-3-.3-3.7.7-7.2 1.6-10.7.7-2.8 1.2-5.7 2.2-8.5 1.1-3 2.6-5.9 3.9-8.9zM107.7 46c3.1 1.7 6.2 3.3 9.1 5.1 2.5 1.6 2.3 5.1-.2 6.6-1.7 1.1-3.5 2.3-5.4 3-1.8.7-3.9.9-6 1.4.3-2.8.8-5.4.8-8 .2-2.7.5-5.3 1.7-8.1zM111.4 29.4h10.3c-2.9 4.1-7.1 4.7-11.3 5.5.4-1.9.7-3.7 1-5.5zM822.8 135.3c.4-1.1.7-1.8.9-2.5 1-2.8 1.9-5.7 3-8.5.6-1.5 1.4-3 2.3-4.4.5-.8 1.2-1.4 2.1-2 1.9 5.1 2.7 10.2 2.5 15.7-3.5.6-7 1.2-10.8 1.7zM117.5 140.5c-2.7.2-5.5.4-8.3.6 1.1-6 3.9-11.1 6.6-16 .5 4.9 1.1 10 1.7 15.4zM78.8 40.5c-3.1.5-6.1 1-9.3 1.6.6-1.3 1.3-2.4 1.8-3.5.6-1.4 1-3 1.8-4.4.9-1.6 2.1-3.1 3.2-4.6 1 .7 1.6 1.3 1.7 2.4.2 2.6.6 5.1.9 7.7 0 .1-.1.4-.1.8zM452.7 52c.5-1.4.9-2.4 1.3-3.5 1.5-5.4 3.2-10.7 4.4-16.2.5-2.3.1-4.9 0-7.3 0-1.2-.2-2.4-.4-3.7 1.3.1 2.6.1 3.8.2 2.5.2 4.8 1.2 6.9 2.6 1 .7 1.6 1.5 1.5 2.9-.1 2.2-.2 4.3-.1 6.5.1 2.3-.8 4.1-2 5.9-2.6 4-6.2 7-10.1 9.7-1.4 1.1-3.3 1.8-5.3 2.9zM416.1 50.8c-.1-5.6 1.3-10.8 3.4-15.9 1.4-3.2 2.3-6.7 4.5-9.5 1.2-1.5 1.7-1.7 3.6-1.2 2.8.8 4.8 3.9 4.6 6.5-.2 3.4.2 6.8-.4 10.2-.8 5.1-2.7 9.9-7.4 12.9-.6.4-1.3.8-1.8 1.3-1.8 1.7-3.7 1.3-5.6.5-.9-.3-.7-1.2-.8-1.9-.2-1-.1-2-.1-2.9zM149.8 125.9c.3-1.7.7-3.4 1-5.1.1-.4.2-.8.2-1.2.2-1.4.5-1.6 1.8-1.7 1.5 0 3-.1 4.5-.3 2.4-.3 4.3.6 5.9 2.3.6.6 1.7 1.7 1.5 2-.4.9-1.4 1.7-2.3 2.3-.7.4-1.6.5-2.5.6-3.2.4-6.6.8-10.1 1.1z"/></svg>