<svg version="1.1" id="FREI_xA0_Bild_1_" xmlns="http://www.w3.org/2000/svg" x="0" y="0" viewBox="0 0 350.16 384.24" xml:space="preserve"><style>.st0{fill:none}.st1{fill:#fff}</style><path class="st0" d="M278.04 51.6h54.72v303.36H51.96V70.55c.31.5.53 1.12.96 1.48 1.82 1.54 3.68 3.03 5.57 4.5 2.24 1.74 5.03 2.83 6.5 5.5.11.2.35.32.54.47 1.83 1.53 3.71 3.02 5.48 4.62 2.07 1.87 4.04 3.84 6.07 5.76.55.52 1.23.91 1.71 1.47 2.24 2.65 4.48 5.3 6.63 8.02 1.79 2.28 3.46 4.65 5.15 7 1.11 1.55 2.42 3.02 3.2 4.73 2.03 4.4 4.85 8.27 7.77 12.05 2.43 3.15 5.32 5.94 7.82 9.04 1.67 2.07 3.02 4.39 4.48 6.62 2.13 3.27 3.27 6.9 3.37 10.76.11 4.46-.34 8.89-1.59 13.21-.26.91-.49 1.84-.75 2.76-.85 2.94-1.72 5.87-2.56 8.8-.75 2.63-1.85 5.23-2.13 7.91-.36 3.31-1.84 6.06-3.39 8.81-2.03 3.6-4.23 7.1-6.39 10.62-1.7 2.77-3.42 5.54-5.19 8.27-1.42 2.2-2.96 4.33-4.36 6.54-.92 1.44-1.66 2.99-2.53 4.46-2.17 3.7-4.39 7.37-6.56 11.07-2.27 3.87-4.51 7.75-6.75 11.64-.95 1.65-1.93 3.29-2.73 5.01-.46.99-.51 2.17-.92 3.2-1.64 4.07-1.57 8.31-.92 12.48.61 3.94 1.8 7.8 2.67 11.7 1 4.49 1.84 9.03 2.92 13.5 1.48 6.14 3.16 12.23 4.7 18.36 1.66 6.64 2.74 13.37 3 20.21.05 1.34-.1 2.89-.74 4-1.45 2.49-3.24 4.78-4.95 7.11-1.97 2.7-3.5 5.57-3.79 8.98-.19 2.2.93 3.46 3.15 3.29 5.14-.4 9.93-1.88 14.24-4.78 1.19-.8 2.44-1.51 3.64-2.31 1.59-1.06 3.26-2.04 4.68-3.31.8-.71 1.45-1.87 1.64-2.93.66-3.66 1.05-7.37 1.63-11.05.46-2.94 1.26-5.83 1.51-8.78.42-4.96.53-9.94.76-14.92.16-3.42.28-6.85.44-10.27.16-3.34.47-6.67.48-10.01.02-5.23-.1-10.46-.25-15.69-.09-3.03.74-5.49 3.31-7.35 1.8-1.3 3.38-2.92 5.08-4.37 3.11-2.68 6.2-5.37 9.35-8 2.63-2.2 5.33-4.32 7.99-6.5.89-.73 1.71-1.56 2.63-2.25 2.2-1.65 4.46-3.23 6.67-4.87 2.43-1.8 4.8-3.7 7.27-5.44 1.7-1.2 3.15-.95 4.69.47 3.19 2.95 6.35 5.93 10.17 8.09.79.45 1.55 1 2.21 1.63 3.03 2.89 5.93 5.92 9.04 8.71 4.6 4.13 9.27 8.16 15.68 9.38 3.8.72 7.35.36 10.82-1.36 7.34-3.64 14.72-7.22 22.07-10.85 3.41-1.69 7.08-2.71 10.41-4.66 4.4-2.57 9.02-4.74 13.51-7.14 3.01-1.61 5.92-3.4 8.96-4.96 1.46-.75 3.06-1.53 4.8-.93 2.7.94 5.35 2.01 8.06 2.94 1.14.39 2.35.77 3.53.78 1.62.01 3.34-1.45 3.46-2.64.16-1.52.15-3.13-.76-4.37-1.58-2.18-3.17-4.42-5.13-6.23-2.48-2.28-4.78-4.65-6.71-7.39-2.41-3.44-5.83-4.68-9.88-4.2-2.64.31-5.26.87-7.89 1.29-3.37.55-6.74 1.07-10.1 1.62-1.05.17-2.12.34-3.14.66-2.42.77-4.81 1.61-7.2 2.45-4.23 1.49-8.45 3.01-12.68 4.51-2.32.82-4.59 1.8-7.17 1.21-1.66-.38-3.31-.7-3.92-2.59-1.03-3.21-1.05-6.52-.73-9.81.21-2.12.64-4.29 1.39-6.27 1.66-4.38 3.56-8.67 5.4-12.99 1.23-2.88 2.5-5.74 3.78-8.59 1.83-4.09 3.63-8.19 5.52-12.24 2.09-4.5 4.21-8.99 6.44-13.42 1.39-2.76 3.3-5.3 4.43-8.15 2.07-5.23 4.4-10.21 8.26-14.42 1.43-1.55 2.26-3.64 3.46-5.41 1.58-2.34 3.29-4.6 4.9-6.93.68-.98 1.21-2.05 1.88-3.03 1.09-1.61 2.22-3.19 3.35-4.77 3.17-4.46 6.21-9.01 9.99-13.01 1.44-1.52 2.57-3.32 3.88-4.96.67-.84 1.53-1.53 2.11-2.41 1.9-2.89 4.51-5.11 6.99-7.43 1.38-1.29 3.06-2.26 4.59-3.4 2.89-2.16 5.75-4.35 8.66-6.48 1.41-1.03 2.91-1.94 4.34-2.93.62-.43.68-1.09.05-1.47-.89-.55-1.87-1.05-2.87-1.3-.92-.23-1.69-.47-1.94-1.46-.27-1.09.33-1.76 1.24-2.18.9-.41 1.95-.59 2.71-1.17.76-.57 1.61-1.44 1.75-2.29.17-.99-.65-1.83-1.87-1.85-.98-.01-1.96-.03-2.94.02-.91.05-1.81.25-2.72.26-1.2.01-1.96-1.27-1.48-2.38.13-.29.4-.53.47-.82.11-.48.32-1.15.1-1.43-.27-.34-.94-.46-1.45-.51-.53-.06-1.08.08-1.37.11-.6-1.25-1.09-2.31-1.58-3.37z"/><path d="M278.04 51.6c.49 1.06.98 2.12 1.55 3.36.29-.03.84-.16 1.37-.11.51.05 1.18.17 1.45.51.22.28.01.96-.1 1.43-.07.29-.34.54-.47.82-.48 1.11.28 2.39 1.48 2.38.91-.01 1.81-.21 2.72-.26.98-.05 1.96-.03 2.94-.02 1.22.01 2.04.85 1.87 1.85-.15.85-.99 1.72-1.75 2.29-.76.57-1.81.75-2.71 1.17-.91.42-1.51 1.09-1.24 2.18.25 1 1.02 1.23 1.94 1.46 1.01.25 1.98.76 2.87 1.3.63.38.57 1.04-.05 1.47-1.43 1-2.93 1.9-4.34 2.93-2.91 2.13-5.77 4.33-8.66 6.48-1.53 1.14-3.2 2.11-4.59 3.4-2.48 2.32-5.09 4.54-6.99 7.43-.58.89-1.45 1.58-2.11 2.41-1.31 1.64-2.45 3.44-3.88 4.96-3.78 4-6.83 8.55-9.99 13.01-1.12 1.58-2.26 3.16-3.35 4.77-.67.98-1.2 2.06-1.88 3.03-1.61 2.32-3.31 4.59-4.9 6.93-1.2 1.78-2.03 3.86-3.46 5.41-3.86 4.21-6.19 9.19-8.26 14.42-1.13 2.85-3.04 5.39-4.43 8.15-2.23 4.43-4.34 8.92-6.44 13.42-1.89 4.06-3.7 8.16-5.52 12.24-1.28 2.86-2.55 5.71-3.78 8.59-1.84 4.31-3.74 8.6-5.4 12.99-.75 1.99-1.18 4.15-1.39 6.27-.32 3.29-.3 6.61.73 9.81.6 1.88 2.26 2.21 3.92 2.59 2.58.59 4.85-.39 7.17-1.21 4.23-1.5 8.45-3.02 12.68-4.51 2.39-.84 4.79-1.68 7.2-2.45 1.01-.32 2.08-.49 3.14-.66 3.36-.56 6.73-1.08 10.1-1.62 2.63-.43 5.24-.98 7.89-1.29 4.05-.48 7.47.77 9.88 4.2 1.93 2.75 4.23 5.12 6.71 7.39 1.96 1.81 3.56 4.05 5.13 6.23.9 1.25.91 2.85.76 4.37-.12 1.19-1.85 2.65-3.46 2.64-1.18-.01-2.39-.39-3.53-.78-2.7-.93-5.36-2.01-8.06-2.94-1.73-.6-3.34.18-4.8.93-3.04 1.55-5.95 3.35-8.96 4.96-4.49 2.4-9.12 4.57-13.51 7.14-3.32 1.94-7 2.97-10.41 4.66-7.35 3.64-14.72 7.21-22.07 10.85-3.46 1.72-7.01 2.08-10.82 1.36-6.41-1.21-11.08-5.25-15.68-9.38-3.11-2.79-6.01-5.82-9.04-8.71-.66-.63-1.42-1.18-2.21-1.63-3.82-2.16-6.98-5.14-10.17-8.09-1.54-1.42-2.98-1.67-4.69-.47-2.47 1.74-4.84 3.63-7.27 5.44-2.21 1.64-4.46 3.22-6.67 4.87-.92.69-1.74 1.52-2.63 2.25-2.66 2.17-5.36 4.29-7.99 6.5-3.14 2.63-6.24 5.32-9.35 8-1.69 1.46-3.27 3.07-5.08 4.37-2.57 1.86-3.4 4.32-3.31 7.35.15 5.23.27 10.46.25 15.69-.02 3.34-.33 6.67-.48 10.01-.16 3.42-.28 6.85-.44 10.27-.23 4.97-.34 9.96-.76 14.92-.25 2.95-1.05 5.85-1.51 8.78-.57 3.68-.96 7.39-1.63 11.05-.19 1.05-.84 2.21-1.64 2.93-1.41 1.27-3.09 2.25-4.68 3.31-1.19.8-2.45 1.51-3.64 2.31-4.31 2.89-9.1 4.38-14.24 4.78-2.22.17-3.34-1.09-3.15-3.29.29-3.41 1.81-6.28 3.79-8.98 1.7-2.33 3.5-4.62 4.95-7.11.65-1.11.8-2.67.74-4-.27-6.84-1.34-13.58-3-20.21-1.53-6.13-3.21-12.22-4.7-18.36-1.08-4.47-1.92-9.01-2.92-13.5-.87-3.91-2.06-7.76-2.67-11.7-.65-4.17-.72-8.41.92-12.48.41-1.02.46-2.2.92-3.2.81-1.72 1.78-3.36 2.73-5.01 2.23-3.89 4.48-7.77 6.75-11.64 2.17-3.7 4.39-7.37 6.56-11.07.87-1.47 1.61-3.02 2.53-4.46 1.4-2.21 2.94-4.34 4.36-6.54 1.76-2.74 3.49-5.5 5.19-8.27 2.16-3.52 4.36-7.02 6.39-10.62 1.55-2.75 3.03-5.49 3.39-8.81.29-2.68 1.38-5.28 2.13-7.91.84-2.94 1.71-5.87 2.56-8.8.26-.91.49-1.84.75-2.76 1.25-4.32 1.71-8.75 1.59-13.21-.1-3.86-1.24-7.49-3.37-10.76-1.46-2.23-2.81-4.55-4.48-6.62-2.5-3.1-5.39-5.89-7.82-9.04-2.92-3.78-5.74-7.65-7.77-12.05-.79-1.71-2.09-3.18-3.2-4.73-1.69-2.35-3.36-4.72-5.15-7-2.14-2.73-4.38-5.37-6.63-8.02-.48-.57-1.17-.96-1.71-1.47-2.03-1.91-4-3.89-6.07-5.76-1.77-1.6-3.65-3.08-5.48-4.62-.18-.15-.43-.28-.54-.47-1.47-2.66-4.26-3.76-6.5-5.5-1.88-1.46-3.75-2.95-5.57-4.5-.43-.36-.64-.98-.96-1.48v-.24c.45-.39.86-1.03 1.37-1.12 2.22-.37 4.46-.59 6.8-.87-.06-.21-.18-.57-.25-.95-.17-.89-.42-1.79-.44-2.69-.04-1.58.02-1.53 1.57-1.6.87-.04 1.74-.28 2.61-.43l.12-.41c-.47-.56-1.06-1.07-1.37-1.71-.31-.63-.58-1.47-.39-2.07.12-.4 1.08-.78 1.65-.77 1.02.02 2.07.23 3.02.59.72.27.95.1 1.44-.43 1.21-1.29 2.58-1.77 3.32.1 1.57 3.94 4.83 6.63 7.35 9.87.89 1.15 1.67 2.39 2.51 3.58 1.54 2.19 2.99 4.46 4.68 6.53.99 1.21 2.36 2.1 3.57 3.14 2.32 1.99 4.55 4.1 6.98 5.95 3.1 2.36 6.38 4.48 9.55 6.76 2.17 1.55 4.24 3.24 6.43 4.76 2.55 1.78 5.2 3.41 7.76 5.17 2.43 1.67 4.79 3.41 7.6 4.45 6.75 2.49 13.66 4.03 20.91 3.69 2.06-.1 3.62-1.05 4.82-2.64.57-.75.96-1.64 1.5-2.42 2.44-3.54 4.75-7.05 4.77-11.69.01-1.94.84-4.08 2.68-5.4 2.48-1.76 4.95-3.25 8.28-3.16 3.09.09 6.11-.04 8.92 1.47.72.39 1.36 1.01 2.12 1.25 3.43 1.07 6.39.14 9.03-2.21 1.78-1.58 3.58-3.14 6.06-3.62 2.76-.53 5.52-1.11 8.23-1.84 2.42-.65 4.84-1.36 6.6-3.37.43-.49 1.09-.87 1.72-1.06 2.74-.81 5.47-1.65 8.27-2.21 1.31-.26 2.75.02 4.11.23.47.07.87.65 1.3 1-.37.41-.66 1.02-1.12 1.2-1.66.65-2.9 1.7-3.5 3.37-.59 1.62-1.92 2.43-3.29 3.14-2.9 1.5-5.93 2.77-8.76 4.39-1.76 1.01-3.66 2.21-4.74 3.83-.97 1.44-2.08 2.76-3.06 4.19-1.9 2.77-3.81 5.49-6.66 7.42-2.4 1.63-4.61 3.53-7.41 4.51-1.27.45-2.53.95-3.7 1.6-.51.28-1.2 1.1-1.1 1.48.36 1.31 1.04 2.54 1.64 3.89 2.25-.78 4.39-1.49 6.51-2.26 1.9-.69 3.81-1.38 5.66-2.2 4.26-1.87 8.47-3.85 12.3-6.52 2.94-2.05 5.9-4.07 8.81-6.17 1.29-.93 2.4-2.1 3.71-2.99 3.36-2.28 6.8-4.42 10.17-6.69 2.12-1.42 4.28-2.82 6.19-4.49 4.36-3.8 9.58-6.42 13.75-10.55 3.53-3.51 7.66-6.43 11.66-9.43 2.45-1.83 4.8-3.76 7-5.87.92-.88 1.71-1.89 2.61-2.8 1.22-1.23 2.49-2.42 3.74-3.63.18.01.34.01.5.01zm-134.41 65.05c-.05-.1-.11-.19-.16-.29-.51.36-1.12.64-1.51 1.11-.88 1.07-1.63 2.26-2.48 3.36-1.64 2.15-3.38 4.22-4.95 6.42-1.59 2.23-2.82 4.76-4.59 6.82-2.57 2.99-4.82 6.13-6.49 9.7-.18.38-.27.96-.11 1.32 1.08 2.52 1.37 5.22 1.06 7.84-.37 3.09-1.28 6.11-2.05 9.14-.35 1.39-.33 1.73 1.01 2.29 1.25.52 2.56.87 3.8 1.42 5.2 2.32 10.82 3.22 16.25 4.75 2.2.62 4.57.64 6.8 1.19 3.74.93 7.4 2.17 11.14 3.11 4.41 1.12 8.7 2.76 13.41 2.58 3.61-.14 7.25.32 10.87.31 5.87-.01 11.73-.09 17.5 1.22.72.17 1.22-.05 1.5-.76 1.03-2.54 2.06-5.08 3.12-7.61 1.2-2.85 2.46-5.68 3.62-8.55.26-.63.53-1.47.32-2.03-1.54-4.12-3.9-7.81-6.21-11.52a91.035 91.035 0 01-3.79-6.75c-.88-1.72-1.58-3.54-2.3-5.33-1.26-3.12-2.6-6.21-3.68-9.38-.86-2.51-1.41-5.12-2.07-7.7-.21-.83-.69-.99-1.42-.72-1.01.37-1.99.85-3.03 1.08-3.15.7-6.29 1.46-9.48 1.89-2.44.33-5 .6-7.39.19-4.71-.8-9.23-2.44-13.52-4.58-1.09-.54-2.05-.61-3.19-.41-1.63.29-3.29.58-4.93.54-2.37-.06-4.71-.42-7.05-.65zm72.13 34.22c1.22-1.9 2.29-3.43 3.21-5.04 2.71-4.75 5.59-9.37 9.24-13.49 1.92-2.18 3.69-4.51 5.42-6.85 3.29-4.45 6.4-9.04 9.78-13.43 3.54-4.61 7.33-9.04 10.95-13.59 1.95-2.46 3.73-5.06 5.68-7.52 3.22-4.06 7.18-7.35 11.38-10.35 2.2-1.57 4.38-3.18 6.58-4.76 2.02-1.45 3.7-3.4 6.19-4.17.25-.08.38-.52.56-.8-.29-.18-.56-.49-.86-.52-.83-.09-1.69.02-2.51-.1-.62-.09-1.65-.32-1.71-.63-.11-.58.24-1.35.61-1.91.6-.92 1.41-1.71 2.04-2.62.23-.33.39-.94.23-1.25-.16-.32-.73-.58-1.14-.61-.83-.06-1.67.05-2.51.1-.68.04-1.14-.09-1.14-.96 0-.62-.24-1.24-.42-1.85-.22-.72-.72-.71-1.19-.29-1.09.97-2.13 2.01-3.21 2.99-2.65 2.4-5.24 4.88-8 7.15-1.68 1.39-3.67 2.38-5.42 3.7-3.34 2.51-6.62 5.11-9.89 7.71-3.8 3.03-7.55 6.12-11.36 9.15-3.28 2.6-6.7 5.03-9.87 7.76-3.06 2.63-6.13 5.2-9.64 7.23-6.27 3.64-12.44 7.44-19.21 10.31.05.29.08.6.16.89.79 2.86 1.54 5.74 2.4 8.58 1 3.3 2.05 6.58 3.18 9.84 1.12 3.23 2.93 6.09 5.04 8.76 1.68 2.16 3.45 4.2 5.43 6.57zm-97.15-12.43c2.83-4.37 5.27-8.49 8.06-12.37 2.79-3.88 5.93-7.52 9.01-11.38-.55-.2-.94-.36-1.35-.5-2.71-.91-5.48-1.7-8.13-2.76-3.62-1.45-7.21-3-10.72-4.7-2.32-1.12-4.42-2.68-6.72-3.86-2.11-1.09-3.96-2.48-5.72-4.04-4.05-3.59-8.07-7.22-12.26-10.65-2.62-2.15-5.42-4.09-7.48-6.84-1.59-2.13-3.05-4.35-4.7-6.44-2.86-3.63-5.81-7.19-8.75-10.76-.37-.45-.91-.77-1.68-1.39-.19 1.76-.43 3.11-.45 4.47-.02.99-.36 1.41-1.31 1.39-.5-.01-1.01 0-1.79 0 .24.67.35 1.18.59 1.63.52.96.33 1.37-.74 1.46-.78.07-1.55.16-2.58.26.41.83.55 1.58 1.01 1.98 1.49 1.31 3.09 2.49 4.65 3.72 1.53 1.2 3.16 2.3 4.57 3.63 3.39 3.2 6.77 6.42 9.98 9.79 2.74 2.88 5.44 5.84 7.79 9.04 2.4 3.26 4.23 6.93 6.53 10.27 2.12 3.07 4.44 6.03 6.87 8.87 1.61 1.89 3.23 3.71 4.46 5.89 1.1 1.96 2.37 3.85 3.7 5.67 1.1 1.51 2.34 2.92 3.61 4.29 1.07 1.13 2.27 2.14 3.55 3.33zm99.24 101.95h-.06c0 .44-.01.88 0 1.32.02 1.46.24 1.69 1.62 1.28 4.65-1.39 9.19-3.07 13.44-5.45 1.98-1.11 3.96-2.28 6.06-3.09 4.45-1.7 8.6-3.89 12.5-6.62 3.13-2.19 6.51-2.8 10.12-1.01 2.5 1.23 5.05 2.35 7.62 3.43.43.18 1.07-.13 1.61-.21-.12-.58-.08-1.27-.39-1.72-.84-1.2-1.78-2.34-2.76-3.43-1.87-2.06-3.65-4.26-5.76-6.04-1.74-1.46-3.26-3.04-4.49-4.9-.49-.75-1.06-1.06-1.86-1.04-.87.02-1.77.03-2.62.21-4.44.94-8.92 1.76-13.3 2.95-7.21 1.95-14.56 3.44-21.59 6.03-1.67.62-1.78.74-1.55 2.6.23 1.92.46 3.85.63 5.78.3 3.31.53 6.61.78 9.91zM79.43 348.35c.66.06 1.17.22 1.64.13 1.75-.36 3.63-.52 5.21-1.28 3.61-1.75 7.09-3.78 10.58-5.78.45-.26.85-.92.92-1.44.17-1.25.06-2.53.18-3.78.21-2.13.63-4.25.74-6.38.19-3.74.16-7.49.29-11.24.14-4.1.38-8.2.54-12.3.18-4.66.32-9.32.45-13.98.02-.88-.33-1.56-1.36-1.63-.48-.03-.95-.18-1.43-.16-3.47.18-6.8-.64-10.16-1.36-1.73-.37-3.52-.54-5.28-.76-.74-.09-1.07.37-.91 1.04.58 2.47 1.18 4.93 1.84 7.38.8 2.95 1.62 5.9 2.53 8.82.91 2.92 1.81 5.84 2.01 8.92.15 2.42.21 4.86.55 7.27.54 3.89 1.24 7.75 1.95 11.61.33 1.78-.31 3.26-1.34 4.52-1.13 1.38-2.5 2.56-3.79 3.81-1.93 1.89-4 3.67-5.16 6.59zm101.63-232.53c-2.09-6.36-4.14-12.58-6.25-18.98-2.41-.17-5.09-.37-7.59-.54-2.2 5.92-4.3 11.59-6.49 17.49 6.61 1.16 13.19 2.67 20.33 2.03z"/><path class="st0" d="M277.56 51.6c-1.25 1.21-2.52 2.4-3.74 3.63-.9.9-1.69 1.92-2.61 2.8-2.2 2.11-4.55 4.03-7 5.87-4 3-8.13 5.92-11.66 9.43-4.16 4.13-9.39 6.75-13.75 10.55-1.91 1.67-4.08 3.07-6.19 4.49-3.36 2.26-6.81 4.41-10.17 6.69-1.31.89-2.42 2.06-3.71 2.99-2.91 2.1-5.87 4.12-8.81 6.17-3.83 2.68-8.04 4.65-12.3 6.52-1.85.81-3.76 1.5-5.66 2.2-2.12.77-4.26 1.48-6.51 2.26-.6-1.35-1.27-2.58-1.64-3.89-.1-.38.58-1.2 1.1-1.48 1.17-.65 2.43-1.16 3.7-1.6 2.8-.98 5.01-2.88 7.41-4.51 2.85-1.94 4.76-4.65 6.66-7.42.98-1.42 2.09-2.74 3.06-4.19 1.09-1.62 2.98-2.83 4.74-3.83 2.83-1.62 5.86-2.88 8.76-4.39 1.37-.71 2.7-1.52 3.29-3.14.6-1.67 1.84-2.72 3.5-3.37.46-.18.75-.79 1.12-1.2-.43-.35-.83-.93-1.3-1-1.36-.21-2.8-.49-4.11-.23-2.79.56-5.53 1.4-8.27 2.21-.63.18-1.29.57-1.72 1.06-1.76 2.01-4.19 2.73-6.6 3.37-2.71.72-5.47 1.31-8.23 1.84-2.49.48-4.28 2.04-6.06 3.62-2.64 2.35-5.6 3.28-9.03 2.21-.76-.24-1.39-.86-2.12-1.25-2.81-1.51-5.83-1.38-8.92-1.47-3.33-.09-5.8 1.4-8.28 3.16-1.85 1.31-2.68 3.46-2.68 5.4-.02 4.64-2.33 8.14-4.77 11.69-.54.78-.93 1.66-1.5 2.42-1.2 1.59-2.75 2.54-4.82 2.64-7.25.34-14.15-1.19-20.91-3.69-2.82-1.04-5.17-2.78-7.6-4.45-2.56-1.76-5.21-3.39-7.76-5.17-2.19-1.52-4.26-3.21-6.43-4.76-3.17-2.27-6.45-4.4-9.55-6.76-2.43-1.85-4.66-3.96-6.98-5.95-1.2-1.03-2.58-1.93-3.57-3.14-1.69-2.07-3.14-4.34-4.68-6.53-.84-1.19-1.61-2.43-2.51-3.58-2.52-3.23-5.78-5.92-7.35-9.87-.74-1.86-2.12-1.39-3.32-.1-.49.53-.72.7-1.44.43-.95-.36-2-.57-3.02-.59-.57-.01-1.53.37-1.65.77-.18.6.09 1.44.39 2.07.31.64.9 1.15 1.37 1.71l-.12.41c-.87.15-1.73.38-2.61.43-1.55.07-1.61.02-1.57 1.6.02.9.27 1.79.44 2.69.07.37.2.74.25.95-2.34.28-4.58.5-6.8.87-.5.09-.92.73-1.37 1.12V51.6h225.61z"/><path class="st1" d="M143.63 116.65c2.34.23 4.68.6 7.03.66 1.64.04 3.3-.25 4.93-.54 1.14-.2 2.1-.14 3.19.41 4.29 2.14 8.81 3.77 13.52 4.58 2.39.41 4.96.14 7.39-.19 3.19-.43 6.33-1.19 9.48-1.89 1.04-.23 2.02-.71 3.03-1.08.73-.26 1.21-.11 1.42.72.66 2.58 1.21 5.19 2.07 7.7 1.09 3.18 2.42 6.27 3.68 9.38.73 1.8 1.43 3.61 2.3 5.33 1.17 2.3 2.43 4.56 3.79 6.75 2.31 3.71 4.67 7.4 6.21 11.52.21.56-.06 1.4-.32 2.03-1.17 2.87-2.43 5.69-3.62 8.55-1.06 2.53-2.09 5.07-3.12 7.61-.29.71-.78.92-1.5.76-5.77-1.32-11.63-1.24-17.5-1.22-3.62.01-7.26-.46-10.87-.31-4.71.19-9-1.46-13.41-2.58-3.74-.95-7.4-2.18-11.14-3.11-2.23-.56-4.6-.57-6.8-1.19-5.43-1.54-11.05-2.43-16.25-4.75-1.23-.55-2.55-.9-3.8-1.42-1.34-.56-1.36-.9-1.01-2.29.77-3.03 1.68-6.06 2.05-9.14.31-2.61.02-5.31-1.06-7.84-.16-.36-.07-.94.11-1.32 1.66-3.56 3.92-6.71 6.49-9.7 1.77-2.07 2.99-4.59 4.59-6.82 1.57-2.2 3.31-4.27 4.95-6.42.85-1.11 1.59-2.29 2.48-3.36.38-.47 1-.74 1.51-1.11.07.09.13.18.18.28zM215.76 150.87c-1.98-2.38-3.76-4.42-5.43-6.53-2.11-2.66-3.92-5.53-5.04-8.76-1.13-3.26-2.18-6.54-3.18-9.84-.86-2.84-1.61-5.72-2.4-8.58-.08-.3-.11-.61-.16-.89 6.77-2.87 12.94-6.67 19.21-10.31 3.51-2.04 6.57-4.6 9.64-7.23 3.17-2.72 6.6-5.15 9.87-7.76 3.81-3.03 7.56-6.12 11.36-9.15 3.27-2.6 6.55-5.2 9.89-7.71 1.75-1.31 3.74-2.31 5.42-3.7 2.75-2.28 5.35-4.75 8-7.15 1.08-.98 2.12-2.02 3.21-2.99.47-.42.97-.43 1.19.29.18.61.42 1.23.42 1.85.01.87.46 1 1.14.96.84-.05 1.68-.16 2.51-.1.41.03.97.29 1.14.61.16.31 0 .92-.23 1.25-.63.91-1.44 1.7-2.04 2.62-.36.56-.72 1.32-.61 1.91.06.31 1.09.54 1.71.63.83.12 1.68.01 2.51.1.3.03.58.34.86.52-.18.27-.32.72-.56.8-2.49.77-4.17 2.72-6.19 4.17-2.2 1.58-4.38 3.19-6.58 4.76-4.21 3-8.16 6.28-11.38 10.35-1.95 2.46-3.73 5.06-5.68 7.52-3.62 4.55-7.41 8.98-10.95 13.59-3.37 4.39-6.49 8.97-9.78 13.43-1.73 2.34-3.49 4.67-5.42 6.85-3.64 4.12-6.53 8.74-9.24 13.49-.92 1.57-1.99 3.1-3.21 5zM118.61 138.44c-1.27-1.19-2.48-2.2-3.54-3.35-1.27-1.37-2.52-2.78-3.61-4.29-1.33-1.82-2.6-3.7-3.7-5.67-1.23-2.18-2.85-4-4.46-5.89-2.42-2.85-4.74-5.8-6.87-8.87-2.3-3.34-4.13-7.01-6.53-10.27-2.35-3.2-5.05-6.16-7.79-9.04-3.21-3.38-6.59-6.59-9.98-9.79-1.41-1.33-3.04-2.43-4.57-3.63-1.56-1.23-3.16-2.41-4.65-3.72-.45-.4-.6-1.15-1.01-1.98 1.03-.11 1.8-.2 2.58-.26 1.07-.09 1.26-.49.74-1.46-.24-.44-.35-.96-.59-1.63.78 0 1.29-.01 1.79 0 .96.02 1.3-.4 1.31-1.39.02-1.36.26-2.71.45-4.47.76.63 1.3.94 1.68 1.39 2.94 3.57 5.89 7.13 8.75 10.76 1.64 2.08 3.11 4.31 4.7 6.44 2.06 2.75 4.86 4.68 7.48 6.84 4.18 3.43 8.21 7.06 12.26 10.65 1.76 1.56 3.61 2.95 5.72 4.04 2.29 1.18 4.4 2.74 6.72 3.86 3.51 1.7 7.09 3.25 10.72 4.7 2.65 1.06 5.42 1.85 8.13 2.76.41.14.8.3 1.35.5-3.08 3.86-6.22 7.5-9.01 11.38-2.8 3.9-5.24 8.02-8.07 12.39zM217.85 240.39c-.25-3.3-.47-6.6-.75-9.89-.16-1.93-.39-3.86-.63-5.78-.23-1.86-.12-1.99 1.55-2.6 7.03-2.6 14.38-4.08 21.59-6.03 4.38-1.19 8.86-2.01 13.3-2.95.85-.18 1.74-.19 2.62-.21.8-.02 1.36.29 1.86 1.04 1.22 1.86 2.75 3.44 4.49 4.9 2.12 1.78 3.89 3.98 5.76 6.04.99 1.09 1.93 2.23 2.76 3.43.31.45.27 1.14.39 1.72-.54.08-1.18.39-1.61.21-2.57-1.07-5.13-2.19-7.62-3.43-3.62-1.79-6.99-1.18-10.12 1.01-3.9 2.73-8.05 4.92-12.5 6.62-2.11.8-4.08 1.98-6.06 3.09-4.26 2.38-8.79 4.06-13.44 5.45-1.38.41-1.6.18-1.62-1.28-.01-.44 0-.88 0-1.32-.01-.02.01-.02.03-.02zM79.43 348.35c1.16-2.92 3.23-4.7 5.16-6.59 1.28-1.25 2.66-2.43 3.79-3.81 1.03-1.26 1.67-2.74 1.34-4.52-.72-3.86-1.41-7.73-1.95-11.61-.34-2.4-.39-4.84-.55-7.27-.2-3.08-1.1-6-2.01-8.92-.91-2.92-1.73-5.87-2.53-8.82-.66-2.45-1.26-4.91-1.84-7.38-.16-.66.17-1.13.91-1.04 1.76.22 3.55.39 5.28.76 3.35.72 6.68 1.53 10.16 1.36.47-.02.95.12 1.43.16 1.03.07 1.38.76 1.36 1.63-.13 4.66-.27 9.32-.45 13.98-.16 4.1-.39 8.2-.54 12.3-.13 3.74-.11 7.49-.29 11.24-.11 2.13-.53 4.25-.74 6.38-.12 1.25-.01 2.54-.18 3.78-.07.52-.48 1.19-.92 1.44-3.49 1.99-6.97 4.03-10.58 5.78-1.58.76-3.45.92-5.21 1.28-.46.09-.98-.07-1.64-.13zM181.06 115.82c-7.13.64-13.71-.87-20.33-2.03 2.19-5.91 4.3-11.58 6.49-17.49 2.49.18 5.18.37 7.59.54 2.11 6.39 4.15 12.61 6.25 18.98z"/></svg>