<?xml version="1.0" encoding="utf-8"?>
<!-- Generator: Adobe Illustrator 23.1.1, SVG Export Plug-In . SVG Version: 6.00 Build 0)  -->
<svg version="1.1" id="FREI_xA0_Bild_1_" xmlns="http://www.w3.org/2000/svg" xmlns:xlink="http://www.w3.org/1999/xlink" x="0px"
	 y="0px" viewBox="0 0 350.16 384.24" style="enable-background:new 0 0 350.16 384.24;" xml:space="preserve">
<style type="text/css">
	.st0{fill:none;}
	.st1{fill:#FFFFFF;}
</style>
<g>
	<path class="st0" d="M278.04,51.6c18.24,0,36.48,0,54.72,0c0,101.11,0,202.22,0,303.36c-93.57,0-187.14,0-280.8,0
		c0-94.79,0-189.6,0-284.41c0.31,0.5,0.53,1.12,0.96,1.48c1.82,1.54,3.68,3.03,5.57,4.5c2.24,1.74,5.03,2.83,6.5,5.5
		c0.11,0.2,0.35,0.32,0.54,0.47c1.83,1.53,3.71,3.02,5.48,4.62c2.07,1.87,4.04,3.84,6.07,5.76c0.55,0.52,1.23,0.91,1.71,1.47
		c2.24,2.65,4.48,5.3,6.63,8.02c1.79,2.28,3.46,4.65,5.15,7c1.11,1.55,2.42,3.02,3.2,4.73c2.03,4.4,4.85,8.27,7.77,12.05
		c2.43,3.15,5.32,5.94,7.82,9.04c1.67,2.07,3.02,4.39,4.48,6.62c2.13,3.27,3.27,6.9,3.37,10.76c0.11,4.46-0.34,8.89-1.59,13.21
		c-0.26,0.91-0.49,1.84-0.75,2.76c-0.85,2.94-1.72,5.87-2.56,8.8c-0.75,2.63-1.85,5.23-2.13,7.91c-0.36,3.31-1.84,6.06-3.39,8.81
		c-2.03,3.6-4.23,7.1-6.39,10.62c-1.7,2.77-3.42,5.54-5.19,8.27c-1.42,2.2-2.96,4.33-4.36,6.54c-0.92,1.44-1.66,2.99-2.53,4.46
		c-2.17,3.7-4.39,7.37-6.56,11.07c-2.27,3.87-4.51,7.75-6.75,11.64c-0.95,1.65-1.93,3.29-2.73,5.01c-0.46,0.99-0.51,2.17-0.92,3.2
		c-1.64,4.07-1.57,8.31-0.92,12.48c0.61,3.94,1.8,7.8,2.67,11.7c1,4.49,1.84,9.03,2.92,13.5c1.48,6.14,3.16,12.23,4.7,18.36
		c1.66,6.64,2.74,13.37,3,20.21c0.05,1.34-0.1,2.89-0.74,4c-1.45,2.49-3.24,4.78-4.95,7.11c-1.97,2.7-3.5,5.57-3.79,8.98
		c-0.19,2.2,0.93,3.46,3.15,3.29c5.14-0.4,9.93-1.88,14.24-4.78c1.19-0.8,2.44-1.51,3.64-2.31c1.59-1.06,3.26-2.04,4.68-3.31
		c0.8-0.71,1.45-1.87,1.64-2.93c0.66-3.66,1.05-7.37,1.63-11.05c0.46-2.94,1.26-5.83,1.51-8.78c0.42-4.96,0.53-9.94,0.76-14.92
		c0.16-3.42,0.28-6.85,0.44-10.27c0.16-3.34,0.47-6.67,0.48-10.01c0.02-5.23-0.1-10.46-0.25-15.69c-0.09-3.03,0.74-5.49,3.31-7.35
		c1.8-1.3,3.38-2.92,5.08-4.37c3.11-2.68,6.2-5.37,9.35-8c2.63-2.2,5.33-4.32,7.99-6.5c0.89-0.73,1.71-1.56,2.63-2.25
		c2.2-1.65,4.46-3.23,6.67-4.87c2.43-1.8,4.8-3.7,7.27-5.44c1.7-1.2,3.15-0.95,4.69,0.47c3.19,2.95,6.35,5.93,10.17,8.09
		c0.79,0.45,1.55,1,2.21,1.63c3.03,2.89,5.93,5.92,9.04,8.71c4.6,4.13,9.27,8.16,15.68,9.38c3.8,0.72,7.35,0.36,10.82-1.36
		c7.34-3.64,14.72-7.22,22.07-10.85c3.41-1.69,7.08-2.71,10.41-4.66c4.4-2.57,9.02-4.74,13.51-7.14c3.01-1.61,5.92-3.4,8.96-4.96
		c1.46-0.75,3.06-1.53,4.8-0.93c2.7,0.94,5.35,2.01,8.06,2.94c1.14,0.39,2.35,0.77,3.53,0.78c1.62,0.01,3.34-1.45,3.46-2.64
		c0.16-1.52,0.15-3.13-0.76-4.37c-1.58-2.18-3.17-4.42-5.13-6.23c-2.48-2.28-4.78-4.65-6.71-7.39c-2.41-3.44-5.83-4.68-9.88-4.2
		c-2.64,0.31-5.26,0.87-7.89,1.29c-3.37,0.55-6.74,1.07-10.1,1.62c-1.05,0.17-2.12,0.34-3.14,0.66c-2.42,0.77-4.81,1.61-7.2,2.45
		c-4.23,1.49-8.45,3.01-12.68,4.51c-2.32,0.82-4.59,1.8-7.17,1.21c-1.66-0.38-3.31-0.7-3.92-2.59c-1.03-3.21-1.05-6.52-0.73-9.81
		c0.21-2.12,0.64-4.29,1.39-6.27c1.66-4.38,3.56-8.67,5.4-12.99c1.23-2.88,2.5-5.74,3.78-8.59c1.83-4.09,3.63-8.19,5.52-12.24
		c2.09-4.5,4.21-8.99,6.44-13.42c1.39-2.76,3.3-5.3,4.43-8.15c2.07-5.23,4.4-10.21,8.26-14.42c1.43-1.55,2.26-3.64,3.46-5.41
		c1.58-2.34,3.29-4.6,4.9-6.93c0.68-0.98,1.21-2.05,1.88-3.03c1.09-1.61,2.22-3.19,3.35-4.77c3.17-4.46,6.21-9.01,9.99-13.01
		c1.44-1.52,2.57-3.32,3.88-4.96c0.67-0.84,1.53-1.53,2.11-2.41c1.9-2.89,4.51-5.11,6.99-7.43c1.38-1.29,3.06-2.26,4.59-3.4
		c2.89-2.16,5.75-4.35,8.66-6.48c1.41-1.03,2.91-1.94,4.34-2.93c0.62-0.43,0.68-1.09,0.05-1.47c-0.89-0.55-1.87-1.05-2.87-1.3
		c-0.92-0.23-1.69-0.47-1.94-1.46c-0.27-1.09,0.33-1.76,1.24-2.18c0.9-0.41,1.95-0.59,2.71-1.17c0.76-0.57,1.61-1.44,1.75-2.29
		c0.17-0.99-0.65-1.83-1.87-1.85c-0.98-0.01-1.96-0.03-2.94,0.02c-0.91,0.05-1.81,0.25-2.72,0.26c-1.2,0.01-1.96-1.27-1.48-2.38
		c0.13-0.29,0.4-0.53,0.47-0.82c0.11-0.48,0.32-1.15,0.1-1.43c-0.27-0.34-0.94-0.46-1.45-0.51c-0.53-0.06-1.08,0.08-1.37,0.11
		C279.02,53.72,278.53,52.66,278.04,51.6z"/>
	<path d="M278.04,51.6c0.49,1.06,0.98,2.12,1.55,3.36c0.29-0.03,0.84-0.16,1.37-0.11c0.51,0.05,1.18,0.17,1.45,0.51
		c0.22,0.28,0.01,0.96-0.1,1.43c-0.07,0.29-0.34,0.54-0.47,0.82c-0.48,1.11,0.28,2.39,1.48,2.38c0.91-0.01,1.81-0.21,2.72-0.26
		c0.98-0.05,1.96-0.03,2.94-0.02c1.22,0.01,2.04,0.85,1.87,1.85c-0.15,0.85-0.99,1.72-1.75,2.29c-0.76,0.57-1.81,0.75-2.71,1.17
		c-0.91,0.42-1.51,1.09-1.24,2.18c0.25,1,1.02,1.23,1.94,1.46c1.01,0.25,1.98,0.76,2.87,1.3c0.63,0.38,0.57,1.04-0.05,1.47
		c-1.43,1-2.93,1.9-4.34,2.93c-2.91,2.13-5.77,4.33-8.66,6.48c-1.53,1.14-3.2,2.11-4.59,3.4c-2.48,2.32-5.09,4.54-6.99,7.43
		c-0.58,0.89-1.45,1.58-2.11,2.41c-1.31,1.64-2.45,3.44-3.88,4.96c-3.78,4-6.83,8.55-9.99,13.01c-1.12,1.58-2.26,3.16-3.35,4.77
		c-0.67,0.98-1.2,2.06-1.88,3.03c-1.61,2.32-3.31,4.59-4.9,6.93c-1.2,1.78-2.03,3.86-3.46,5.41c-3.86,4.21-6.19,9.19-8.26,14.42
		c-1.13,2.85-3.04,5.39-4.43,8.15c-2.23,4.43-4.34,8.92-6.44,13.42c-1.89,4.06-3.7,8.16-5.52,12.24c-1.28,2.86-2.55,5.71-3.78,8.59
		c-1.84,4.31-3.74,8.6-5.4,12.99c-0.75,1.99-1.18,4.15-1.39,6.27c-0.32,3.29-0.3,6.61,0.73,9.81c0.6,1.88,2.26,2.21,3.92,2.59
		c2.58,0.59,4.85-0.39,7.17-1.21c4.23-1.5,8.45-3.02,12.68-4.51c2.39-0.84,4.79-1.68,7.2-2.45c1.01-0.32,2.08-0.49,3.14-0.66
		c3.36-0.56,6.73-1.08,10.1-1.62c2.63-0.43,5.24-0.98,7.89-1.29c4.05-0.48,7.47,0.77,9.88,4.2c1.93,2.75,4.23,5.12,6.71,7.39
		c1.96,1.81,3.56,4.05,5.13,6.23c0.9,1.25,0.91,2.85,0.76,4.37c-0.12,1.19-1.85,2.65-3.46,2.64c-1.18-0.01-2.39-0.39-3.53-0.78
		c-2.7-0.93-5.36-2.01-8.06-2.94c-1.73-0.6-3.34,0.18-4.8,0.93c-3.04,1.55-5.95,3.35-8.96,4.96c-4.49,2.4-9.12,4.57-13.51,7.14
		c-3.32,1.94-7,2.97-10.41,4.66c-7.35,3.64-14.72,7.21-22.07,10.85c-3.46,1.72-7.01,2.08-10.82,1.36
		c-6.41-1.21-11.08-5.25-15.68-9.38c-3.11-2.79-6.01-5.82-9.04-8.71c-0.66-0.63-1.42-1.18-2.21-1.63
		c-3.82-2.16-6.98-5.14-10.17-8.09c-1.54-1.42-2.98-1.67-4.69-0.47c-2.47,1.74-4.84,3.63-7.27,5.44c-2.21,1.64-4.46,3.22-6.67,4.87
		c-0.92,0.69-1.74,1.52-2.63,2.25c-2.66,2.17-5.36,4.29-7.99,6.5c-3.14,2.63-6.24,5.32-9.35,8c-1.69,1.46-3.27,3.07-5.08,4.37
		c-2.57,1.86-3.4,4.32-3.31,7.35c0.15,5.23,0.27,10.46,0.25,15.69c-0.02,3.34-0.33,6.67-0.48,10.01c-0.16,3.42-0.28,6.85-0.44,10.27
		c-0.23,4.97-0.34,9.96-0.76,14.92c-0.25,2.95-1.05,5.85-1.51,8.78c-0.57,3.68-0.96,7.39-1.63,11.05c-0.19,1.05-0.84,2.21-1.64,2.93
		c-1.41,1.27-3.09,2.25-4.68,3.31c-1.19,0.8-2.45,1.51-3.64,2.31c-4.31,2.89-9.1,4.38-14.24,4.78c-2.22,0.17-3.34-1.09-3.15-3.29
		c0.29-3.41,1.81-6.28,3.79-8.98c1.7-2.33,3.5-4.62,4.95-7.11c0.65-1.11,0.8-2.67,0.74-4c-0.27-6.84-1.34-13.58-3-20.21
		c-1.53-6.13-3.21-12.22-4.7-18.36c-1.08-4.47-1.92-9.01-2.92-13.5c-0.87-3.91-2.06-7.76-2.67-11.7c-0.65-4.17-0.72-8.41,0.92-12.48
		c0.41-1.02,0.46-2.2,0.92-3.2c0.81-1.72,1.78-3.36,2.73-5.01c2.23-3.89,4.48-7.77,6.75-11.64c2.17-3.7,4.39-7.37,6.56-11.07
		c0.87-1.47,1.61-3.02,2.53-4.46c1.4-2.21,2.94-4.34,4.36-6.54c1.76-2.74,3.49-5.5,5.19-8.27c2.16-3.52,4.36-7.02,6.39-10.62
		c1.55-2.75,3.03-5.49,3.39-8.81c0.29-2.68,1.38-5.28,2.13-7.91c0.84-2.94,1.71-5.87,2.56-8.8c0.26-0.91,0.49-1.84,0.75-2.76
		c1.25-4.32,1.71-8.75,1.59-13.21c-0.1-3.86-1.24-7.49-3.37-10.76c-1.46-2.23-2.81-4.55-4.48-6.62c-2.5-3.1-5.39-5.89-7.82-9.04
		c-2.92-3.78-5.74-7.65-7.77-12.05c-0.79-1.71-2.09-3.18-3.2-4.73c-1.69-2.35-3.36-4.72-5.15-7c-2.14-2.73-4.38-5.37-6.63-8.02
		c-0.48-0.57-1.17-0.96-1.71-1.47c-2.03-1.91-4-3.89-6.07-5.76c-1.77-1.6-3.65-3.08-5.48-4.62c-0.18-0.15-0.43-0.28-0.54-0.47
		c-1.47-2.66-4.26-3.76-6.5-5.5c-1.88-1.46-3.75-2.95-5.57-4.5c-0.43-0.36-0.64-0.98-0.96-1.48c0-0.08,0-0.16,0-0.24
		c0.45-0.39,0.86-1.03,1.37-1.12c2.22-0.37,4.46-0.59,6.8-0.87c-0.06-0.21-0.18-0.57-0.25-0.95c-0.17-0.89-0.42-1.79-0.44-2.69
		c-0.04-1.58,0.02-1.53,1.57-1.6c0.87-0.04,1.74-0.28,2.61-0.43c0.04-0.14,0.08-0.27,0.12-0.41c-0.47-0.56-1.06-1.07-1.37-1.71
		c-0.31-0.63-0.58-1.47-0.39-2.07c0.12-0.4,1.08-0.78,1.65-0.77c1.02,0.02,2.07,0.23,3.02,0.59c0.72,0.27,0.95,0.1,1.44-0.43
		c1.21-1.29,2.58-1.77,3.32,0.1c1.57,3.94,4.83,6.63,7.35,9.87c0.89,1.15,1.67,2.39,2.51,3.58c1.54,2.19,2.99,4.46,4.68,6.53
		c0.99,1.21,2.36,2.1,3.57,3.14c2.32,1.99,4.55,4.1,6.98,5.95c3.1,2.36,6.38,4.48,9.55,6.76c2.17,1.55,4.24,3.24,6.43,4.76
		c2.55,1.78,5.2,3.41,7.76,5.17c2.43,1.67,4.79,3.41,7.6,4.45c6.75,2.49,13.66,4.03,20.91,3.69c2.06-0.1,3.62-1.05,4.82-2.64
		c0.57-0.75,0.96-1.64,1.5-2.42c2.44-3.54,4.75-7.05,4.77-11.69c0.01-1.94,0.84-4.08,2.68-5.4c2.48-1.76,4.95-3.25,8.28-3.16
		c3.09,0.09,6.11-0.04,8.92,1.47c0.72,0.39,1.36,1.01,2.12,1.25c3.43,1.07,6.39,0.14,9.03-2.21c1.78-1.58,3.58-3.14,6.06-3.62
		c2.76-0.53,5.52-1.11,8.23-1.84c2.42-0.65,4.84-1.36,6.6-3.37c0.43-0.49,1.09-0.87,1.72-1.06c2.74-0.81,5.47-1.65,8.27-2.21
		c1.31-0.26,2.75,0.02,4.11,0.23c0.47,0.07,0.87,0.65,1.3,1c-0.37,0.41-0.66,1.02-1.12,1.2c-1.66,0.65-2.9,1.7-3.5,3.37
		c-0.59,1.62-1.92,2.43-3.29,3.14c-2.9,1.5-5.93,2.77-8.76,4.39c-1.76,1.01-3.66,2.21-4.74,3.83c-0.97,1.44-2.08,2.76-3.06,4.19
		c-1.9,2.77-3.81,5.49-6.66,7.42c-2.4,1.63-4.61,3.53-7.41,4.51c-1.27,0.45-2.53,0.95-3.7,1.6c-0.51,0.28-1.2,1.1-1.1,1.48
		c0.36,1.31,1.04,2.54,1.64,3.89c2.25-0.78,4.39-1.49,6.51-2.26c1.9-0.69,3.81-1.38,5.66-2.2c4.26-1.87,8.47-3.85,12.3-6.52
		c2.94-2.05,5.9-4.07,8.81-6.17c1.29-0.93,2.4-2.1,3.71-2.99c3.36-2.28,6.8-4.42,10.17-6.69c2.12-1.42,4.28-2.82,6.19-4.49
		c4.36-3.8,9.58-6.42,13.75-10.55c3.53-3.51,7.66-6.43,11.66-9.43c2.45-1.83,4.8-3.76,7-5.87c0.92-0.88,1.71-1.89,2.61-2.8
		c1.22-1.23,2.49-2.42,3.74-3.63C277.72,51.6,277.88,51.6,278.04,51.6z M143.63,116.65c-0.05-0.1-0.11-0.19-0.16-0.29
		c-0.51,0.36-1.12,0.64-1.51,1.11c-0.88,1.07-1.63,2.26-2.48,3.36c-1.64,2.15-3.38,4.22-4.95,6.42c-1.59,2.23-2.82,4.76-4.59,6.82
		c-2.57,2.99-4.82,6.13-6.49,9.7c-0.18,0.38-0.27,0.96-0.11,1.32c1.08,2.52,1.37,5.22,1.06,7.84c-0.37,3.09-1.28,6.11-2.05,9.14
		c-0.35,1.39-0.33,1.73,1.01,2.29c1.25,0.52,2.56,0.87,3.8,1.42c5.2,2.32,10.82,3.22,16.25,4.75c2.2,0.62,4.57,0.64,6.8,1.19
		c3.74,0.93,7.4,2.17,11.14,3.11c4.41,1.12,8.7,2.76,13.41,2.58c3.61-0.14,7.25,0.32,10.87,0.31c5.87-0.01,11.73-0.09,17.5,1.22
		c0.72,0.17,1.22-0.05,1.5-0.76c1.03-2.54,2.06-5.08,3.12-7.61c1.2-2.85,2.46-5.68,3.62-8.55c0.26-0.63,0.53-1.47,0.32-2.03
		c-1.54-4.12-3.9-7.81-6.21-11.52c-1.36-2.19-2.62-4.45-3.79-6.75c-0.88-1.72-1.58-3.54-2.3-5.33c-1.26-3.12-2.6-6.21-3.68-9.38
		c-0.86-2.51-1.41-5.12-2.07-7.7c-0.21-0.83-0.69-0.99-1.42-0.72c-1.01,0.37-1.99,0.85-3.03,1.08c-3.15,0.7-6.29,1.46-9.48,1.89
		c-2.44,0.33-5,0.6-7.39,0.19c-4.71-0.8-9.23-2.44-13.52-4.58c-1.09-0.54-2.05-0.61-3.19-0.41c-1.63,0.29-3.29,0.58-4.93,0.54
		C148.31,117.24,145.97,116.88,143.63,116.65z M215.76,150.87c1.22-1.9,2.29-3.43,3.21-5.04c2.71-4.75,5.59-9.37,9.24-13.49
		c1.92-2.18,3.69-4.51,5.42-6.85c3.29-4.45,6.4-9.04,9.78-13.43c3.54-4.61,7.33-9.04,10.95-13.59c1.95-2.46,3.73-5.06,5.68-7.52
		c3.22-4.06,7.18-7.35,11.38-10.35c2.2-1.57,4.38-3.18,6.58-4.76c2.02-1.45,3.7-3.4,6.19-4.17c0.25-0.08,0.38-0.52,0.56-0.8
		c-0.29-0.18-0.56-0.49-0.86-0.52c-0.83-0.09-1.69,0.02-2.51-0.1c-0.62-0.09-1.65-0.32-1.71-0.63c-0.11-0.58,0.24-1.35,0.61-1.91
		c0.6-0.92,1.41-1.71,2.04-2.62c0.23-0.33,0.39-0.94,0.23-1.25c-0.16-0.32-0.73-0.58-1.14-0.61c-0.83-0.06-1.67,0.05-2.51,0.1
		c-0.68,0.04-1.14-0.09-1.14-0.96c0-0.62-0.24-1.24-0.42-1.85c-0.22-0.72-0.72-0.71-1.19-0.29c-1.09,0.97-2.13,2.01-3.21,2.99
		c-2.65,2.4-5.24,4.88-8,7.15c-1.68,1.39-3.67,2.38-5.42,3.7c-3.34,2.51-6.62,5.11-9.89,7.71c-3.8,3.03-7.55,6.12-11.36,9.15
		c-3.28,2.6-6.7,5.03-9.87,7.76c-3.06,2.63-6.13,5.2-9.64,7.23c-6.27,3.64-12.44,7.44-19.21,10.31c0.05,0.29,0.08,0.6,0.16,0.89
		c0.79,2.86,1.54,5.74,2.4,8.58c1,3.3,2.05,6.58,3.18,9.84c1.12,3.23,2.93,6.09,5.04,8.76C212.01,146.46,213.78,148.5,215.76,150.87
		z M118.61,138.44c2.83-4.37,5.27-8.49,8.06-12.37c2.79-3.88,5.93-7.52,9.01-11.38c-0.55-0.2-0.94-0.36-1.35-0.5
		c-2.71-0.91-5.48-1.7-8.13-2.76c-3.62-1.45-7.21-3-10.72-4.7c-2.32-1.12-4.42-2.68-6.72-3.86c-2.11-1.09-3.96-2.48-5.72-4.04
		c-4.05-3.59-8.07-7.22-12.26-10.65c-2.62-2.15-5.42-4.09-7.48-6.84c-1.59-2.13-3.05-4.35-4.7-6.44c-2.86-3.63-5.81-7.19-8.75-10.76
		c-0.37-0.45-0.91-0.77-1.68-1.39c-0.19,1.76-0.43,3.11-0.45,4.47c-0.02,0.99-0.36,1.41-1.31,1.39c-0.5-0.01-1.01,0-1.79,0
		c0.24,0.67,0.35,1.18,0.59,1.63c0.52,0.96,0.33,1.37-0.74,1.46c-0.78,0.07-1.55,0.16-2.58,0.26c0.41,0.83,0.55,1.58,1.01,1.98
		c1.49,1.31,3.09,2.49,4.65,3.72c1.53,1.2,3.16,2.3,4.57,3.63c3.39,3.2,6.77,6.42,9.98,9.79c2.74,2.88,5.44,5.84,7.79,9.04
		c2.4,3.26,4.23,6.93,6.53,10.27c2.12,3.07,4.44,6.03,6.87,8.87c1.61,1.89,3.23,3.71,4.46,5.89c1.1,1.96,2.37,3.85,3.7,5.67
		c1.1,1.51,2.34,2.92,3.61,4.29C116.13,136.24,117.33,137.25,118.61,138.44z M217.85,240.39c-0.02,0-0.04,0-0.06,0
		c0,0.44-0.01,0.88,0,1.32c0.02,1.46,0.24,1.69,1.62,1.28c4.65-1.39,9.19-3.07,13.44-5.45c1.98-1.11,3.96-2.28,6.06-3.09
		c4.45-1.7,8.6-3.89,12.5-6.62c3.13-2.19,6.51-2.8,10.12-1.01c2.5,1.23,5.05,2.35,7.62,3.43c0.43,0.18,1.07-0.13,1.61-0.21
		c-0.12-0.58-0.08-1.27-0.39-1.72c-0.84-1.2-1.78-2.34-2.76-3.43c-1.87-2.06-3.65-4.26-5.76-6.04c-1.74-1.46-3.26-3.04-4.49-4.9
		c-0.49-0.75-1.06-1.06-1.86-1.04c-0.87,0.02-1.77,0.03-2.62,0.21c-4.44,0.94-8.92,1.76-13.3,2.95c-7.21,1.95-14.56,3.44-21.59,6.03
		c-1.67,0.62-1.78,0.74-1.55,2.6c0.23,1.92,0.46,3.85,0.63,5.78C217.37,233.79,217.6,237.09,217.85,240.39z M79.43,348.35
		c0.66,0.06,1.17,0.22,1.64,0.13c1.75-0.36,3.63-0.52,5.21-1.28c3.61-1.75,7.09-3.78,10.58-5.78c0.45-0.26,0.85-0.92,0.92-1.44
		c0.17-1.25,0.06-2.53,0.18-3.78c0.21-2.13,0.63-4.25,0.74-6.38c0.19-3.74,0.16-7.49,0.29-11.24c0.14-4.1,0.38-8.2,0.54-12.3
		c0.18-4.66,0.32-9.32,0.45-13.98c0.02-0.88-0.33-1.56-1.36-1.63c-0.48-0.03-0.95-0.18-1.43-0.16c-3.47,0.18-6.8-0.64-10.16-1.36
		c-1.73-0.37-3.52-0.54-5.28-0.76c-0.74-0.09-1.07,0.37-0.91,1.04c0.58,2.47,1.18,4.93,1.84,7.38c0.8,2.95,1.62,5.9,2.53,8.82
		c0.91,2.92,1.81,5.84,2.01,8.92c0.15,2.42,0.21,4.86,0.55,7.27c0.54,3.89,1.24,7.75,1.95,11.61c0.33,1.78-0.31,3.26-1.34,4.52
		c-1.13,1.38-2.5,2.56-3.79,3.81C82.66,343.65,80.59,345.43,79.43,348.35z M181.06,115.82c-2.09-6.36-4.14-12.58-6.25-18.98
		c-2.41-0.17-5.09-0.37-7.59-0.54c-2.2,5.92-4.3,11.59-6.49,17.49C167.34,114.95,173.92,116.46,181.06,115.82z"/>
	<path class="st0" d="M277.56,51.6c-1.25,1.21-2.52,2.4-3.74,3.63c-0.9,0.9-1.69,1.92-2.61,2.8c-2.2,2.11-4.55,4.03-7,5.87
		c-4,3-8.13,5.92-11.66,9.43c-4.16,4.13-9.39,6.75-13.75,10.55c-1.91,1.67-4.08,3.07-6.19,4.49c-3.36,2.26-6.81,4.41-10.17,6.69
		c-1.31,0.89-2.42,2.06-3.71,2.99c-2.91,2.1-5.87,4.12-8.81,6.17c-3.83,2.68-8.04,4.65-12.3,6.52c-1.85,0.81-3.76,1.5-5.66,2.2
		c-2.12,0.77-4.26,1.48-6.51,2.26c-0.6-1.35-1.27-2.58-1.64-3.89c-0.1-0.38,0.58-1.2,1.1-1.48c1.17-0.65,2.43-1.16,3.7-1.6
		c2.8-0.98,5.01-2.88,7.41-4.51c2.85-1.94,4.76-4.65,6.66-7.42c0.98-1.42,2.09-2.74,3.06-4.19c1.09-1.62,2.98-2.83,4.74-3.83
		c2.83-1.62,5.86-2.88,8.76-4.39c1.37-0.71,2.7-1.52,3.29-3.14c0.6-1.67,1.84-2.72,3.5-3.37c0.46-0.18,0.75-0.79,1.12-1.2
		c-0.43-0.35-0.83-0.93-1.3-1c-1.36-0.21-2.8-0.49-4.11-0.23c-2.79,0.56-5.53,1.4-8.27,2.21c-0.63,0.18-1.29,0.57-1.72,1.06
		c-1.76,2.01-4.19,2.73-6.6,3.37c-2.71,0.72-5.47,1.31-8.23,1.84c-2.49,0.48-4.28,2.04-6.06,3.62c-2.64,2.35-5.6,3.28-9.03,2.21
		c-0.76-0.24-1.39-0.86-2.12-1.25c-2.81-1.51-5.83-1.38-8.92-1.47c-3.33-0.09-5.8,1.4-8.28,3.16c-1.85,1.31-2.68,3.46-2.68,5.4
		c-0.02,4.64-2.33,8.14-4.77,11.69c-0.54,0.78-0.93,1.66-1.5,2.42c-1.2,1.59-2.75,2.54-4.82,2.64c-7.25,0.34-14.15-1.19-20.91-3.69
		c-2.82-1.04-5.17-2.78-7.6-4.45c-2.56-1.76-5.21-3.39-7.76-5.17c-2.19-1.52-4.26-3.21-6.43-4.76c-3.17-2.27-6.45-4.4-9.55-6.76
		c-2.43-1.85-4.66-3.96-6.98-5.95c-1.2-1.03-2.58-1.93-3.57-3.14c-1.69-2.07-3.14-4.34-4.68-6.53c-0.84-1.19-1.61-2.43-2.51-3.58
		c-2.52-3.23-5.78-5.92-7.35-9.87c-0.74-1.86-2.12-1.39-3.32-0.1c-0.49,0.53-0.72,0.7-1.44,0.43c-0.95-0.36-2-0.57-3.02-0.59
		c-0.57-0.01-1.53,0.37-1.65,0.77c-0.18,0.6,0.09,1.44,0.39,2.07c0.31,0.64,0.9,1.15,1.37,1.71c-0.04,0.14-0.08,0.27-0.12,0.41
		c-0.87,0.15-1.73,0.38-2.61,0.43c-1.55,0.07-1.61,0.02-1.57,1.6c0.02,0.9,0.27,1.79,0.44,2.69c0.07,0.37,0.2,0.74,0.25,0.95
		c-2.34,0.28-4.58,0.5-6.8,0.87c-0.5,0.09-0.92,0.73-1.37,1.12c0-6.24,0-12.47,0-18.71C127.16,51.6,202.36,51.6,277.56,51.6z"/>
	<path class="st1" d="M143.63,116.65c2.34,0.23,4.68,0.6,7.03,0.66c1.64,0.04,3.3-0.25,4.93-0.54c1.14-0.2,2.1-0.14,3.19,0.41
		c4.29,2.14,8.81,3.77,13.52,4.58c2.39,0.41,4.96,0.14,7.39-0.19c3.19-0.43,6.33-1.19,9.48-1.89c1.04-0.23,2.02-0.71,3.03-1.08
		c0.73-0.26,1.21-0.11,1.42,0.72c0.66,2.58,1.21,5.19,2.07,7.7c1.09,3.18,2.42,6.27,3.68,9.38c0.73,1.8,1.43,3.61,2.3,5.33
		c1.17,2.3,2.43,4.56,3.79,6.75c2.31,3.71,4.67,7.4,6.21,11.52c0.21,0.56-0.06,1.4-0.32,2.03c-1.17,2.87-2.43,5.69-3.62,8.55
		c-1.06,2.53-2.09,5.07-3.12,7.61c-0.29,0.71-0.78,0.92-1.5,0.76c-5.77-1.32-11.63-1.24-17.5-1.22c-3.62,0.01-7.26-0.46-10.87-0.31
		c-4.71,0.19-9-1.46-13.41-2.58c-3.74-0.95-7.4-2.18-11.14-3.11c-2.23-0.56-4.6-0.57-6.8-1.19c-5.43-1.54-11.05-2.43-16.25-4.75
		c-1.23-0.55-2.55-0.9-3.8-1.42c-1.34-0.56-1.36-0.9-1.01-2.29c0.77-3.03,1.68-6.06,2.05-9.14c0.31-2.61,0.02-5.31-1.06-7.84
		c-0.16-0.36-0.07-0.94,0.11-1.32c1.66-3.56,3.92-6.71,6.49-9.7c1.77-2.07,2.99-4.59,4.59-6.82c1.57-2.2,3.31-4.27,4.95-6.42
		c0.85-1.11,1.59-2.29,2.48-3.36c0.38-0.47,1-0.74,1.51-1.11C143.52,116.46,143.58,116.55,143.63,116.65z"/>
	<path class="st1" d="M215.76,150.87c-1.98-2.38-3.76-4.42-5.43-6.53c-2.11-2.66-3.92-5.53-5.04-8.76
		c-1.13-3.26-2.18-6.54-3.18-9.84c-0.86-2.84-1.61-5.72-2.4-8.58c-0.08-0.3-0.11-0.61-0.16-0.89c6.77-2.87,12.94-6.67,19.21-10.31
		c3.51-2.04,6.57-4.6,9.64-7.23c3.17-2.72,6.6-5.15,9.87-7.76c3.81-3.03,7.56-6.12,11.36-9.15c3.27-2.6,6.55-5.2,9.89-7.71
		c1.75-1.31,3.74-2.31,5.42-3.7c2.75-2.28,5.35-4.75,8-7.15c1.08-0.98,2.12-2.02,3.21-2.99c0.47-0.42,0.97-0.43,1.19,0.29
		c0.18,0.61,0.42,1.23,0.42,1.85c0.01,0.87,0.46,1,1.14,0.96c0.84-0.05,1.68-0.16,2.51-0.1c0.41,0.03,0.97,0.29,1.14,0.61
		c0.16,0.31,0,0.92-0.23,1.25c-0.63,0.91-1.44,1.7-2.04,2.62c-0.36,0.56-0.72,1.32-0.61,1.91c0.06,0.31,1.09,0.54,1.71,0.63
		c0.83,0.12,1.68,0.01,2.51,0.1c0.3,0.03,0.58,0.34,0.86,0.52c-0.18,0.27-0.32,0.72-0.56,0.8c-2.49,0.77-4.17,2.72-6.19,4.17
		c-2.2,1.58-4.38,3.19-6.58,4.76c-4.21,3-8.16,6.28-11.38,10.35c-1.95,2.46-3.73,5.06-5.68,7.52c-3.62,4.55-7.41,8.98-10.95,13.59
		c-3.37,4.39-6.49,8.97-9.78,13.43c-1.73,2.34-3.49,4.67-5.42,6.85c-3.64,4.12-6.53,8.74-9.24,13.49
		C218.05,147.44,216.98,148.97,215.76,150.87z"/>
	<path class="st1" d="M118.61,138.44c-1.27-1.19-2.48-2.2-3.54-3.35c-1.27-1.37-2.52-2.78-3.61-4.29c-1.33-1.82-2.6-3.7-3.7-5.67
		c-1.23-2.18-2.85-4-4.46-5.89c-2.42-2.85-4.74-5.8-6.87-8.87c-2.3-3.34-4.13-7.01-6.53-10.27c-2.35-3.2-5.05-6.16-7.79-9.04
		c-3.21-3.38-6.59-6.59-9.98-9.79c-1.41-1.33-3.04-2.43-4.57-3.63c-1.56-1.23-3.16-2.41-4.65-3.72c-0.45-0.4-0.6-1.15-1.01-1.98
		c1.03-0.11,1.8-0.2,2.58-0.26c1.07-0.09,1.26-0.49,0.74-1.46c-0.24-0.44-0.35-0.96-0.59-1.63c0.78,0,1.29-0.01,1.79,0
		c0.96,0.02,1.3-0.4,1.31-1.39c0.02-1.36,0.26-2.71,0.45-4.47c0.76,0.63,1.3,0.94,1.68,1.39c2.94,3.57,5.89,7.13,8.75,10.76
		c1.64,2.08,3.11,4.31,4.7,6.44c2.06,2.75,4.86,4.68,7.48,6.84c4.18,3.43,8.21,7.06,12.26,10.65c1.76,1.56,3.61,2.95,5.72,4.04
		c2.29,1.18,4.4,2.74,6.72,3.86c3.51,1.7,7.09,3.25,10.72,4.7c2.65,1.06,5.42,1.85,8.13,2.76c0.41,0.14,0.8,0.3,1.35,0.5
		c-3.08,3.86-6.22,7.5-9.01,11.38C123.88,129.95,121.44,134.07,118.61,138.44z"/>
	<path class="st1" d="M217.85,240.39c-0.25-3.3-0.47-6.6-0.75-9.89c-0.16-1.93-0.39-3.86-0.63-5.78c-0.23-1.86-0.12-1.99,1.55-2.6
		c7.03-2.6,14.38-4.08,21.59-6.03c4.38-1.19,8.86-2.01,13.3-2.95c0.85-0.18,1.74-0.19,2.62-0.21c0.8-0.02,1.36,0.29,1.86,1.04
		c1.22,1.86,2.75,3.44,4.49,4.9c2.12,1.78,3.89,3.98,5.76,6.04c0.99,1.09,1.93,2.23,2.76,3.43c0.31,0.45,0.27,1.14,0.39,1.72
		c-0.54,0.08-1.18,0.39-1.61,0.21c-2.57-1.07-5.13-2.19-7.62-3.43c-3.62-1.79-6.99-1.18-10.12,1.01c-3.9,2.73-8.05,4.92-12.5,6.62
		c-2.11,0.8-4.08,1.98-6.06,3.09c-4.26,2.38-8.79,4.06-13.44,5.45c-1.38,0.41-1.6,0.18-1.62-1.28c-0.01-0.44,0-0.88,0-1.32
		C217.81,240.39,217.83,240.39,217.85,240.39z"/>
	<path class="st1" d="M79.43,348.35c1.16-2.92,3.23-4.7,5.16-6.59c1.28-1.25,2.66-2.43,3.79-3.81c1.03-1.26,1.67-2.74,1.34-4.52
		c-0.72-3.86-1.41-7.73-1.95-11.61c-0.34-2.4-0.39-4.84-0.55-7.27c-0.2-3.08-1.1-6-2.01-8.92c-0.91-2.92-1.73-5.87-2.53-8.82
		c-0.66-2.45-1.26-4.91-1.84-7.38c-0.16-0.66,0.17-1.13,0.91-1.04c1.76,0.22,3.55,0.39,5.28,0.76c3.35,0.72,6.68,1.53,10.16,1.36
		c0.47-0.02,0.95,0.12,1.43,0.16c1.03,0.07,1.38,0.76,1.36,1.63c-0.13,4.66-0.27,9.32-0.45,13.98c-0.16,4.1-0.39,8.2-0.54,12.3
		c-0.13,3.74-0.11,7.49-0.29,11.24c-0.11,2.13-0.53,4.25-0.74,6.38c-0.12,1.25-0.01,2.54-0.18,3.78c-0.07,0.52-0.48,1.19-0.92,1.44
		c-3.49,1.99-6.97,4.03-10.58,5.78c-1.58,0.76-3.45,0.92-5.21,1.28C80.61,348.57,80.09,348.41,79.43,348.35z"/>
	<path class="st1" d="M181.06,115.82c-7.13,0.64-13.71-0.87-20.33-2.03c2.19-5.91,4.3-11.58,6.49-17.49
		c2.49,0.18,5.18,0.37,7.59,0.54C176.92,103.23,178.96,109.45,181.06,115.82z"/>
</g>
</svg>
