<?xml version="1.0" encoding="utf-8"?>
<!-- Generator: Adobe Illustrator 26.0.3, SVG Export Plug-In . SVG Version: 6.00 Build 0)  -->
<svg version="1.1" id="Chosen_xA0_Bild_1_" xmlns="http://www.w3.org/2000/svg" xmlns:xlink="http://www.w3.org/1999/xlink" x="0px"
	 y="0px" viewBox="0 0 1002.5 197.7" style="enable-background:new 0 0 1002.5 197.7;" xml:space="preserve">
<style type="text/css">
	.st0{fill:none;}
</style>
<path d="M327.7,12.4c2.1,1.2,2.7,3.2,3.1,5.4c0.2,1-0.8,2.1-1.7,2.5c-0.6,0.2-1.2,0.8-1.8,1.1c-0.8,0.4-1.5,0.9-2.4,1.1
	c-3.4,0.6-6.9,1-10.3,1.5c-2.6,0.4-5.1,0.8-7.7,1.2c-0.5,0.1-1,0-1.5,0c-0.6,3.5-1.2,6.8-1.8,10.4c1.4-0.2,2.7-0.4,4-0.6
	c2.8-0.4,5.6-0.9,8.4-1.3c1.4-0.2,2.6,0.7,3.1,2c0.2,0.6,0.4,1.1,0.6,1.7c0.6,1.5-0.2,2.8-1.8,3.2c-0.5,0.1-0.8,0.6-1.3,0.8
	c-1,0.5-2.1,1.1-3.2,1.2c-3.5,0.5-7,0.8-10.5,1.3c-0.3,0-0.8,0.4-0.9,0.7c-0.4,3.1-1.7,6-2.8,8.9c-0.5,1.3-0.8,2.6-1.3,4.3
	c2.5-0.3,4.7-0.5,6.8-0.8c3.5-0.5,7-1.1,10.5-1.6c1.5-0.2,3-0.6,4.5-0.7c1.5-0.1,2.6,0.7,3.1,2.2c0.2,0.5,0.4,1.1,0.6,1.6
	c0.7,1.8,0,3.2-1.9,3.7c-0.5,0.1-0.8,0.6-1.3,0.8c-0.9,0.5-1.9,1.1-2.9,1.3c-3.2,0.6-6.4,1-9.6,1.5c-2.8,0.4-5.6,1.1-8.4,1.3
	c-3.2,0.2-6.4-0.1-9.7-0.2c-0.3,0-0.8-0.5-0.9-0.9c-0.4-1.4-0.9-2.8-0.9-4.3c0-1.6,0.2-3.4,0.7-4.9c1.3-4,2.9-7.9,4.1-11.9
	c0.9-3,1.3-6.1,2.1-9.1c0.9-3.6,2-7.1,3-10.7c0.2-0.6,0.4-1.1,0.4-1.7c0.1-2.9,1.8-4.4,4.4-5.1c4.2-1.1,8.4-2.3,12.7-3.3
	c2.9-0.7,5.7-1.4,8.6-2c0.7-0.2,1.5-0.1,2.3-0.2c0.5,0,0.9-0.2,1.4-0.2C327.5,12.4,327.6,12.4,327.7,12.4z"/>
<path d="M566.1,137.8c-0.7,0.9-1.7,1.4-2.9,1.7c-0.5,0.1-0.8,1-1.3,1.2c-1.6,0.8-3.2,0.9-5,0.8c-2.2-0.2-4.5,0-6.8,0
	c-1,3.4-1.9,6.8-3,10.2c-0.3,0.9-0.6,1.9-2,2c-0.5,0-0.9,0.5-1.3,0.8c-0.5,0.3-0.9,0.7-1.5,1c-0.4,0.2-0.8,0.2-1.3,0.3
	c-2.3,0.3-2.3,0.3-2.6-2c0,0,0-0.1,0-0.1c-1.5-3.7,0.3-6.8,1.5-10.1c0.2-0.5,0.4-1,0.6-1.5c0.1-0.1,0-0.3,0-0.7
	c-0.7-0.1-1.5,0-2.2-0.2c-1.7-0.3-3.4-0.7-5-1.2c-0.5-0.2-0.9-1-1.2-1.6c-0.3-0.8-0.5-1.6-0.6-2.4c0-0.6,0.2-1.3,0.4-1.9
	c1-2.1,2.9-2.4,5-2.3c2,0.1,4,0,6.1,0c0.2-0.7,0.4-1.5,0.6-2.2c0.6-1.8,1.2-3.6,2-5.3c1-2.1,1.7-2.7,4.2-2.5c1,0.1,2.2,1.9,2.1,3.3
	c-0.1,1.9-0.4,3.8-0.6,5.7c0,0.3-0.1,0.6-0.1,1c2.8,0,5.4,0,8.1,0c1.2,0,2.3-0.1,3.5-0.1c0.7,0,2,1.4,2.3,2.5
	c0.2,0.6,0.5,1.1,0.7,1.7C566.1,136.4,566.1,137.1,566.1,137.8z"/>
<path d="M448.6,145.3c2.9-0.5,5.7-1,8.5-1.5c0.3-0.1,0.7-0.5,0.7-0.8c0.2-1.7,0.3-3.5,0.5-5.2c0.4-4.7,1.2-9.3,2.5-13.8
	c0.3-1.1,0.5-2.2,0.6-3.3c0.3-3.2,2.1-5.7,4.1-8c0.7-0.8,2.1-1.1,3.3-1.4c2.8-0.7,4.1,1.2,5.4,3.1c3.9,5.5,6.9,11.4,9.5,17.6
	c1.4,3.5,2.8,7,4.2,10.5c0-1.5,0-3.1,0-4.7c-0.2-5.5,0.4-11,2.1-16.2c0.8-2.4,1.8-4.8,2.8-7.2c0.5-1.2,1.1-2.4,1.9-3.5
	c0.5-0.6,1.4-1.1,2.2-1.3c1-0.3,2.2-0.4,3.2-0.2c0.8,0.2,1.3,1.2,1.9,1.8c0.2,0.2,0.2,0.5,0.3,0.8c2.1,3.5-0.2,6.5-1.4,9.5
	c-1.1,2.9-2,5.8-2.2,8.9c-0.3,4.2-0.1,8.5-0.3,12.7c-0.1,2.6-0.5,5.1-1.1,7.6c-0.7,2.7-2.4,5.1-4.8,6.5c-2.1,1.2-4,3.1-6.8,3.2
	c-1.3,0.1-2.4,0.2-3.4-1.2c-1.4-2.1-2-4.5-2.6-6.8c-0.7-2.5-1.2-5-2-7.4c-0.6-1.9-1.7-3.7-2.2-5.6c-1.2-4.7-4-8.7-5.9-13.1
	c-0.1,0-0.2,0-0.3,0c-0.6,2.4-1.2,4.8-1.7,7.2c-0.9,5.2-1.1,10.4-2.3,15.6c-0.6,2.4-0.6,4.9-0.8,7.3c-0.1,0.8-0.2,1.6-0.4,2.3
	c-0.6,1.6-3,3.2-4.8,3c-0.5-0.1-1.1-0.6-1.2-1.1c-0.5-1.8-0.8-3.6-1.2-5.3c-2.8,0.6-5.7,1.2-8.6,1.8c-0.1,1.8-0.1,3.6-0.4,5.3
	c-0.6,3.8-1.5,7.5-3.6,10.9c-2.2,3.5-4.4,6.9-6.7,10.3c-3.1,4.4-7.6,6.8-12.7,7.9c-5,1.1-9.1-1-12.2-4.7c-1.1-1.3-1.6-3.3-2-5.1
	c-0.8-2.8-1.1-5.6-1.2-8.6c-0.2-5,2.2-8.4,5.6-11.4c4.3-3.8,9.6-5.9,14.9-8.1c2.9-1.2,5.9-2.5,8.8-3.8c0.3-0.1,0.7-0.5,0.8-0.8
	c0.1-2.3,0-4.6,0-7c-0.9,0.5-1.9,1.1-2.9,1.5c-4.1,1.9-8.4,2.3-12.7,0.8c-2-0.7-3.8-2-4.4-4.3c-0.9-3.4-1.3-6.9-0.3-10.3
	c0.5-1.8,1.8-3.4,3-5c3.4-4.4,8.1-6.7,13.1-8.7c3.2-1.2,6.3-2.3,9.8-2.1c1.6,0.1,3.3,0,4.9,0.3c0.8,0.2,1.7,1.2,2,2.1
	c1.8,4.7,0.7,9.2-1.3,13.7c-0.5,1.2-0.8,2.5-1,3.9c-0.4,2.6-0.8,5.2-1.1,7.8C448.4,142.9,448.6,144.1,448.6,145.3z M439.7,159.4
	c-0.4,0.1-0.6,0.1-0.7,0.1c-3.1,1.3-6.1,2.7-9.2,3.9c-3.6,1.4-6.9,3.1-9.5,6.1c-0.4,0.5-0.8,1.3-0.8,2c-0.1,1.3-0.1,2.6,0,3.8
	c0.1,1.7,0.4,3.3,2.3,4.1c1,0.4,2,1.1,3,1.6c2.3,1.1,3.6,1,5.2-1.1c2.2-2.9,4.2-5.9,6.1-8.9C438.3,167.5,439.2,163.6,439.7,159.4z
	 M443.8,119.7c-0.1-0.1-0.2-0.2-0.3-0.3c-2.7,1.2-5.5,2.3-8.1,3.7c-2.8,1.5-5.2,3.6-7.3,6.1c-1.3,1.6-1.2,3.6-1.1,5.5
	c0,0.5,0.3,1.2,0.7,1.4c2.1,1.3,4.4,1.5,6.8,0.4c2.7-1.3,4.5-3.6,6.3-5.8c0.4-0.5,0.8-1.1,1-1.7c0.6-2.2,1.1-4.4,1.6-6.6
	C443.6,121.5,443.6,120.6,443.8,119.7z"/>
<path d="M29.4,151.1c-1.7,1-3.4,1.8-4.9,2.9c-2.3,1.6-5,2.2-7.7,2c-4.4-0.4-7.8-2.7-10.4-6.2c-0.2-0.2-0.3-0.6-0.3-0.9
	c-1.6-6.5-1.3-12.8,2-18.8c1-1.8,2-3.7,3.2-5.4c4.1-6.3,10-10.2,17.2-11.9c2.7-0.6,5.5-0.6,8.2,0.3c0.2,0.1,0.6,0,0.9-0.1
	c2.8-0.9,4.2-0.2,5.3,2.5c0.8,2.1,0.6,4.1,0.4,6.2c-0.3,3-0.8,6-1,8.9c-0.6,7.1-1.2,14.2-3.5,21c-0.3,0.9-0.5,1.8-0.7,2.9
	c2-0.9,3.7-1.8,5.5-2.6c3.4-1.5,6.8-3,10.2-4.3c1.4-0.5,1.8-1.3,2.1-2.5c0.9-4.4,2.2-8.7,2.7-13.1c0.6-4.9,1.9-9.6,3.2-14.3
	c0.4-1.6,1.6-3.2,3.7-2.9c1.1,0.1,2-0.3,3.1-0.6c2.2-0.7,4.4-1.1,6.7-1.5c1.1-0.2,2.3-0.2,3.5-0.2c4.6-0.2,9.2,2.9,9.1,8.4
	c0,1.3,0.4,2.6,0,3.8c-0.5,1.5-1.5,2.9-2.4,4.3c-0.9,1.4-1.9,2.7-3,3.9c-0.6,0.7-1.4,1.2-2.3,1.7c-2,1.1-4,2-6.1,3
	c1,2.6,2.3,5.2,3.9,7.7c2,3.2,3.7,6.6,5.6,9.9c0.9,1.7,1.9,3.3,2.8,5.1c0.6,1.2,1,2.5,1.5,3.7c0.5,1.5-0.4,2.8-2,3.3
	c-0.5,0.1-0.9,0.6-1.4,0.9c-0.2,0.2-0.4,0.5-0.7,0.6c-0.5,0.2-1,0.5-1.5,0.6c-2.9,0.7-2.8,0.6-4.2-2c-2.7-5.1-5.6-10.1-8.4-15.1
	c-1-1.9-1.8-3.8-2.8-5.8c-0.4-0.9-0.8-1.8-1.5-2.7c-0.5,2.4-1,4.7-1.5,7.1c-0.9,3.7-1.9,7.4-2.9,11.1c-0.3,1.2-0.4,2.5-0.6,3.7
	c-0.2,1-0.7,1.8-1.8,2.1c-0.6,0.2-1.2,0.5-1.6,1c-0.8,0.8-4,1.8-4.9,1.2c-0.4-0.2-0.6-1-0.8-1.6c-0.3-0.9-0.4-1.8-0.6-2.6
	c-0.1-0.6-0.1-1.2,0.1-1.7c0.5-2.2,1-4.3,1.6-6.7c-1.1,0.5-2.2,0.9-3.2,1.3c-4.2,1.9-8.5,3.9-12.7,5.8c-0.3,0.1-0.5,0.5-0.6,0.9
	c-1.2,3.9-2.2,7.8-3.4,11.7c-1.1,3.3-3.9,5-6.7,6.6c-0.2,0.1-0.5,0.2-0.8,0.3c-2.4,1.9-5.2,2.2-8.1,2c-0.9-0.1-1.9-0.6-2.6-1.3
	c-1.2-1.2-2.4-2.6-3.3-4c-0.6-0.9-0.8-2.1-1.1-3.2c-0.4-1.8-0.6-3.7-0.9-5.5c-0.4-3.6,1.7-6.1,4.2-8.1c2.7-2.2,6-3,9.2-3.9
	c1.6-0.4,3.1-0.9,4.6-1.5c0.4-0.2,0.9-0.6,1-1.1C28.6,155.3,28.9,153.2,29.4,151.1z M34.1,119.9c-1.1,0.1-1.7,0.1-2.4,0.2
	c-1.2,0.1-2.5,0-3.5,0.5c-2,1-4,2-5.7,3.4c-2.8,2.3-4.6,5.4-6.2,8.7c-1.4,3.1-2.5,6.2-2.4,9.7c0,0.9,0.3,1.6,1,2
	c1.3,0.8,2.7,1.6,4.1,2.3c0.8,0.4,1.6,0.4,2.4-0.3c0.8-0.7,1.7-1.3,2.5-2c3.1-2.5,5.6-5.4,6.5-9.5C31.7,129.9,32.9,125,34.1,119.9z
	 M67.4,129.7c1.9,0,3.4,0.1,4.9,0c1.5-0.2,3-0.5,4-1.7c1-1.2,1.9-2.5,2.9-3.8c0.7-1,0.4-2.3-0.7-3c-2.1-1.5-4.6-1.3-7-1.5
	c-2.4-0.1-2.5-0.1-2.9,2.2C68.1,124.4,67.8,126.9,67.4,129.7z M26.1,167.8c-2.3,0.7-4.2,1.1-6,1.8c-1.6,0.5-1.8,1.2-1.8,2.4
	c-0.1,1.5,0.5,2.5,1.5,3.6c1.3,1.4,2.9,1.4,3.7-0.3C24.5,172.9,25.2,170.5,26.1,167.8z"/>
<path d="M980,139.8c0.6-3.2,1.1-6.4,1.6-9.5c0.9-5.4,1.5-10.9,1.5-16.4c0-1.6,0.3-3.2,0.5-4.9c0-0.3,0.4-0.6,0.6-1
	c0.2-0.3,0.4-0.5,0.6-0.7c0.6-1.4,1.7-2.2,3.2-2.3c0.7,0,1.4-0.1,2.1-0.2c0.7-0.1,2.2,1.3,2.5,2.4c0.6,1.8,1.1,3.5,0.8,5.4
	c-0.3,2.1,0.1,4.2-0.1,6.3c-0.3,3.7-0.8,7.4-1.3,11.1c-0.5,3.3-1.1,6.6-1.5,9.9c-0.4,3.2-0.4,6.5-2,9.3c-1.6,2.8-3.1,5.8-5.4,7.9
	c-2.1,1.9-4.8,3.7-8.1,3.5c-0.9-0.1-1.4-0.2-1.6-1.2c-0.6-3.7-1.3-7.5-1.9-11.2c-0.6-3.6-1.4-7.2-3-10.5c-2.2-4.6-3.5-9.6-5-14.5
	c-0.5-1.7-1.3-3.3-2-5c-1.8,2.2-2.1,4.6-2.3,7.1c-0.6,6.2-0.6,12.5-2.4,18.6c-1.1,3.7-1.9,7.5-2.9,11.2c-0.1,0.4-0.4,0.9-0.7,1.1
	c-1.5,0.7-3.1,1.3-4.6,1.8c-0.8,0.3-0.9-0.4-1.2-1.1c-1.1-3.7,0.5-7.2,1.1-10.7c1-5.5,2.1-11,2.1-16.7c0-3.2,0.3-6.4,1-9.5
	c0.5-2.2,2-4.3,3.1-6.4c1.1-2,2.8-3.2,4.8-4.2c1.9-0.9,4-1.1,5.9-0.8c1,0.2,2.1,1.2,2.6,2.2c1.4,2.7,2.5,5.5,3.7,8.3
	c1.7,3.9,3.4,7.7,5,11.6c0.9,2.3,1.6,4.6,2.4,6.9C979.6,138.5,979.8,139.2,980,139.8z"/>
<path d="M201.7,28.5c0,2.2,0,4.4,0,6.6c-0.1,3,0.1,6-0.3,9c-0.4,2.9-1.2,5.7-2.1,8.5c-1.6,4.7-3.5,9.4-5.4,14.1
	c-0.2,0.5-0.9,0.9-1.4,1.2c-0.7,0.4-1.5,0.9-2.3,1.1c-1.4,0.4-1.6,0.1-1.9-1.3c-0.9-3.5-0.3-6.9,0.5-10.2c0.8-3.2,1.9-6.3,2.9-9.4
	c0.8-2.7,1.1-5.5,1-8.4c-0.1-3.4-0.2-6.9,0-10.3c0.1-2.3,0.5-4.7,1.3-6.8c0.8-2.1,1.8-4.4,4.3-5c3.1-0.7,6-0.3,8.6,1.9
	c2.3,2.1,3.9,4.6,5.4,7.2c1.3,2.3,2.7,4.5,4.1,6.8c1.8,2.9,2.7,6.1,3.2,9.5c0.1,1,0.4,2,0.6,3c0.1,0,0.3,0,0.4,0
	c0.7-2.6,1.4-5.3,2-7.9c0.9-3.6,1.3-7.4,3.1-10.8c0.7-1.2,1.4-2.4,2.1-3.6c0.6-1.1,1.1-2.3,1.9-3.2c0.8-0.8,1.9-1.1,2.9-1.6
	c0.4-0.2,0.9,0,1.4,0c1.4,0,2.6,0.8,3.1,2.1c0,0.1,0,0.2,0,0.2c1.7,2.7,0.6,4.9-1.1,7.1c-2,2.6-2.6,5.9-3.3,9
	c-0.9,4.3-1.7,8.6-3.7,12.5c-1.5,2.8-2.7,5.8-4,8.7c-1.2,2.8-3.1,5.2-5.1,7.4c0,0-0.1,0.1-0.1,0.1c-2.3,0.8-4.1,2.9-6.8,2.9
	c-0.9,0-1.2-0.4-1.4-1.2c-1.5-5.8-0.5-11.7-0.8-17.5c-0.2-3-0.5-6.2-1.7-9c-1.5-3.8-3.9-7.3-5.9-11c-0.4-0.7-0.9-1.3-1.4-2
	C201.9,28.4,201.8,28.5,201.7,28.5z"/>
<path d="M270.8,43.1c0.2-1.1,0.3-2.1,0.4-3.1c0.5-3.9,1.1-7.8,2.4-11.6c0.7-2,0.9-4.1,1.5-6.1c0.6-1.8,1.4-3.8,3.4-4.5
	c1.1-0.4,2.5-0.6,3.6-0.3c0.8,0.2,1.4,1.3,2,2.2c1.6,2.5,0.6,5.1-0.1,7.7c-0.7,2.6-1.5,5.1-2.1,7.8c-0.6,3.2-0.8,6.4-1.5,9.6
	c-0.7,3.1-1.7,6.1-2.5,9.2c-0.7,2.5-1.6,5-3.3,7c-1,1.2-1.9,2.7-3.7,3c-0.2,0-0.4,0.3-0.6,0.5c-1.5,1.3-3.3,1.7-5.2,1.6
	c-0.4,0-0.9-0.4-1.1-0.7c-0.5-1.1-0.9-2.3-1.2-3.4c-1.2-4.1-1.2-8.3-1.2-12.4c0-3.8-0.7-7.4-1.7-11c-0.9-3.2-1.3-6.4-1.9-9.7
	c-0.2-1.2-0.5-2.3-0.8-3.4c-0.1,0-0.2,0-0.3-0.1c-0.2,0.5-0.4,0.9-0.6,1.4c-2.8,7-5.8,13.9-8.4,20.9c-1.7,4.5-2.8,9.1-4.2,13.7
	c-0.5,1.6-0.8,3.3-1.4,4.9c-0.6,1.5-3.2,2.9-4.7,2.6c-0.4-0.1-0.8-0.6-1-1c-0.4-1.1-0.6-2.3-0.8-3.5c-0.5-3,0.5-5.8,1.1-8.7
	c2-9.2,5.7-17.8,9.2-26.4c0.7-1.6,1.3-3.2,2-4.8c1.2-3.1,3-5.8,5.1-8.2c0.7-0.8,2-1.2,3.1-1.5c3.1-0.7,5.5,0.5,7.1,3.1
	c0.9,1.4,1.6,2.9,2.1,4.5c0.9,3.3,1.4,6.7,2.2,10c0.4,1.7,1,3.3,1.4,5C269.7,39.1,270.2,41,270.8,43.1z"/>
<path d="M788.8,131.6c2.6,4.9,5.1,9.7,7.7,14.6c1.7,3.2,3.5,6.3,5.1,9.5c1,1.9,1.7,4,2.5,6c0.5,1.5-0.5,2.9-2,3.3
	c-0.6,0.2-1,0.8-1.5,1c-1,0.5-2.1,1.2-3.2,1.3c-2.5,0.3-2.1,0.5-3-1.8c-1-2.4-2.4-4.6-3.6-6.8c-0.7-1.4-1.4-2.7-2.2-4.1
	c-2.2-4.3-4.4-8.6-6.7-12.8c-1.1-2-2.6-3.9-4.2-5.8c-0.2,1.3-0.4,2.7-0.6,4c-0.4,3.4-0.8,6.7-1.2,10.1c-0.2,1.7,0,3.4-0.3,5.1
	c-0.4,2.4-1,4.7-1.6,7c-0.3,1-3.2,2.4-4.1,2c-0.5-0.2-1-0.8-1.1-1.4c-1.6-5.4-1.7-10.9-1.2-16.5c0.3-3.2,0.5-6.4,0.9-9.5
	c0.4-2.6,0.9-5.1,1.6-7.7c0.9-3.6,1.8-7.2,3-10.7c0.7-2,2-3.9,3.1-5.7c2.1-3.4,5.5-4.4,9.2-4.9c3-0.4,5.9,0,8.8,0.7
	c2.3,0.6,3.7,2,4.7,3.9c1.6,2.9,2,6.1,1.6,9.3c-0.1,1-0.8,2.1-1.5,2.9C796,127.9,792.4,130.1,788.8,131.6z M780.5,124.1
	c1.8-0.4,3.3-0.7,4.7-1c1.8-0.4,3.6-0.6,5-2.1c1.2-1.3,1.2-2.3-0.5-2.9c-1.5-0.6-3.1-0.9-4.7-1.3c-1.1-0.3-1.7,0.2-2.1,1.2
	C782.3,120,781.4,121.9,780.5,124.1z"/>
<path d="M385.8,38c0.9,1.1,1.7,2.3,2.7,3.3c2.6,2.8,5.3,5.6,7.7,8.5c1.5,1.9,2.7,4.1,3.9,6.2c0.9,1.6,1.6,3.3,2.3,4.9
	c0.7,1.6,0,2.9-1.7,3.3c-0.3,0.1-0.8,0.2-0.9,0.4c-1.1,1.7-2.9,1.4-4.5,1.7c-0.3,0.1-0.8-0.3-1-0.6c-0.4-0.5-0.7-1-0.9-1.5
	c-1.2-3.7-3.7-6.5-6.2-9.3c-4-4.6-7.8-9.2-11.8-13.9c-0.1-0.1-0.2-0.3-0.4-0.5c-0.6,2.3-1.1,4.6-1.8,6.8c-1.5,4.5-3,9.1-4.7,13.5
	c-0.5,1.5-1.4,2.9-2.5,4c-1,1.1-2.5,1.6-4,1.7c-0.3,0-0.7-0.4-0.8-0.6c-0.3-1.7-0.8-3.3-0.2-5.1c1.5-5,2.8-10,4-15.1
	c1-4.5,1.7-9,2.6-13.5c0.9-4.5,2.1-8.9,4.2-12.9c0.9-1.7,1.9-3.4,3.1-4.9c0.6-0.8,1.6-1.6,2.6-1.9c2.6-0.9,5.3-1.9,8-2.3
	c4.3-0.5,8.6-0.7,12.2,2.6c1.9,1.8,3.1,4,3.2,6.6c0.1,1.7,0,3.4,0,5.2c0,2.3-0.7,4.3-2,6.1c-0.8,1.1-1.9,1.9-3.1,2.6
	c-3,1.8-6.2,3.4-9.6,4.4C386.2,37.7,386.1,37.8,385.8,38z M377,30.2c4.8,0.8,9.2-0.3,13.3-2.6c0.7-0.4,1.5-1.2,1.6-1.9
	c0.3-1.5,0.3-3.1,0.4-4.6c0-0.3-0.3-0.6-0.6-0.8c-3.2-2.6-6.8-2.4-10.4-1c-0.2,0.1-0.3,0.2-0.4,0.4C379.3,23.1,377.8,26.5,377,30.2z
	"/>
<path d="M340.8,131.9c0.6,3.2-1.2,6.1-3,8.9c-2.9,4.5-6,8.9-9,13.3c-1.7,2.5-3.3,5-5.1,7.3c-0.8,1.1-1.9,2.1-2.8,3.1
	c-2.3,2.4-4.5,5-7,7.2c-2.2,1.9-4.7,3.7-7.9,3.9c-1,0-1.2-0.3-1.4-1.2c-0.2-1-0.5-2.1-0.6-3.1c-0.1-0.6-0.1-1.4,0.2-1.8
	c0.9-1.1,0.5-2.3,0.1-3.3c-0.4-1.1-0.3-2.1-0.1-3.1c1.1-4.4,2.3-8.8,3.4-13.2c0.3-1.2,0.1-2.5,0.3-3.8c0.3-2.4,0.8-4.9,1.1-7.3
	c0.3-2.8,0.7-5.5,0.9-8.3c0.3-3.9,0.3-7.9,0.5-11.8c0.1-1.3-0.1-2.7,1-3.6c0.4-0.4,0.9-0.9,1.4-0.8c2.4,0.3,4.4-1,6.6-1.3
	c2.9-0.4,5.7-0.8,8.6-0.2c2.6,0.6,4.8,2.1,6.8,3.7C339.1,119.8,340.9,125.8,340.8,131.9z M315.2,158c0.5-0.5,1.3-1.2,1.9-2
	c4.4-6.5,8.7-13,13.1-19.5c1.8-2.6,1.4-5.5,1.3-8.4c0-0.6-0.4-1.2-0.8-1.7c-1.7-2.3-3.9-4-6.4-5.3c-2-1.1-4.1-1.2-6.5-1
	C319.1,133,317.9,145.6,315.2,158z"/>
<path d="M907,143.9c-0.6-4.4,1.1-8.3,2.1-12.3c1.5-6.2,3.8-12.1,7.4-17.5c1.6-2.3,3.3-4.4,5.9-5.7c0.2-0.1,0.5-0.3,0.6-0.6
	c0.5-1.8,2-2.1,3.5-2.3c0.8-0.1,1.5-0.2,2.3-0.1c0.7,0.1,1.4,0.3,1.9,0.8c1.8,1.7,3.3,3.6,4.3,5.9c1.3,2.9,3,5.6,4.4,8.4
	c1.5,2.8,2.7,5.7,2.6,9c-0.2,3,0.2,6.1-0.4,9.1c-0.6,3.2-1.7,6.2-2.9,9.2c-0.8,1.9-2,3.7-3.2,5.4c-2.7,3.7-6.7,5.5-10.7,7
	c-2.3,0.8-5,0.7-7.5,0.5c-1.4-0.1-2.7-1.2-3.9-2.1c-1.5-1.2-3-2.6-4.3-4c-0.7-0.7-1.1-1.7-1.4-2.7C907,149.3,906.4,146.6,907,143.9z
	 M923.7,116.7c-1.3,3-2.8,5.9-3.9,9c-1,2.7-1.5,5.6-2.2,8.5c-0.9,3.5-1.9,7-1.6,10.7c0.1,1.3,0.4,2.2,1.3,3c1,0.8,1.8,1.7,2.9,2.3
	c1.1,0.7,2.4,1.5,3.7,1c1.8-0.8,3.4-1.9,4.4-3.6c3.4-5.5,4.2-11.5,3.8-17.7c0-0.5-0.2-0.9-0.5-1.3c-1.1-1.9-2.2-3.9-3.3-5.8
	C927.1,120.6,926.4,118.1,923.7,116.7z"/>
<path d="M118.4,40.8c1,0.6,2.1,1.2,3.1,1.8c3.5,2.3,5.3,5.5,5.3,9.7c0,1.4,0.2,2.9,0,4.2c-0.4,2.3-1.6,4.5-3.6,5.8
	c-3.9,2.6-7.8,5.3-12.4,6.7c-2.1,0.6-4.3,1-6.4,1.6c-0.9,0.3-1.9,0.7-2.7,1.2c-1,0.7-2.2,1-3.1,0.6c-0.9-0.4-1.4-1.5-1.3-2.6
	c0-0.2,0-0.3,0-0.5c-1.1-4.1,0.1-8,0.6-12.1c0.1-1.1,0.2-2.3,0.1-3.5c-0.2-3.5,0.6-6.8,1.6-10c0.8-2.5,1-5.3,1.8-7.8
	c1.1-3.6,1.3-7.3,1.7-11c0.2-1.8,2.1-3.4,3.9-3.5c5.9-0.1,11.8-0.2,17.7-0.3c2.3,0,4.2,1.5,5.2,3.6c0.8,1.8,0.8,3.7,0.7,5.6
	c-0.1,0.7-0.7,1.5-1.1,2.2c-2.8,3.8-6.6,6.3-10.9,7.9C118.5,40.6,118.5,40.7,118.4,40.8z M107.7,46c-1.2,2.9-1.5,5.4-1.5,8.1
	c-0.1,2.6-0.5,5.3-0.8,8c2.1-0.5,4.1-0.7,6-1.4c1.9-0.7,3.6-1.9,5.4-3c2.5-1.6,2.7-5.1,0.2-6.6C113.9,49.2,110.8,47.7,107.7,46z
	 M111.4,29.4c-0.3,1.8-0.6,3.6-0.9,5.5c4.1-0.8,8.3-1.4,11.3-5.5C118.1,29.4,114.8,29.4,111.4,29.4z"/>
<path d="M188.7,133.7c2.5-0.2,4.8-0.4,7.2-0.7c1.9-0.2,3.8-0.5,5.6-0.8c0.3-0.1,0.8-0.4,0.9-0.7c0.6-2.6,1.3-5.1,1.8-7.7
	c0.4-2,0.5-4.1,0.8-6.1c0.3-1.9,1.9-3.1,3.7-2.9c0.6,0.1,1.3,0.8,1.5,1.3c0.5,1.8,0.9,3.7,1.3,5.5c0.7,3.3-0.5,6.5-1,9.7
	c-0.2,1.3-0.5,2.6-0.6,3.9c-0.1,2.7-1.5,4.9-2.1,7.5c-1.1,4.4-2.2,8.9-3.3,13.3c-0.9,3.9-1.8,7.7-2.7,11.6c-0.2,0.7-0.5,1.5-1.7,1.6
	c-0.5,0-1,0.5-1.4,0.9c-0.6,0.6-3.8,1.6-4.5,1.2c-0.3-0.2-0.5-0.8-0.6-1.2c-0.1-0.6,0-1.2-0.3-1.7c-0.6-1.3-0.4-2.5,0-3.7
	c1.9-7.1,3.8-14.3,5.7-21.4c0.1-0.4,0.2-0.8,0.3-1.3c-4.2,0-8.3,0-12.4,0c-0.9,3.3-1.8,6.7-2.6,10c-0.8,3.2-1.4,6.5-2.5,9.7
	c-0.6,2-1.8,3.8-2.7,5.6c-0.1,0.2-0.2,0.4-0.3,0.5c-2.2,0.5-3.8,2.7-6.3,2.5c-0.7-0.1-1-0.2-1.1-0.9c-0.2-1.1-0.5-2.1-0.7-3.2
	c-0.1-0.6-0.1-1.3,0.2-1.7c2-3,2.6-6.4,3.5-9.8c0.9-3.7,2.1-7.4,3-11.1c1.1-4.2,2.1-8.4,3-12.7c0.4-2,0.4-4,0.6-6.1
	c0.2-2.3,0.4-4.6,0.8-6.9c0.3-1.9,2-3.8,3.8-3.8c1.9,0,2.4,1.1,2.8,2.6c0.7,2.7,0.9,5.4,0.6,8.1c-0.2,1.7,0,3.4-0.1,5.2
	C188.9,131.1,188.8,132.4,188.7,133.7z"/>
<path d="M834.3,142.6c-1.6,0.1-3.3,0.1-5,0.2c-2.7,0.1-5.3,0.4-8,0.4c-0.8,0-1.2,0.2-1.5,0.9c-1.9,5.2-3.8,10.3-5.6,15.5
	c-0.5,1.5-0.8,3.1-1.3,4.7c-0.2,0.8-0.6,1.4-1.7,1.6c-0.9,0.2-1.8,0.9-2.7,1.2c-1.5,0.4-1.8,0.1-2-1.4c-0.1-0.7-0.3-1.4-0.5-2.1
	c-0.6-2.4,0.2-4.7,0.9-6.9c1.8-5.8,3.8-11.6,5.8-17.3c1.7-5.1,3.3-10.2,5.1-15.2c1.5-4.2,3.7-8.2,6.8-11.5c0.6-0.7,1.6-1,2.4-1.4
	c0.9-0.4,1.9-0.5,2.8-1c1.8-1,3.6-1.3,5.6-1.3c0.6,0,1.2,0.5,1.7,0.9c1.8,1.7,2.7,3.9,3.3,6.2c1.1,4.3,2.1,8.7,2.9,13
	c0.3,1.9,0,3.9,0.1,5.9c0.1,2.1,0.5,4.2,0.7,6.4c0.3,3.4,0.5,6.8,0.7,10.2c0.1,1.2,0,2.3,0,3.5c0,1.4-0.9,2.4-2.3,2.7
	c-0.4,0.1-0.8,0.3-1,0.5c-1.2,1.6-3.1,1.5-4.8,1.5c-0.3,0-0.7-1.1-0.8-1.7C834.3,153.2,835.7,147.9,834.3,142.6z M822.8,135.3
	c3.8-0.6,7.3-1.1,10.8-1.6c0.2-5.5-0.6-10.6-2.5-15.7c-0.8,0.6-1.6,1.2-2.1,2c-0.9,1.4-1.7,2.9-2.3,4.4c-1.1,2.8-2,5.7-3,8.5
	C823.5,133.6,823.2,134.3,822.8,135.3z"/>
<path d="M682.7,154.7c1.8-1.7,2.4-3.8,3-5.8c1.6-5.3,3.1-10.7,4.4-16.1c0.6-2.5,0.7-5.2,1.2-7.8c0.6-3.1,1.3-6.3,1.9-9.4
	c0.2-0.8,0.4-1.5,0.7-2.3c0.7-1.5,1.2-3.1,2.2-4.4c0.6-0.8,1.8-1.1,2.8-1.4c0.8-0.2,1.7-0.1,2.5-0.1c0.7,0,1.9,1.5,2.4,2.6
	c1.4,2.7,0.1,5.2-0.5,7.8c-0.7,3-1.3,6.1-1.9,9.1c-0.7,3.6-1.1,7.2-2,10.7c-1.4,5.3-3,10.5-4.8,15.7c-1.1,3.4-3,6.5-5.8,8.6
	c-3.1,2.3-6.5,4.1-10.7,3.2c-2.4-0.5-3.8-2.4-4.3-4.7c-1.2-4.9-0.3-9.8-0.3-14.6c-0.1-4.9,0.2-9.8,0.4-14.7
	c0.1-3.8,0.3-7.6,0.5-11.4c0.1-1.5,0.6-2.9,1-4.4c0.3-1.1,0.8-2.3,1.4-3.3c0.7-1.3,2-1.2,3.2-1c0.6,0.1,1.2,0.8,1.5,1.4
	c0.7,1.1,0.5,2.4,0.4,3.7c-0.1,3,0,5.9,0,8.9c0,0.3,0.1,0.5,0.1,0.8c0.1,3.5,0.2,6.9,0.2,10.4c0.1,5.6,0.2,11.3,0.3,16.9
	C682.4,153.6,682.6,154,682.7,154.7z"/>
<path d="M118.1,149.7c-4-0.2-7.8-0.4-11.8-0.6c-0.4,1.4-0.7,2.8-1.2,4.2c-1.4,4-3,7.9-4.5,11.9c-0.2,0.4-0.4,0.9-0.6,1.3
	c-0.3,0.8-0.6,1.5-1.7,1.5c-0.3,0-0.6,0.2-0.8,0.4c-0.9,1.1-2.2,1.1-3.5,1.1c-0.3,0-0.6-0.4-0.8-0.8c-0.2-0.4,0-0.9-0.2-1.3
	c-0.7-1.4-0.4-2.7,0.1-4c2-5.3,3.5-10.7,4.9-16.2c0.9-3.6,2.5-7.1,3.5-10.7c2.1-7,5.4-13.2,9.7-19.1c1.8-2.5,4.1-4.1,7.4-4.1
	c3,0,3.7,0.5,4.9,3.3c1.1,2.6,1.4,5.3,1.4,8c0,4.1,0.7,8,1.4,12c0.6,3.1,1,6.3,1.2,9.5c0.2,5.1,0.2,10.3,0.3,15.4
	c0,1.6-0.6,2.3-2.1,2.7c-0.4,0.1-0.9,0.5-1.2,0.8c-0.8,0.9-3.9,2-4.9,1.4c-0.4-0.2-0.5-1-0.6-1.5C117.6,160,118.4,154.8,118.1,149.7
	z M117.5,140.5c-0.6-5.4-1.2-10.5-1.7-15.4c-2.6,4.9-5.4,10.1-6.6,16C112,140.9,114.8,140.7,117.5,140.5z"/>
<path d="M79.9,47c-3,0.4-5.7,0.8-8.4,1.2c-1.8,0.3-3.6,0.4-5.4,0.8c-0.5,0.1-1.1,0.6-1.4,1.1c-0.8,1.2-1.6,2.5-2.3,3.7
	c-1.1,1.9-2.3,3.7-3.3,5.7c-1.4,2.9-2.8,5.8-3.5,9.1c-0.3,1.6-1.2,3.1-1.9,4.6c-0.1,0.1-0.2,0.4-0.3,0.4c-2.5,0.4-4.1,3.2-7,2.9
	c-1-0.1-1.4-0.4-1.5-1.3c-0.2-1.2-0.6-2.4-0.7-3.6c-0.1-0.7,0.1-1.6,0.5-2.3c1.6-2.7,3.3-5.4,4.9-8.1c2.1-3.6,4.1-7.2,6.1-10.8
	c3.4-6.2,6.8-12.4,10.2-18.6c1.7-3,3.9-5.6,6.5-7.9c1.3-1.1,2.8-1.5,4.5-1.6c0.2,0,0.4,0,0.6,0c1.4,0.1,3.1-0.2,4.2,0.4
	c1.9,1.1,3.1,3,3.7,5.2c0.4,1.6,0.7,3.3,1,5c0.5,2.5,0.9,5,1.3,7.6c0.7,5.1,2.1,10.1,1.9,15.3c-0.1,2.9,0.5,5.9,0.8,8.8
	c0.2,1.8,0.4,3.5,0.5,5.3c0.1,1.4-0.5,1.9-1.9,2.3c-0.4,0.1-0.9,0.5-1.2,0.8c-0.8,0.9-3.8,1.7-4.8,1.3c-0.2-0.1-0.4-0.5-0.5-0.7
	c-0.6-3.7-1.3-7.4-1.7-11.1c-0.4-3-0.4-6.1-0.6-9.2C80.3,51.2,80.1,49.2,79.9,47z M78.8,40.5c0-0.4,0-0.6,0-0.9
	c-0.3-2.6-0.7-5.1-0.9-7.7c-0.1-1.1-0.6-1.7-1.7-2.4c-1.1,1.6-2.3,3-3.2,4.6c-0.8,1.4-1.2,2.9-1.8,4.4c-0.5,1.1-1.1,2.2-1.8,3.5
	C72.7,41.5,75.7,41,78.8,40.5z"/>
<path d="M478.7,31.2c0,0.9-0.1,1.9,0,2.8c0.3,3-0.6,5.5-2.3,7.8c-1.8,2.4-3.5,5-5.6,7.1c-3.6,3.6-7.7,6.6-12.3,8.9
	c-4.3,2.1-8.5,4.5-12.8,6.6c-1.2,0.6-2.6,0.6-3.9,0.9c-0.2,0-0.7-0.3-0.7-0.4c-0.3-1.6-0.7-3.2-0.7-4.7c0-0.8,0.8-1.5,1.2-2.3
	c0.6-1.3,1.1-2.6,1.5-4c1.8-5.6,3.4-11.3,5.2-16.9c0.6-2,1.6-3.8,2-5.8c0.5-2.4,0.6-4.9,0.8-7.4c0.2-2.2,0.7-4.2,1.9-6
	c0.2-0.3,0.4-0.5,0.7-0.6c2-0.7,3.9-1.6,6-1.8c3.5-0.3,7-1.3,10.5-0.2c5.3,1.7,8.1,5.6,8.5,11.5C478.8,28.1,478.7,29.6,478.7,31.2z
	 M452.7,52c2-1,3.9-1.7,5.5-2.8c3.9-2.7,7.5-5.6,10.1-9.7c1.2-1.8,2.1-3.7,2-5.9c-0.1-2.2,0-4.3,0.1-6.5c0.1-1.3-0.5-2.2-1.5-2.9
	c-2.1-1.5-4.4-2.4-6.9-2.6c-1.2-0.1-2.5-0.1-3.8-0.2c0.1,1.3,0.3,2.5,0.4,3.7c0.1,2.4,0.5,5,0,7.3c-1.2,5.5-2.9,10.8-4.4,16.2
	C453.6,49.6,453.2,50.6,452.7,52z"/>
<path d="M407.9,51.5c-0.2-4.8,0.4-9.6,2.3-14c2.3-5.6,4.4-11.3,8.5-16c0.1-0.1,0.3-0.4,0.3-0.5c-0.9-1.8,0.6-3.1,1.4-4.2
	c0.9-1.4,2.7-1.8,4.3-1.9c1.7-0.1,3.4,0,5-0.1c4.2-0.2,6.9,2.1,8.7,5.5c0.9,1.6,1.5,3.4,2.2,5.1c0.3,0.8,0.4,1.7,0.5,2.5
	c0.1,2.3,0.1,4.6,0,6.8c-0.1,3-0.2,6-0.8,8.9c-0.9,4.8-3.3,9-6.5,12.6c-2.2,2.4-4.9,4-7.7,5.6c-1.9,1.1-3.8,2.3-6.1,2.5
	c-2.7,0.3-5.3,0.6-7.9-0.4c-2.1-0.8-3.3-2.4-3.6-4.5c-0.5-2.6-0.6-5.3-0.9-8C407.7,51.5,407.8,51.5,407.9,51.5z M416.1,50.8
	c0,1-0.1,1.9,0,2.9c0.1,0.7-0.1,1.6,0.8,1.9c2,0.8,3.9,1.2,5.6-0.5c0.5-0.5,1.2-0.9,1.8-1.3c4.7-3,6.6-7.8,7.4-12.9
	c0.5-3.3,0.1-6.8,0.4-10.2c0.2-2.6-1.8-5.6-4.6-6.5c-1.9-0.6-2.4-0.4-3.6,1.2c-2.2,2.9-3.1,6.3-4.5,9.5
	C417.4,40,416,45.2,416.1,50.8z"/>
<path d="M174.1,121.4c0.4,2.8-1.5,4.9-3.3,6.9c-2.9,3-6.7,4.7-10.9,5.3c-3.9,0.5-7.8,0.9-11.6,1.5c-0.3,0-0.7,0.5-0.8,0.8
	c-0.7,3.3-1.5,6.5-2,9.8c-0.8,5.1-2.6,9.9-4.3,14.8c-0.5,1.4-0.5,3-0.9,4.4c-0.4,1.4-3.3,2.9-4.7,2.5c-0.3-0.1-0.6-0.5-0.7-0.8
	c-1-3.3-1.5-6.6-0.3-10c1.5-4.1,2-8.5,2.6-12.8c0.3-2.1,0.9-4.3,1.3-6.4c1.2-6.1,2.5-12.2,3.7-18.4c0.3-1.6,0.5-3.3,1-4.9
	c0.8-2.7,2.4-4.5,5.3-4.6c5-0.1,10-0.4,15-0.7c1.4-0.1,2.7,0.3,3.8,1.2c1.6,1.4,3.3,2.8,4.7,4.4
	C173.4,116.3,174.2,118.6,174.1,121.4z M149.8,125.9c3.4-0.3,6.8-0.7,10.2-1c0.8-0.1,1.8-0.2,2.5-0.6c0.9-0.6,1.8-1.4,2.3-2.3
	c0.2-0.4-0.9-1.4-1.5-2c-1.6-1.6-3.5-2.5-5.9-2.3c-1.5,0.2-3,0.2-4.5,0.3c-1.3,0-1.7,0.3-1.8,1.7c0,0.4-0.1,0.8-0.2,1.2
	C150.5,122.5,150.2,124.2,149.8,125.9z"/>
<path d="M353.5,122.9c-0.3,4.4-0.7,9-1,13.7c2.3-0.8,4.5-1.7,6.7-2.4c1.2-0.4,2.6-0.7,3.8-0.5c0.7,0.1,1.4,1.1,1.9,1.9
	c0.4,0.5,0.5,1.2,0.7,1.8c0.4,1.2,0,2.4-1.1,3c-2.6,1.5-5.3,2.9-8.3,3.4c-1.2,0.2-2.5,0.5-3.7,0.6c-0.8,0-1.2,0.3-1.4,1.1
	c-0.8,3.6-1.6,7.2-2.5,10.8c-0.3,1.5-0.7,2.9-1.1,4.5c4.2-0.4,8.3-0.7,12.1-2.5c1.1-0.6,2.6-0.6,3.9-0.5c0.6,0,1.3,0.9,1.6,1.5
	c0.5,1.1,0.9,2.3,1.2,3.6c0.2,1-0.5,1.9-1.3,2.4c-2.4,1.3-4.9,2.5-7.5,3.4c-2.1,0.7-4.4,1-6.6,1.2c-3.4,0.3-6.7,0.4-10.1,0.5
	c-2,0.1-1.9-0.3-2.4-2.2c-1.1-4.8,0.5-9.2,1.6-13.7c1.4-5.6,2.9-11.1,4.1-16.7c0.6-3,0.7-6.1,1.1-9.2c0.1-0.8,0-1.7,0.3-2.5
	c0.9-2.7,1.3-5.4,1.6-8.2c0.2-1.8,2.1-3.6,3.9-3.7c3.4-0.1,6.6-1,9.8-2.2c1.4-0.5,3-0.6,4.4-0.4c0.7,0.1,1.4,1.2,2,2
	c0.4,0.5,0.5,1.2,0.7,1.8c0.7,1.8,0,3.1-1.9,3.6c-0.5,0.1-0.8,0.6-1.3,0.9c-0.6,0.4-1.2,0.8-1.8,1C360,121.5,357,122.1,353.5,122.9z
	"/>
<path d="M159.2,60.7c3.6-0.4,7.1-0.7,10.5-1.1c2.4-0.3,4.8-0.7,7.2-0.7c0.7,0,1.6,1.1,2.2,1.9c0.4,0.5,0.5,1.2,0.7,1.8
	c0.5,1.5-0.2,2.9-1.8,3.2c-0.3,0.1-0.8,0.2-1,0.4c-1.1,1.6-2.8,1.6-4.5,1.8c-2.8,0.3-5.6,0.7-8.5,1c-1.4,0.2-2.8,0.3-4.2,0.3
	c-1.5,0-3-0.1-4.6-0.1c-0.8,0-1.6-0.1-2.4-0.2c-1.9-0.4-2.3-0.9-2.4-2.8c-0.1-1.1-0.7-2.2-0.6-3.2c0.3-2.3,0.9-4.6,1.4-6.8
	c1.3-5.6,2.7-11.1,4.1-16.7c0.9-3.6,1.8-7.3,2.8-10.9c0.1-0.3,0.1-0.7,0.1-1.1c-0.4-2.3,0.1-3,2.1-4.2c2.6-1.5,5.7-1.5,8.4-2.5
	c2.6-0.9,5.2-1.6,7.8-2.3c1.1-0.3,2.2-0.4,3.3-0.3c0.6,0.1,1.3,0.7,1.6,1.3c0.5,1,1,2.2,1.2,3.3c0.2,1.4-0.5,2-1.9,2.5
	c-0.6,0.2-1,0.8-1.6,1.1c-1.3,0.5-2.6,1-3.9,1.3c-2.3,0.5-4.6,0.9-7,1.3c-1,0.2-2,0.3-3.1,0.5c-0.5,3.5-1,7.1-1.5,10.7
	c3.2,0,6.2-0.4,9.1-1c2-0.4,4.1-0.6,6.1-0.9c0.7-0.1,1.4,0.1,1.7,0.7c0.6,1.1,1.2,2.2,1.5,3.3c0.2,0.9-0.5,1.6-1.4,2
	c-0.6,0.3-1.2,0.7-1.8,1c-0.9,0.4-1.8,0.8-2.8,1c-2.1,0.4-4.2,0.7-6.3,0.8c-2.4,0.1-4.8,0-7.5,0C161.3,51.4,160.3,55.8,159.2,60.7z"
	/>
<path d="M498.2,20.6c0,4.1,0,8.1,0,12.4c2.1-0.5,4.2-0.9,6.1-1.5c1.3-0.4,2.5-0.9,3.8-1.4c2.6-1.1,4.3-0.3,5.4,2.4
	c0.5,1.3,1,2.5-0.1,3.6c-0.1,0.1-0.3,0.4-0.4,0.4c-1.8,0-2.5,1.9-4.2,2.1c-1.6,0.2-3.1,0.6-4.6,0.9c-1.2,0.2-2.5,0.3-3.8,0.5
	c-1.2,0.1-2.4,0.2-3.8,0.4c-1.1,4-2.2,8.1-3.4,12.5c2.4-0.2,4.8-0.4,7.1-0.7c2-0.2,4-0.6,6.1-0.9c0.8-0.1,2,1.2,2.4,2.3
	c0.2,0.6,0.3,1.2,0.6,1.7c0.7,1.2-0.4,3.5-1.8,3.7c-0.5,0.1-0.9,0.6-1.4,0.9c-0.9,0.4-1.7,1-2.7,1.2c-3.7,0.7-7.4,1.5-11.2,1.1
	c-2.4-0.2-4.9,0-7.3-0.1c-0.5,0-1.4-0.4-1.4-0.7c-0.2-1.9-1.4-3.6-0.6-5.6c0.5-1.4,1-2.8,1.5-4.3c1.1-3.8,2.2-7.6,3.4-11.4
	c0.4-1.5,0.9-2.9,1.4-4.4c0.2-0.8,0.5-1.5,0.5-2.3c0.4-4.6,0.8-9.1,1.2-13.7c0.1-1.6,1.2-2.6,1.9-3.8c1.4-2.4,3.8-2.8,6.2-3
	c3.1-0.3,6.1-0.7,9.2-1c1.2-0.1,2.5-0.4,3.6-0.1c0.8,0.2,1.5,1.2,2.1,1.9c0.4,0.5,0.5,1.2,0.7,1.8c0.5,1.5-0.1,2.6-1.7,3
	c-0.5,0.1-0.8,0.6-1.3,0.9c-0.9,0.5-1.9,1.2-2.9,1.2c-3.3,0.2-6.6,0.1-9.9,0.1C498.6,20.6,498.3,20.6,498.2,20.6z"/>
<path d="M758.2,118.9c0.1,1.2,0.3,2.3,0.2,3.4c-0.3,3.1-0.6,6.2-1,9.3c-0.3,2.8-0.7,5.6-1.1,8.3c-0.5,3.4-1,6.7-1.6,10.1
	c0,0.2-0.1,0.5-0.1,0.7c-0.1,2.9-0.1,5.7-0.3,8.6c-0.1,1.6-0.3,3.2-1.4,4.6c-0.1,0.1-0.1,0.4-0.3,0.4c-2.4,0.5-3.9,3-6.6,2.7
	c-0.9-0.1-1.2-0.4-1.3-1.2c-0.2-1-0.5-2.1-0.6-3.1c-0.1-0.7,0.1-1.3,0.1-2c0.2-2.3,0.7-4.6,0.7-6.9c0-2.9,0.6-5.7,1.2-8.6
	c0.6-2.7,0.8-5.5,1.3-8.2c0.5-2.9,1.2-5.7,1.7-8.6c0.5-2.7,1.1-5.3,1.6-7.8c-3.1,0-5.9,0-8.8,0c-1,0-2-0.2-3-0.3
	c-0.8-0.1-1.2-0.5-1.2-1.4c0-0.8-0.3-1.7-0.5-2.5c-0.3-1-0.2-1.7,0.5-2.5c0.8-0.9,1.2-2.3,2.6-2.5c1.2-0.2,2.5-0.4,3.8-0.5
	c4.9-0.6,9.9-0.8,14.8-1.9c3.3-0.8,6.8-1,10.2-1.2c0.7,0,1.5,1.3,2.1,2.1c0.4,0.6,0.5,1.3,0.8,2c0.7,1.8-0.2,3.4-2.1,3.8
	c-0.5,0.1-0.8,0.6-1.3,0.8c-1.1,0.5-2.1,1.2-3.3,1.5c-1.9,0.4-3.9,0.5-5.9,0.8C759.2,118.6,758.7,118.8,758.2,118.9z"/>
<path d="M38.3,23.7c-1.7,4.8-3.3,9.4-5,14.2c0.7-0.1,1.4-0.2,2.1-0.3c3.2-0.4,6.4-0.8,9.5-1.2c1.2-0.1,1.6,0.9,2.1,1.6
	c0.2,0.2,0.2,0.5,0.3,0.8c0.9,2.3,0.7,2.7-1.7,3.6c-0.8,0.3-1.5,1.2-2.3,1.3c-1.7,0.4-3.5,0.6-5.3,0.7c-2.5,0.2-5,0.2-7.5,0.3
	c-0.4,0-1,0.2-1.1,0.5c-2,4.3-4.2,8.6-5.9,13.1c-1.5,3.9-2.4,7.9-3.6,11.9c-0.4,1.1-0.8,2.4-2.4,2.4c-0.2,0-0.6,0.1-0.6,0.3
	c-0.9,1.5-2.4,1.4-3.8,1.6c-1.3,0.2-1.6-0.2-1.8-1.4c-0.1-0.8-0.4-1.6-0.5-2.4c-0.1-1.1-0.2-2.2,0.6-3.2c0.6-0.8,0.9-1.7,1.2-2.7
	c1.1-3.4,2.1-6.8,3.3-10.1c0.6-1.8,1.7-3.5,2.2-5.4c1.5-5.8,4.7-10.7,7.1-16C27,29.6,29,26,30.3,22c0.7-2.1,2.3-3.8,4.9-4.2
	c3.3-0.5,6.5-1.4,9.7-1.9c2.4-0.4,4.8-0.3,7.2-0.5c1,0,1.9,0.1,2.9,0c0.9-0.1,1.6,0.3,2,1c0.9,1.9,1.5,2.7,0.5,3.8
	c-0.1,0.1-0.1,0.3-0.2,0.3c-1.9,0.5-3.2,2.2-5.4,1.9c-1-0.2-2.1,0-3.1,0c-2.7-0.2-5.4,0.3-8,0.9C39.8,23.6,38.9,23.6,38.3,23.7z"/>
<path d="M243.6,165.7c-1.7-0.1-3.4-0.1-5.1-0.3c-2.3-0.2-5.1-3.7-5.2-6.3c0-0.3,0.1-0.7,0-1c-1.7-5.2-0.6-10.2,1-15.2
	c0.9-2.8,1.9-5.4,3.5-7.9c2.1-3.2,4-6.6,6.2-9.7c2.4-3.5,5-7,8.7-9.4c1.4-0.9,2.9-1.7,4.5-2.4c1.8-0.7,3.7-1.1,5.4,0
	c0.6,0.4,1.1,1,1.6,1.6c0.5,0.7,0.1,1.2-0.5,1.6c-6.7,3.9-11.4,9.5-14.8,16.4c-0.9,1.7-1.8,3.3-2.8,5c-1.6,2.6-2.2,5.5-3,8.3
	c-0.6,2.2-0.7,4.4-0.7,6.6c0,1.2,0.4,1.5,1.7,1.8c4.1,0.9,7.4-0.7,10.6-3.1c0.7-0.5,1.4-1,2.1-1.6c1.6-1.3,3.5-1.3,5.3-1
	c0.8,0.1,1.4,1.4,2,2.3c0.3,0.5,0.4,1.1,0.6,1.7c0.7,1.8,0.3,2.8-1.3,4c-3.8,2.9-7.9,5.2-12.2,7.1
	C248.8,165.4,246.3,165.8,243.6,165.7z"/>
<path d="M869.7,116.6c-0.2,2.4-0.4,4.7-0.5,6.9c-0.1,1.5-0.1,2.9-0.1,4.4c0,1.6,0,3.2,0,4.8c0,1.3-0.1,2.5-0.2,3.8
	c-0.3,2.5-0.6,5-0.9,7.5c-0.1,0.8-0.3,1.6-0.3,2.3c-0.1,3.1-0.2,6.2-0.2,9.3c0,1.2-0.9,2.3-2.1,2.6c-0.5,0.1-1,0.5-1.3,0.8
	c-0.8,0.8-3.9,1.8-4.8,1.2c-0.3-0.2-0.5-0.8-0.6-1.3c-0.3-1-0.6-2-0.7-3c-0.1-0.7,0.1-1.5,0.1-2.3c0.2-2.9,0.4-5.9,0.7-8.8
	c0.3-2.2,0.8-4.4,1.2-6.6c0.3-2.1,0.4-4.2,0.7-6.3c0.7-4.5,0.8-9.1,2.6-13.4c0.2-0.5,0.2-1.1,0.4-1.7c-1.3,0.1-2.4,0.1-3.5,0.2
	c-2.8,0.2-5.5,0.5-8.3,0.7c-1.1,0.1-1.4-0.4-1.5-1.4c-0.1-1-0.6-2-0.4-2.9c0.3-2,1.4-3.6,3.5-4.1c2.1-0.5,4.3-0.9,6.5-1.2
	c2.2-0.4,4.5-0.6,6.7-0.9c2.2-0.2,4.4-0.4,6.5-0.5c3-0.1,6-0.1,9-0.3c1.9-0.1,3.8-0.3,5.7-0.5c1.7-0.2,2.8,0.6,3.4,2.2
	c0.2,0.5,0.3,1,0.5,1.5c0.7,1.4-0.3,3.2-1.8,3.6c-0.4,0.1-0.8,0.5-1.2,0.7c-1.1,0.5-2.2,1.1-3.4,1.4c-3.4,0.9-6.9,0.8-10.4,0.8
	C872.9,116.4,871.1,116.6,869.7,116.6z"/>
<path d="M727.9,110.7c1.2-0.2,2.2,0,2.8,1.2c0.4,1,0.3,1.6-0.6,2.2c-2.4,1.5-4.3,3.6-6.1,5.7c-0.3,0.4-0.6,0.8-0.9,1.3
	c-1,1.9-0.9,2.4,0.8,3.7c5,3.7,7.7,8.8,8.8,14.7c1.2,6.3-0.2,12-4.2,17.1c-1.6,2-3.7,3.3-5.9,4.6c-3.2,1.9-6.4,3.8-10.2,4.2
	c-3.2,0.3-6.4,0.7-9.5,1.1c-1.1,0.1-1.4-0.5-1.6-1.4c-0.2-1.1-0.5-2.2-0.7-3.3c-0.1-0.5-0.2-1,0-1.4c0.5-1.1,0.9-2.3,1.7-3
	c0.8-0.7,2-1.2,3-1.4c3.3-0.6,6.7-0.6,9.9-1.5c3.1-0.9,5.7-2.8,7-6.2c1-2.5,1.1-5,0.7-7.4c-0.3-2.4-1.8-4.4-3.5-6.1
	c-1.2-1.1-2.5-2.1-3.7-3.2c-0.4-0.3-0.8-0.7-0.9-1.1c-0.4-1.8-0.9-3.6-0.9-5.4c-0.1-6.7,4.1-10.6,9.4-13.6c1.3-0.7,2.9-0.8,4.4-1.2
	C727.8,110.5,727.8,110.6,727.9,110.7z"/>
<path d="M647.8,156.5c3.5-0.4,6.9-0.9,10.2-1.3c1.5-0.2,3-0.4,4.5-0.4c1.4,0,1.8,1.3,2.4,2.4c0.3,0.6,0.4,1.2,0.7,1.8
	c0.8,2,0,3.5-2.1,4c-0.3,0.1-0.8,0.2-0.9,0.4c-0.8,1.5-2.4,1.7-3.8,1.9c-2.4,0.3-4.8,0.4-7.2,0.5c-3.9,0.1-7.8,0.2-11.7,0.2
	c-1.5,0-1.7-0.2-1.7-1.8c0-0.4,0-0.9-0.2-1.3c-1-2.2-0.4-4.3,0-6.4c0.8-3.7,1.5-7.3,2.3-11c0.4-1.9,0.8-3.9,1.3-5.8
	c1.4-5.7,1.4-11.6,1.6-17.4c0.1-3.3,0.4-6.7,2-9.7c1.1-2.1,1.9-3.2,4.4-3c1.5,0.1,2.8,1.9,2.3,3.4c-0.2,0.6-0.3,1.3-0.3,2
	c-0.1,1.5-0.3,2.9-0.2,4.4c0.1,4.2,0.4,8.4,0.4,12.6c0,2.5-0.4,5-0.7,7.5c-0.5,3.6-1.2,7.1-1.9,10.7c-0.3,1.6-0.7,3.2-1,4.7
	C648,155.5,647.9,155.8,647.8,156.5z"/>
<path d="M615.8,155.3c1.2,0,2.4,0,3.5,0c3.3,0,6.6,0,9.8,0c2.8,0,3.3,0.3,4.2,3c0.2,0.5,0.4,1,0.6,1.6c0.5,1.6-0.4,3-2.1,3.4
	c-0.5,0.1-0.9,0.6-1.4,0.9c-0.7,0.4-1.4,0.9-2.1,1.2c-2.5,0.8-5.1,0.2-7.7,0.2c-1.9,0-3.7-0.3-5.6-0.4c-2.2-0.1-4.5-0.2-6.7-0.3
	c-1.3-0.1-1.7-0.6-1.8-1.9c-0.1-0.9-0.4-1.7-0.5-2.5c-0.1-1-0.1-2,0.1-2.9c0.9-5.3,2-10.5,3.9-15.6c1.6-4.3,2.2-8.9,3.3-13.4
	c0.8-3.5,1.7-7,2.5-10.6c0.3-1.6,0.3-3.3,0.4-5c0.1-1.7,0.4-3.4,1.9-4.1c2.9-1.5,4.6-0.7,5.3,2.7c0.7,3.7,0.3,7.5-0.6,11.2
	c-0.8,3.1-1.1,6.3-1.8,9.4c-1,5.1-1.6,10.2-3.7,15c-0.8,2-0.9,4.4-1.4,6.6C615.9,154.2,615.9,154.7,615.8,155.3z"/>
<path d="M524.9,55.5c4-0.2,7.8-0.4,11.6-0.5c1.6-0.1,3.2-0.3,4.7,0c0.8,0.2,1.5,1.2,2,1.9c0.4,0.5,0.5,1.2,0.7,1.9
	c0.6,1.6-0.2,2.9-1.8,3.3c-0.5,0.1-0.9,0.6-1.3,0.9c-0.6,0.4-1.1,0.9-1.7,1c-1.4,0.2-2.9,0.2-4.4,0.3c-2.7,0.1-5.3,0.2-8,0.2
	c-2.7,0-5.4,0-8,0c-0.7,0-1.5,0-2.2-0.3c-0.4-0.2-0.8-0.7-1-1.2c-0.3-1-0.6-2.1-0.7-3.1c-0.1-0.8,0.1-1.8,0.4-2.6
	c2.5-6.4,5-12.7,7.5-19.1c1.2-3.1,1.7-6.4,2.1-9.7c0.5-4.1,1-8.3,1.7-12.4c0.3-1.7,1.5-3.2,3.2-3.1c1,0,1.6,0.5,1.9,1.3
	c0.6,1.9,1.5,3.9,1.5,5.9c0.1,4,0,8.1-0.5,12c-0.6,5.4-2.4,10.5-4.6,15.4C527,50.1,526.1,52.7,524.9,55.5z"/>
<path d="M376.8,169.6c-0.7,0.1-0.9-0.5-1-1.2c-0.2-1-0.4-1.9-0.6-2.9c-0.1-0.4-0.1-0.8,0.1-1.1c0.6-1,1.1-2.4,2-3
	c2.5-1.6,4.5-3.8,6.8-5.6c1.9-1.4,2.8-3.2,2.7-5.6c0-2.3-0.4-4.3-1.8-6.1c-1.4-1.9-2.7-3.8-4.3-5.6c-2-2.3-2.6-5.2-3-8
	c-0.8-5.9,1.4-10.6,5.9-14.4c1.9-1.6,3.9-2.7,6.4-2.5c1.1,0.1,2.3,1.2,2.7,2.8c0.3,1.1-0.4,1.6-1.3,2.3c-3,2.3-5.3,4.9-5.5,9
	c-0.1,2.1,0.7,3.4,2,4.8c1.7,1.8,3.5,3.6,4.7,5.7c1.8,3.2,3.3,6.6,3.3,10.5c0,2.8,0.1,5.5-1.4,8c-0.8,1.3-1.8,2.5-2.9,3.6
	c-1.9,1.9-3.8,3.8-5.9,5.4C383.2,167.6,380.5,169.4,376.8,169.6z"/>
<path d="M604.9,111.5c-0.4,2.8-0.7,5.6-1.1,8.3c0,0.2,0,0.5-0.1,0.7c-0.3,2.3-0.5,4.6-0.8,6.8c-0.1,0.7-0.1,1.3-0.2,2
	c-0.3,2.2-0.5,4.4-0.8,6.6c-0.4,3.4-0.9,6.7-1.4,10.1c-0.4,2.6-0.8,5.2-1.3,7.8c-0.4,2.4-1,4.9-1.3,7.3c-0.3,1.6-0.9,2.3-2.4,2.8
	c-0.4,0.1-0.7,0.5-1.1,0.8c-0.5,0.4-1.1,0.8-1.7,1.1c-0.5,0.2-1.2,0.2-1.8,0.3c-2,0.3-2.1,0.1-2.2-1.9c0-0.2,0.1-0.4,0-0.6
	c-1.4-2.9,0.2-5.6,0.6-8.4c0.5-3.2,1.2-6.3,1.8-9.4c0.4-2.3,0.7-4.7,1-7.1c0.5-3.7,1.1-7.4,1.7-11.2c0.1-0.9,0.3-1.9,0.5-2.8
	c1.1-5.1,2.2-10.2,3.4-15.2c0.5-2.2,2.6-3.6,4.9-3.2c0.9,0.1,2,1.9,2.1,3.2c0,0.6,0,1.3,0,1.9C604.8,111.5,604.8,111.5,604.9,111.5z
	"/>
<path d="M902.4,107.1c1.1-0.3,1.8,0.3,2.1,1.1c0.5,1.2,0.8,2.5,1,3.7c0.3,2.4,0.6,4.7,0.7,7.1c0,1.2-0.2,2.4-0.5,3.6
	c-0.4,2.6-1.1,5.2-1.3,7.8c-0.5,5.2-1.8,10.1-3.5,14.9c-1.1,3.1-1.8,6.3-2.8,9.5c-0.3,0.9-0.7,1.7-1.9,1.8c-0.5,0-0.9,0.5-1.4,0.8
	c-0.5,0.3-1,0.7-1.6,1c-0.4,0.2-0.8,0.2-1.3,0.3c-2.5,0.4-2.6,0.4-2.7-2.2c0-0.2,0-0.3,0-0.5c-1.3-2.8-0.1-5.4,0.8-8
	c1.7-5.2,4-10.3,5-15.8c0.7-3.9,1.7-7.8,2.4-11.7c0.4-2.5,0.6-5.1,0.7-7.7c0.1-1.8,0.2-3.6,1.5-4.8c0.7-0.6,1.7-0.9,2.6-1.3
	C902.3,106.9,902.3,107,902.4,107.1z"/>
<path d="M231.7,118.2c-0.6,2.1-1.1,4.3-1.9,6.3c-1.1,2.7-1.4,5.4-1.8,8.2c-0.3,2.6-0.7,5.2-1,7.8c-0.1,1-0.4,2-0.4,2.9
	c0.1,3.6-0.9,7-1.9,10.5c-0.9,3.4-2,6.8-3,10.2c-0.1,0.5-0.2,1-0.4,1.5c-0.4,0.7-0.8,1.5-1.9,1.5c-0.4,0-0.7,0.5-1.1,0.7
	c-0.9,0.5-1.9,0.9-2.9,1.3c-0.1,0-0.2,0-0.4,0c-2.1,0.2-2.1,0.2-2.3-2c-0.1-0.6-0.4-1.1-0.5-1.7c-0.1-0.6-0.2-1.3,0-1.8
	c1.7-5.3,3.7-10.6,5.3-15.9c0.7-2.4,0.8-5.1,1.3-7.6c0.8-4.7,1.7-9.5,2.7-14.2c0.4-1.8,1.3-3.4,2-5.1c0.3-0.9,0.5-1.9,0.9-2.8
	c0.4-1,0.7-2.1,1.3-3.1c0.8-1.4,4.1-1.3,4.8,0.2C231,115.9,231.3,116.9,231.7,118.2z"/>
<path d="M414.1,121.3c0.1,1.9,0.3,3.9,0.3,5.8c0,4.8-0.3,9.6-1.5,14.3c-0.8,3.4-1.4,6.8-1.8,10.2c-0.4,3.4-0.4,6.7-0.5,10.1
	c-0.1,1.3-0.6,1.9-1.8,2.2c-0.4,0.1-0.9,0.4-1.2,0.8c-0.7,0.8-3.5,1.6-4.5,1.2c-0.3-0.1-0.5-0.7-0.6-1c-0.6-2.6-0.8-5.2-0.5-7.8
	c0.5-4.4,1.1-8.7,2-13c1.3-6.4,2.5-12.9,2.6-19.5c0-2.2,0.4-4.4,1-6.4c0.4-1.3,1.3-2.6,2.4-3.5c0.6-0.6,2.1-0.8,2.8-0.4
	c0.7,0.4,1.2,1.6,1.3,2.6c0.2,1.4,0.1,3,0.1,4.4C414.2,121.3,414.1,121.3,414.1,121.3z"/>
<path d="M145.4,45.9c-0.2,1.4-0.6,3.6-0.9,5.8c-0.2,1.4-0.4,2.8-0.4,4.2c0,3.6-1.4,6.9-2.3,10.4c-0.2,0.7-0.7,1.6-1.8,1.6
	c-0.4,0-0.8,0.6-1.3,0.8c-0.8,0.4-1.7,0.8-2.5,1.2c-0.2,0.1-0.4,0.1-0.6,0.1c-2.2,0.2-2.2,0.2-2.3-2c0-0.2,0-0.4,0-0.6
	c-1.1-2-0.4-3.9,0.3-5.7c1.2-3.1,1.3-6.4,1.7-9.6c0.3-2.2,0.8-4.3,1-6.4c0.3-3.4,0.2-6.9,0.4-10.3c0.1-2.5,0.3-5,0.8-7.5
	c0.3-1.4,1.1-2.8,1.8-4.1c0.6-1.1,1.8-1.1,2.8-0.8c0.6,0.2,1.1,1.1,1.3,1.8c1,3.3,1.4,6.7,1.5,10.2C145,38.4,145.2,41.8,145.4,45.9z
	"/>
<path class="st0" d="M439.7,159.4c-0.5,4.2-1.4,8.2-3.7,11.7c-1.9,3-3.9,6.1-6.1,8.9c-1.6,2.1-2.9,2.2-5.2,1.1c-1-0.5-2-1.2-3-1.6
	c-1.9-0.8-2.2-2.4-2.3-4.1c-0.1-1.3-0.1-2.6,0-3.8c0.1-0.7,0.4-1.5,0.8-2c2.5-3,5.9-4.7,9.5-6.1c3.1-1.2,6.2-2.6,9.2-3.9
	C439.2,159.4,439.4,159.4,439.7,159.4z"/>
<path class="st0" d="M443.8,119.7c-0.1,0.9-0.2,1.8-0.4,2.6c-0.5,2.2-1,4.4-1.6,6.6c-0.2,0.6-0.5,1.2-1,1.7
	c-1.9,2.2-3.6,4.6-6.3,5.8c-2.4,1.1-4.6,0.9-6.8-0.4c-0.4-0.3-0.7-0.9-0.7-1.4c-0.1-1.9-0.2-3.8,1.1-5.5c2-2.5,4.4-4.6,7.3-6.1
	c2.6-1.4,5.4-2.5,8.1-3.7C443.6,119.5,443.7,119.6,443.8,119.7z"/>
<path class="st0" d="M34.1,119.9c-1.2,5.1-2.5,10-3.6,15c-0.9,4.1-3.4,7-6.5,9.5c-0.8,0.7-1.7,1.3-2.5,2c-0.8,0.7-1.5,0.7-2.4,0.3
	c-1.4-0.7-2.8-1.5-4.1-2.3c-0.7-0.4-1-1.1-1-2c-0.2-3.5,0.9-6.6,2.4-9.7c1.5-3.3,3.4-6.4,6.2-8.7c1.7-1.4,3.7-2.5,5.7-3.4
	c1-0.5,2.3-0.4,3.5-0.5C32.4,120,33.1,120,34.1,119.9z"/>
<path class="st0" d="M67.4,129.7c0.4-2.7,0.8-5.3,1.3-7.9c0.4-2.2,0.5-2.3,2.9-2.2c2.4,0.1,4.9,0,7,1.5c1,0.7,1.4,2,0.7,3
	c-0.9,1.3-1.8,2.6-2.9,3.8c-1,1.2-2.6,1.6-4,1.7C70.8,129.8,69.2,129.7,67.4,129.7z"/>
<path class="st0" d="M26.1,167.8c-0.9,2.7-1.6,5.1-2.7,7.4c-0.8,1.7-2.4,1.7-3.7,0.3c-1-1-1.5-2.1-1.5-3.6c0-1.2,0.3-1.8,1.8-2.4
	C22,168.9,23.8,168.5,26.1,167.8z"/>
<path class="st0" d="M780.5,124.1c0.9-2.2,1.7-4.1,2.5-6c0.4-1,1.1-1.4,2.1-1.2c1.6,0.4,3.2,0.7,4.7,1.3c1.7,0.6,1.7,1.6,0.5,2.9
	c-1.4,1.5-3.2,1.7-5,2.1C783.8,123.4,782.3,123.7,780.5,124.1z"/>
<path class="st0" d="M377,30.2c0.8-3.7,2.3-7.1,4-10.5c0.1-0.2,0.3-0.3,0.4-0.4c3.6-1.4,7.1-1.7,10.4,1c0.3,0.2,0.6,0.6,0.6,0.8
	c-0.1,1.5-0.1,3.1-0.4,4.6c-0.2,0.7-0.9,1.5-1.6,1.9C386.2,29.9,381.8,31,377,30.2z"/>
<path class="st0" d="M315.2,158c2.7-12.4,3.8-25,2.7-37.8c2.4-0.3,4.5-0.1,6.5,1c2.5,1.3,4.7,3,6.4,5.3c0.4,0.5,0.8,1.1,0.8,1.7
	c0.1,2.9,0.5,5.7-1.3,8.4c-4.4,6.5-8.7,13-13.1,19.5C316.6,156.8,315.8,157.5,315.2,158z"/>
<path class="st0" d="M923.7,116.7c2.7,1.4,3.3,4,4.6,6c1.2,1.9,2.3,3.8,3.3,5.8c0.2,0.4,0.4,0.9,0.5,1.3c0.4,6.3-0.4,12.3-3.8,17.7
	c-1.1,1.7-2.6,2.9-4.4,3.6c-1.3,0.5-2.6-0.2-3.7-1c-1-0.7-1.9-1.6-2.9-2.3c-1-0.8-1.2-1.7-1.3-3c-0.3-3.7,0.7-7.2,1.6-10.7
	c0.7-2.8,1.2-5.7,2.2-8.5C920.9,122.6,922.4,119.7,923.7,116.7z"/>
<path class="st0" d="M107.7,46c3.1,1.7,6.2,3.3,9.1,5.1c2.5,1.6,2.3,5.1-0.2,6.6c-1.7,1.1-3.5,2.3-5.4,3c-1.8,0.7-3.9,0.9-6,1.4
	c0.3-2.8,0.8-5.4,0.8-8C106.2,51.4,106.5,48.8,107.7,46z"/>
<path class="st0" d="M111.4,29.4c3.3,0,6.7,0,10.3,0c-2.9,4.1-7.1,4.7-11.3,5.5C110.8,33,111.1,31.2,111.4,29.4z"/>
<path class="st0" d="M822.8,135.3c0.4-1.1,0.7-1.8,0.9-2.5c1-2.8,1.9-5.7,3-8.5c0.6-1.5,1.4-3,2.3-4.4c0.5-0.8,1.2-1.4,2.1-2
	c1.9,5.1,2.7,10.2,2.5,15.7C830.1,134.2,826.6,134.8,822.8,135.3z"/>
<path class="st0" d="M117.5,140.5c-2.7,0.2-5.5,0.4-8.3,0.6c1.1-6,3.9-11.1,6.6-16C116.3,130,116.9,135.1,117.5,140.5z"/>
<path class="st0" d="M78.8,40.5c-3.1,0.5-6.1,1-9.3,1.6c0.6-1.3,1.3-2.4,1.8-3.5c0.6-1.4,1-3,1.8-4.4c0.9-1.6,2.1-3.1,3.2-4.6
	c1,0.7,1.6,1.3,1.7,2.4c0.2,2.6,0.6,5.1,0.9,7.7C78.9,39.8,78.8,40.1,78.8,40.5z"/>
<path class="st0" d="M452.7,52c0.5-1.4,0.9-2.4,1.3-3.5c1.5-5.4,3.2-10.7,4.4-16.2c0.5-2.3,0.1-4.9,0-7.3c0-1.2-0.2-2.4-0.4-3.7
	c1.3,0.1,2.6,0.1,3.8,0.2c2.5,0.2,4.8,1.2,6.9,2.6c1,0.7,1.6,1.5,1.5,2.9c-0.1,2.2-0.2,4.3-0.1,6.5c0.1,2.3-0.8,4.1-2,5.9
	c-2.6,4-6.2,7-10.1,9.7C456.6,50.2,454.7,50.9,452.7,52z"/>
<path class="st0" d="M416.1,50.8c-0.1-5.6,1.3-10.8,3.4-15.9c1.4-3.2,2.3-6.7,4.5-9.5c1.2-1.5,1.7-1.7,3.6-1.2
	c2.8,0.8,4.8,3.9,4.6,6.5c-0.2,3.4,0.2,6.8-0.4,10.2c-0.8,5.1-2.7,9.9-7.4,12.9c-0.6,0.4-1.3,0.8-1.8,1.3c-1.8,1.7-3.7,1.3-5.6,0.5
	c-0.9-0.3-0.7-1.2-0.8-1.9C416,52.7,416.1,51.7,416.1,50.8z"/>
<path class="st0" d="M149.8,125.9c0.3-1.7,0.7-3.4,1-5.1c0.1-0.4,0.2-0.8,0.2-1.2c0.2-1.4,0.5-1.6,1.8-1.7c1.5,0,3-0.1,4.5-0.3
	c2.4-0.3,4.3,0.6,5.9,2.3c0.6,0.6,1.7,1.7,1.5,2c-0.4,0.9-1.4,1.7-2.3,2.3c-0.7,0.4-1.6,0.5-2.5,0.6
	C156.7,125.2,153.3,125.6,149.8,125.9z"/>
</svg>
